%TF.GenerationSoftware,KiCad,Pcbnew,8.0.6*%
%TF.CreationDate,2025-02-06T19:24:46+11:00*%
%TF.ProjectId,sr32gpo,73723332-6770-46f2-9e6b-696361645f70,rev?*%
%TF.SameCoordinates,Original*%
%TF.FileFunction,Paste,Top*%
%TF.FilePolarity,Positive*%
%FSLAX46Y46*%
G04 Gerber Fmt 4.6, Leading zero omitted, Abs format (unit mm)*
G04 Created by KiCad (PCBNEW 8.0.6) date 2025-02-06 19:24:46*
%MOMM*%
%LPD*%
G01*
G04 APERTURE LIST*
G04 Aperture macros list*
%AMRoundRect*
0 Rectangle with rounded corners*
0 $1 Rounding radius*
0 $2 $3 $4 $5 $6 $7 $8 $9 X,Y pos of 4 corners*
0 Add a 4 corners polygon primitive as box body*
4,1,4,$2,$3,$4,$5,$6,$7,$8,$9,$2,$3,0*
0 Add four circle primitives for the rounded corners*
1,1,$1+$1,$2,$3*
1,1,$1+$1,$4,$5*
1,1,$1+$1,$6,$7*
1,1,$1+$1,$8,$9*
0 Add four rect primitives between the rounded corners*
20,1,$1+$1,$2,$3,$4,$5,0*
20,1,$1+$1,$4,$5,$6,$7,0*
20,1,$1+$1,$6,$7,$8,$9,0*
20,1,$1+$1,$8,$9,$2,$3,0*%
G04 Aperture macros list end*
%ADD10RoundRect,0.225000X-0.250000X0.225000X-0.250000X-0.225000X0.250000X-0.225000X0.250000X0.225000X0*%
%ADD11RoundRect,0.225000X0.225000X0.250000X-0.225000X0.250000X-0.225000X-0.250000X0.225000X-0.250000X0*%
%ADD12RoundRect,0.200000X0.275000X-0.200000X0.275000X0.200000X-0.275000X0.200000X-0.275000X-0.200000X0*%
%ADD13RoundRect,0.200000X0.200000X0.275000X-0.200000X0.275000X-0.200000X-0.275000X0.200000X-0.275000X0*%
%ADD14RoundRect,0.200000X-0.200000X-0.275000X0.200000X-0.275000X0.200000X0.275000X-0.200000X0.275000X0*%
%ADD15RoundRect,0.250000X0.250000X0.475000X-0.250000X0.475000X-0.250000X-0.475000X0.250000X-0.475000X0*%
%ADD16RoundRect,0.375000X0.375000X-0.625000X0.375000X0.625000X-0.375000X0.625000X-0.375000X-0.625000X0*%
%ADD17RoundRect,0.500000X1.400000X-0.500000X1.400000X0.500000X-1.400000X0.500000X-1.400000X-0.500000X0*%
%ADD18RoundRect,0.200000X-0.275000X0.200000X-0.275000X-0.200000X0.275000X-0.200000X0.275000X0.200000X0*%
%ADD19RoundRect,0.150000X-0.150000X0.825000X-0.150000X-0.825000X0.150000X-0.825000X0.150000X0.825000X0*%
%ADD20RoundRect,0.150000X0.825000X0.150000X-0.825000X0.150000X-0.825000X-0.150000X0.825000X-0.150000X0*%
%ADD21RoundRect,0.150000X-0.825000X-0.150000X0.825000X-0.150000X0.825000X0.150000X-0.825000X0.150000X0*%
G04 APERTURE END LIST*
D10*
X127000000Y-70345000D03*
X127000000Y-71895000D03*
X119380000Y-70345000D03*
X119380000Y-71895000D03*
D11*
X97295000Y-88900000D03*
X95745000Y-88900000D03*
D12*
X119380000Y-64325000D03*
X119380000Y-62675000D03*
X116840000Y-64325000D03*
X116840000Y-62675000D03*
X114300000Y-64325000D03*
X114300000Y-62675000D03*
X111760000Y-64325000D03*
X111760000Y-62675000D03*
X109220000Y-64325000D03*
X109220000Y-62675000D03*
X106680000Y-64325000D03*
X106680000Y-62675000D03*
X104140000Y-64325000D03*
X104140000Y-62675000D03*
X101600000Y-64325000D03*
X101600000Y-62675000D03*
D13*
X97345000Y-66040000D03*
X95695000Y-66040000D03*
X97345000Y-68580000D03*
X95695000Y-68580000D03*
X97345000Y-71120000D03*
X95695000Y-71120000D03*
X97345000Y-73660000D03*
X95695000Y-73660000D03*
X97345000Y-76200000D03*
X95695000Y-76200000D03*
X97345000Y-78740000D03*
X95695000Y-78740000D03*
X97345000Y-81280000D03*
X95695000Y-81280000D03*
X97345000Y-83820000D03*
X95695000Y-83820000D03*
D14*
X149035000Y-66040000D03*
X150685000Y-66040000D03*
X149035000Y-68580000D03*
X150685000Y-68580000D03*
X149035000Y-81280000D03*
X150685000Y-81280000D03*
X149035000Y-83820000D03*
X150685000Y-83820000D03*
X149035000Y-76200000D03*
X150685000Y-76200000D03*
X149035000Y-73660000D03*
X150685000Y-73660000D03*
X149035000Y-71120000D03*
X150685000Y-71120000D03*
X149035000Y-78740000D03*
X150685000Y-78740000D03*
D12*
X134620000Y-64325000D03*
X134620000Y-62675000D03*
X137160000Y-64325000D03*
X137160000Y-62675000D03*
X144780000Y-64325000D03*
X144780000Y-62675000D03*
X132080000Y-64325000D03*
X132080000Y-62675000D03*
X142240000Y-64325000D03*
X142240000Y-62675000D03*
X129540000Y-64325000D03*
X129540000Y-62675000D03*
X139700000Y-64325000D03*
X139700000Y-62675000D03*
X127000000Y-64325000D03*
X127000000Y-62675000D03*
D11*
X150635000Y-88900000D03*
X149085000Y-88900000D03*
D15*
X117790000Y-78740000D03*
X115890000Y-78740000D03*
D16*
X114540000Y-90780000D03*
X116840000Y-90780000D03*
D17*
X116840000Y-84480000D03*
D16*
X119140000Y-90780000D03*
D18*
X127000000Y-77915000D03*
X127000000Y-79565000D03*
D19*
X142875000Y-68645000D03*
X141605000Y-68645000D03*
X140335000Y-68645000D03*
X139065000Y-68645000D03*
X137795000Y-68645000D03*
X136525000Y-68645000D03*
X135255000Y-68645000D03*
X133985000Y-68645000D03*
X133985000Y-73595000D03*
X135255000Y-73595000D03*
X136525000Y-73595000D03*
X137795000Y-73595000D03*
X139065000Y-73595000D03*
X140335000Y-73595000D03*
X141605000Y-73595000D03*
X142875000Y-73595000D03*
D20*
X142175000Y-86360000D03*
X142175000Y-85090000D03*
X142175000Y-83820000D03*
X142175000Y-82550000D03*
X142175000Y-81280000D03*
X142175000Y-80010000D03*
X142175000Y-78740000D03*
X142175000Y-77470000D03*
X137225000Y-77470000D03*
X137225000Y-78740000D03*
X137225000Y-80010000D03*
X137225000Y-81280000D03*
X137225000Y-82550000D03*
X137225000Y-83820000D03*
X137225000Y-85090000D03*
X137225000Y-86360000D03*
D19*
X113030000Y-68645000D03*
X111760000Y-68645000D03*
X110490000Y-68645000D03*
X109220000Y-68645000D03*
X107950000Y-68645000D03*
X106680000Y-68645000D03*
X105410000Y-68645000D03*
X104140000Y-68645000D03*
X104140000Y-73595000D03*
X105410000Y-73595000D03*
X106680000Y-73595000D03*
X107950000Y-73595000D03*
X109220000Y-73595000D03*
X110490000Y-73595000D03*
X111760000Y-73595000D03*
X113030000Y-73595000D03*
D21*
X104205000Y-77470000D03*
X104205000Y-78740000D03*
X104205000Y-80010000D03*
X104205000Y-81280000D03*
X104205000Y-82550000D03*
X104205000Y-83820000D03*
X104205000Y-85090000D03*
X104205000Y-86360000D03*
X109155000Y-86360000D03*
X109155000Y-85090000D03*
X109155000Y-83820000D03*
X109155000Y-82550000D03*
X109155000Y-81280000D03*
X109155000Y-80010000D03*
X109155000Y-78740000D03*
X109155000Y-77470000D03*
M02*
