G04 #@! TF.GenerationSoftware,KiCad,Pcbnew,6.0.7*
G04 #@! TF.CreationDate,2022-09-12T18:31:12+10:00*
G04 #@! TF.ProjectId,sr32gpo,73723332-6770-46f2-9e6b-696361645f70,rev?*
G04 #@! TF.SameCoordinates,Original*
G04 #@! TF.FileFunction,Soldermask,Bot*
G04 #@! TF.FilePolarity,Negative*
%FSLAX46Y46*%
G04 Gerber Fmt 4.6, Leading zero omitted, Abs format (unit mm)*
G04 Created by KiCad (PCBNEW 6.0.7) date 2022-09-12 18:31:12*
%MOMM*%
%LPD*%
G01*
G04 APERTURE LIST*
%ADD10C,6.000000*%
%ADD11C,2.082800*%
%ADD12R,1.700000X1.700000*%
%ADD13O,1.700000X1.700000*%
%ADD14R,3.000000X3.000000*%
%ADD15C,3.000000*%
G04 APERTURE END LIST*
D10*
X78740000Y-45720000D03*
X167640000Y-45720000D03*
D11*
X157480000Y-83820000D03*
X157480000Y-81280000D03*
X157480000Y-78740000D03*
X157480000Y-76200000D03*
X157480000Y-73660000D03*
X157480000Y-71120000D03*
X157480000Y-68580000D03*
X157480000Y-66040000D03*
X162560000Y-83820000D03*
X162560000Y-81280000D03*
X162560000Y-78740000D03*
X162560000Y-76200000D03*
X162560000Y-73660000D03*
X162560000Y-71120000D03*
X162560000Y-68580000D03*
X162560000Y-66040000D03*
X144780000Y-55880000D03*
X142240000Y-55880000D03*
X139700000Y-55880000D03*
X137160000Y-55880000D03*
X134620000Y-55880000D03*
X132080000Y-55880000D03*
X129540000Y-55880000D03*
X127000000Y-55880000D03*
X144780000Y-50800000D03*
X142240000Y-50800000D03*
X139700000Y-50800000D03*
X137160000Y-50800000D03*
X134620000Y-50800000D03*
X132080000Y-50800000D03*
X129540000Y-50800000D03*
X127000000Y-50800000D03*
X119380000Y-55880000D03*
X116840000Y-55880000D03*
X114300000Y-55880000D03*
X111760000Y-55880000D03*
X109220000Y-55880000D03*
X106680000Y-55880000D03*
X104140000Y-55880000D03*
X101600000Y-55880000D03*
X119380000Y-50800000D03*
X116840000Y-50800000D03*
X114300000Y-50800000D03*
X111760000Y-50800000D03*
X109220000Y-50800000D03*
X106680000Y-50800000D03*
X104140000Y-50800000D03*
X101600000Y-50800000D03*
D12*
X127000000Y-91440000D03*
D13*
X129540000Y-91440000D03*
X132080000Y-91440000D03*
D11*
X88900000Y-66040000D03*
X88900000Y-68580000D03*
X88900000Y-71120000D03*
X88900000Y-73660000D03*
X88900000Y-76200000D03*
X88900000Y-78740000D03*
X88900000Y-81280000D03*
X88900000Y-83820000D03*
X83820000Y-66040000D03*
X83820000Y-68580000D03*
X83820000Y-71120000D03*
X83820000Y-73660000D03*
X83820000Y-76200000D03*
X83820000Y-78740000D03*
X83820000Y-81280000D03*
X83820000Y-83820000D03*
X127000000Y-45720000D03*
X129540000Y-45720000D03*
X132080000Y-45720000D03*
X134620000Y-45720000D03*
X137160000Y-45720000D03*
X139700000Y-45720000D03*
X142240000Y-45720000D03*
X144780000Y-45720000D03*
X101600000Y-45720000D03*
X104140000Y-45720000D03*
X106680000Y-45720000D03*
X109220000Y-45720000D03*
X111760000Y-45720000D03*
X114300000Y-45720000D03*
X116840000Y-45720000D03*
X119380000Y-45720000D03*
X78740000Y-83820000D03*
X78740000Y-81280000D03*
X78740000Y-78740000D03*
X78740000Y-76200000D03*
X78740000Y-73660000D03*
X78740000Y-71120000D03*
X78740000Y-68580000D03*
X78740000Y-66040000D03*
X167640000Y-66040000D03*
X167640000Y-68580000D03*
X167640000Y-71120000D03*
X167640000Y-73660000D03*
X167640000Y-76200000D03*
X167640000Y-78740000D03*
X167640000Y-81280000D03*
X167640000Y-83820000D03*
D12*
X127000000Y-96520000D03*
D13*
X124460000Y-96520000D03*
D12*
X144780000Y-101600000D03*
D13*
X142240000Y-101600000D03*
X139700000Y-101600000D03*
X137160000Y-101600000D03*
X134620000Y-101600000D03*
X132080000Y-101600000D03*
D10*
X78740000Y-101600000D03*
X167640000Y-101600000D03*
D12*
X144780000Y-96520000D03*
D13*
X142240000Y-96520000D03*
X139700000Y-96520000D03*
X137160000Y-96520000D03*
X134620000Y-96520000D03*
X132080000Y-96520000D03*
D12*
X99060000Y-101600000D03*
D13*
X96520000Y-101600000D03*
D14*
X109220000Y-99060000D03*
D15*
X114300000Y-99060000D03*
D12*
X99060000Y-96520000D03*
D13*
X96520000Y-96520000D03*
D12*
X127000000Y-101600000D03*
D13*
X124460000Y-101600000D03*
M02*
