G04 #@! TF.GenerationSoftware,KiCad,Pcbnew,6.0.7*
G04 #@! TF.CreationDate,2022-09-12T18:31:12+10:00*
G04 #@! TF.ProjectId,sr32gpo,73723332-6770-46f2-9e6b-696361645f70,rev?*
G04 #@! TF.SameCoordinates,Original*
G04 #@! TF.FileFunction,Legend,Top*
G04 #@! TF.FilePolarity,Positive*
%FSLAX46Y46*%
G04 Gerber Fmt 4.6, Leading zero omitted, Abs format (unit mm)*
G04 Created by KiCad (PCBNEW 6.0.7) date 2022-09-12 18:31:12*
%MOMM*%
%LPD*%
G01*
G04 APERTURE LIST*
%ADD10C,0.300000*%
%ADD11C,0.150000*%
%ADD12C,0.127000*%
%ADD13C,0.120000*%
%ADD14C,0.203200*%
%ADD15C,0.010000*%
G04 APERTURE END LIST*
D10*
X108077142Y-104660000D02*
X107934285Y-104588571D01*
X107720000Y-104588571D01*
X107505714Y-104660000D01*
X107362857Y-104802857D01*
X107291428Y-104945714D01*
X107220000Y-105231428D01*
X107220000Y-105445714D01*
X107291428Y-105731428D01*
X107362857Y-105874285D01*
X107505714Y-106017142D01*
X107720000Y-106088571D01*
X107862857Y-106088571D01*
X108077142Y-106017142D01*
X108148571Y-105945714D01*
X108148571Y-105445714D01*
X107862857Y-105445714D01*
X108791428Y-106088571D02*
X108791428Y-104588571D01*
X109648571Y-106088571D01*
X109648571Y-104588571D01*
X110362857Y-106088571D02*
X110362857Y-104588571D01*
X110720000Y-104588571D01*
X110934285Y-104660000D01*
X111077142Y-104802857D01*
X111148571Y-104945714D01*
X111220000Y-105231428D01*
X111220000Y-105445714D01*
X111148571Y-105731428D01*
X111077142Y-105874285D01*
X110934285Y-106017142D01*
X110720000Y-106088571D01*
X110362857Y-106088571D01*
D11*
X126500000Y-105820595D02*
X126452380Y-105915833D01*
X126452380Y-106058690D01*
X126500000Y-106201547D01*
X126595238Y-106296785D01*
X126690476Y-106344404D01*
X126880952Y-106392023D01*
X127023809Y-106392023D01*
X127214285Y-106344404D01*
X127309523Y-106296785D01*
X127404761Y-106201547D01*
X127452380Y-106058690D01*
X127452380Y-105963452D01*
X127404761Y-105820595D01*
X127357142Y-105772976D01*
X127023809Y-105772976D01*
X127023809Y-105963452D01*
X127452380Y-105344404D02*
X126452380Y-105344404D01*
X127452380Y-104772976D01*
X126452380Y-104772976D01*
X127452380Y-104296785D02*
X126452380Y-104296785D01*
X126452380Y-104058690D01*
X126500000Y-103915833D01*
X126595238Y-103820595D01*
X126690476Y-103772976D01*
X126880952Y-103725357D01*
X127023809Y-103725357D01*
X127214285Y-103772976D01*
X127309523Y-103820595D01*
X127404761Y-103915833D01*
X127452380Y-104058690D01*
X127452380Y-104296785D01*
X144280000Y-105820595D02*
X144232380Y-105915833D01*
X144232380Y-106058690D01*
X144280000Y-106201547D01*
X144375238Y-106296785D01*
X144470476Y-106344404D01*
X144660952Y-106392023D01*
X144803809Y-106392023D01*
X144994285Y-106344404D01*
X145089523Y-106296785D01*
X145184761Y-106201547D01*
X145232380Y-106058690D01*
X145232380Y-105963452D01*
X145184761Y-105820595D01*
X145137142Y-105772976D01*
X144803809Y-105772976D01*
X144803809Y-105963452D01*
X145232380Y-105344404D02*
X144232380Y-105344404D01*
X145232380Y-104772976D01*
X144232380Y-104772976D01*
X145232380Y-104296785D02*
X144232380Y-104296785D01*
X144232380Y-104058690D01*
X144280000Y-103915833D01*
X144375238Y-103820595D01*
X144470476Y-103772976D01*
X144660952Y-103725357D01*
X144803809Y-103725357D01*
X144994285Y-103772976D01*
X145089523Y-103820595D01*
X145184761Y-103915833D01*
X145232380Y-104058690D01*
X145232380Y-104296785D01*
D10*
X112871428Y-104588571D02*
X113371428Y-106088571D01*
X113871428Y-104588571D01*
X114371428Y-105517142D02*
X115514285Y-105517142D01*
X114942857Y-106088571D02*
X114942857Y-104945714D01*
D11*
X125319404Y-87130000D02*
X125224166Y-87082380D01*
X125081309Y-87082380D01*
X124938452Y-87130000D01*
X124843214Y-87225238D01*
X124795595Y-87320476D01*
X124747976Y-87510952D01*
X124747976Y-87653809D01*
X124795595Y-87844285D01*
X124843214Y-87939523D01*
X124938452Y-88034761D01*
X125081309Y-88082380D01*
X125176547Y-88082380D01*
X125319404Y-88034761D01*
X125367023Y-87987142D01*
X125367023Y-87653809D01*
X125176547Y-87653809D01*
X98560000Y-105820595D02*
X98512380Y-105915833D01*
X98512380Y-106058690D01*
X98560000Y-106201547D01*
X98655238Y-106296785D01*
X98750476Y-106344404D01*
X98940952Y-106392023D01*
X99083809Y-106392023D01*
X99274285Y-106344404D01*
X99369523Y-106296785D01*
X99464761Y-106201547D01*
X99512380Y-106058690D01*
X99512380Y-105963452D01*
X99464761Y-105820595D01*
X99417142Y-105772976D01*
X99083809Y-105772976D01*
X99083809Y-105963452D01*
X99512380Y-105344404D02*
X98512380Y-105344404D01*
X99512380Y-104772976D01*
X98512380Y-104772976D01*
X99512380Y-104296785D02*
X98512380Y-104296785D01*
X98512380Y-104058690D01*
X98560000Y-103915833D01*
X98655238Y-103820595D01*
X98750476Y-103772976D01*
X98940952Y-103725357D01*
X99083809Y-103725357D01*
X99274285Y-103772976D01*
X99369523Y-103820595D01*
X99464761Y-103915833D01*
X99512380Y-104058690D01*
X99512380Y-104296785D01*
X131250000Y-106582500D02*
X131250000Y-105582500D01*
X132437142Y-105772976D02*
X132484761Y-105820595D01*
X132532380Y-105963452D01*
X132532380Y-106058690D01*
X132484761Y-106201547D01*
X132389523Y-106296785D01*
X132294285Y-106344404D01*
X132103809Y-106392023D01*
X131960952Y-106392023D01*
X131770476Y-106344404D01*
X131675238Y-106296785D01*
X131580000Y-106201547D01*
X131532380Y-106058690D01*
X131532380Y-105963452D01*
X131580000Y-105820595D01*
X131627619Y-105772976D01*
X131250000Y-105582500D02*
X131250000Y-104772976D01*
X132532380Y-104868214D02*
X132532380Y-105344404D01*
X131532380Y-105344404D01*
X131250000Y-104772976D02*
X131250000Y-103772976D01*
X132532380Y-103963452D02*
X132056190Y-104296785D01*
X132532380Y-104534880D02*
X131532380Y-104534880D01*
X131532380Y-104153928D01*
X131580000Y-104058690D01*
X131627619Y-104011071D01*
X131722857Y-103963452D01*
X131865714Y-103963452D01*
X131960952Y-104011071D01*
X132008571Y-104058690D01*
X132056190Y-104153928D01*
X132056190Y-104534880D01*
X123912380Y-106487261D02*
X124912380Y-106153928D01*
X123912380Y-105820595D01*
X124864761Y-105058690D02*
X124912380Y-105153928D01*
X124912380Y-105344404D01*
X124864761Y-105439642D01*
X124817142Y-105487261D01*
X124721904Y-105534880D01*
X124436190Y-105534880D01*
X124340952Y-105487261D01*
X124293333Y-105439642D01*
X124245714Y-105344404D01*
X124245714Y-105153928D01*
X124293333Y-105058690D01*
X124864761Y-104201547D02*
X124912380Y-104296785D01*
X124912380Y-104487261D01*
X124864761Y-104582500D01*
X124817142Y-104630119D01*
X124721904Y-104677738D01*
X124436190Y-104677738D01*
X124340952Y-104630119D01*
X124293333Y-104582500D01*
X124245714Y-104487261D01*
X124245714Y-104296785D01*
X124293333Y-104201547D01*
X137612380Y-105772976D02*
X137136190Y-106106309D01*
X137612380Y-106344404D02*
X136612380Y-106344404D01*
X136612380Y-105963452D01*
X136660000Y-105868214D01*
X136707619Y-105820595D01*
X136802857Y-105772976D01*
X136945714Y-105772976D01*
X137040952Y-105820595D01*
X137088571Y-105868214D01*
X137136190Y-105963452D01*
X137136190Y-106344404D01*
X137564761Y-104915833D02*
X137612380Y-105011071D01*
X137612380Y-105201547D01*
X137564761Y-105296785D01*
X137517142Y-105344404D01*
X137421904Y-105392023D01*
X137136190Y-105392023D01*
X137040952Y-105344404D01*
X136993333Y-105296785D01*
X136945714Y-105201547D01*
X136945714Y-105011071D01*
X136993333Y-104915833D01*
X137612380Y-104344404D02*
X137564761Y-104439642D01*
X137469523Y-104487261D01*
X136612380Y-104487261D01*
X137612380Y-103963452D02*
X136612380Y-103963452D01*
X137231428Y-103868214D02*
X137612380Y-103582500D01*
X136945714Y-103582500D02*
X137326666Y-103963452D01*
X134425000Y-106582500D02*
X134425000Y-105534880D01*
X134707380Y-106153928D02*
X134707380Y-105963452D01*
X134755000Y-105868214D01*
X134850238Y-105772976D01*
X135040714Y-105725357D01*
X135374047Y-105725357D01*
X135564523Y-105772976D01*
X135659761Y-105868214D01*
X135707380Y-105963452D01*
X135707380Y-106153928D01*
X135659761Y-106249166D01*
X135564523Y-106344404D01*
X135374047Y-106392023D01*
X135040714Y-106392023D01*
X134850238Y-106344404D01*
X134755000Y-106249166D01*
X134707380Y-106153928D01*
X134425000Y-105534880D02*
X134425000Y-104630119D01*
X135183571Y-105296785D02*
X135183571Y-104963452D01*
X135707380Y-104820595D02*
X135707380Y-105296785D01*
X134707380Y-105296785D01*
X134707380Y-104820595D01*
X142644761Y-106392023D02*
X142692380Y-106249166D01*
X142692380Y-106011071D01*
X142644761Y-105915833D01*
X142597142Y-105868214D01*
X142501904Y-105820595D01*
X142406666Y-105820595D01*
X142311428Y-105868214D01*
X142263809Y-105915833D01*
X142216190Y-106011071D01*
X142168571Y-106201547D01*
X142120952Y-106296785D01*
X142073333Y-106344404D01*
X141978095Y-106392023D01*
X141882857Y-106392023D01*
X141787619Y-106344404D01*
X141740000Y-106296785D01*
X141692380Y-106201547D01*
X141692380Y-105963452D01*
X141740000Y-105820595D01*
X142644761Y-105011071D02*
X142692380Y-105106309D01*
X142692380Y-105296785D01*
X142644761Y-105392023D01*
X142549523Y-105439642D01*
X142168571Y-105439642D01*
X142073333Y-105392023D01*
X142025714Y-105296785D01*
X142025714Y-105106309D01*
X142073333Y-105011071D01*
X142168571Y-104963452D01*
X142263809Y-104963452D01*
X142359047Y-105439642D01*
X142692380Y-104534880D02*
X142025714Y-104534880D01*
X142216190Y-104534880D02*
X142120952Y-104487261D01*
X142073333Y-104439642D01*
X142025714Y-104344404D01*
X142025714Y-104249166D01*
X140104761Y-106430119D02*
X140152380Y-106315833D01*
X140152380Y-106125357D01*
X140104761Y-106049166D01*
X140057142Y-106011071D01*
X139961904Y-105972976D01*
X139866666Y-105972976D01*
X139771428Y-106011071D01*
X139723809Y-106049166D01*
X139676190Y-106125357D01*
X139628571Y-106277738D01*
X139580952Y-106353928D01*
X139533333Y-106392023D01*
X139438095Y-106430119D01*
X139342857Y-106430119D01*
X139247619Y-106392023D01*
X139200000Y-106353928D01*
X139152380Y-106277738D01*
X139152380Y-106087261D01*
X139200000Y-105972976D01*
X140152380Y-105630119D02*
X139485714Y-105630119D01*
X139676190Y-105630119D02*
X139580952Y-105592023D01*
X139533333Y-105553928D01*
X139485714Y-105477738D01*
X139485714Y-105401547D01*
X140104761Y-104792023D02*
X140152380Y-104868214D01*
X140152380Y-105020595D01*
X140104761Y-105096785D01*
X140057142Y-105134880D01*
X139961904Y-105172976D01*
X139676190Y-105172976D01*
X139580952Y-105134880D01*
X139533333Y-105096785D01*
X139485714Y-105020595D01*
X139485714Y-104868214D01*
X139533333Y-104792023D01*
X140152380Y-104334880D02*
X140104761Y-104411071D01*
X140009523Y-104449166D01*
X139152380Y-104449166D01*
X140152380Y-104030119D02*
X139152380Y-104030119D01*
X139771428Y-103953928D02*
X140152380Y-103725357D01*
X139485714Y-103725357D02*
X139866666Y-104030119D01*
X132570119Y-86800000D02*
X133617738Y-86800000D01*
X132998690Y-87082380D02*
X133189166Y-87082380D01*
X133284404Y-87130000D01*
X133379642Y-87225238D01*
X133427261Y-87415714D01*
X133427261Y-87749047D01*
X133379642Y-87939523D01*
X133284404Y-88034761D01*
X133189166Y-88082380D01*
X132998690Y-88082380D01*
X132903452Y-88034761D01*
X132808214Y-87939523D01*
X132760595Y-87749047D01*
X132760595Y-87415714D01*
X132808214Y-87225238D01*
X132903452Y-87130000D01*
X132998690Y-87082380D01*
X133617738Y-86800000D02*
X134522500Y-86800000D01*
X133855833Y-87558571D02*
X134189166Y-87558571D01*
X134332023Y-88082380D02*
X133855833Y-88082380D01*
X133855833Y-87082380D01*
X134332023Y-87082380D01*
X151170476Y-54209761D02*
X151313333Y-54257380D01*
X151551428Y-54257380D01*
X151646666Y-54209761D01*
X151694285Y-54162142D01*
X151741904Y-54066904D01*
X151741904Y-53971666D01*
X151694285Y-53876428D01*
X151646666Y-53828809D01*
X151551428Y-53781190D01*
X151360952Y-53733571D01*
X151265714Y-53685952D01*
X151218095Y-53638333D01*
X151170476Y-53543095D01*
X151170476Y-53447857D01*
X151218095Y-53352619D01*
X151265714Y-53305000D01*
X151360952Y-53257380D01*
X151599047Y-53257380D01*
X151741904Y-53305000D01*
X152170476Y-54257380D02*
X152170476Y-53257380D01*
X152599047Y-54257380D02*
X152599047Y-53733571D01*
X152551428Y-53638333D01*
X152456190Y-53590714D01*
X152313333Y-53590714D01*
X152218095Y-53638333D01*
X152170476Y-53685952D01*
X153075238Y-54257380D02*
X153075238Y-53590714D01*
X153075238Y-53257380D02*
X153027619Y-53305000D01*
X153075238Y-53352619D01*
X153122857Y-53305000D01*
X153075238Y-53257380D01*
X153075238Y-53352619D01*
X153408571Y-53590714D02*
X153789523Y-53590714D01*
X153551428Y-54257380D02*
X153551428Y-53400238D01*
X153599047Y-53305000D01*
X153694285Y-53257380D01*
X153789523Y-53257380D01*
X153980000Y-53590714D02*
X154360952Y-53590714D01*
X154122857Y-53257380D02*
X154122857Y-54114523D01*
X154170476Y-54209761D01*
X154265714Y-54257380D01*
X154360952Y-54257380D01*
X156027619Y-54257380D02*
X155694285Y-53781190D01*
X155456190Y-54257380D02*
X155456190Y-53257380D01*
X155837142Y-53257380D01*
X155932380Y-53305000D01*
X155980000Y-53352619D01*
X156027619Y-53447857D01*
X156027619Y-53590714D01*
X155980000Y-53685952D01*
X155932380Y-53733571D01*
X155837142Y-53781190D01*
X155456190Y-53781190D01*
X156837142Y-54209761D02*
X156741904Y-54257380D01*
X156551428Y-54257380D01*
X156456190Y-54209761D01*
X156408571Y-54114523D01*
X156408571Y-53733571D01*
X156456190Y-53638333D01*
X156551428Y-53590714D01*
X156741904Y-53590714D01*
X156837142Y-53638333D01*
X156884761Y-53733571D01*
X156884761Y-53828809D01*
X156408571Y-53924047D01*
X157741904Y-53590714D02*
X157741904Y-54400238D01*
X157694285Y-54495476D01*
X157646666Y-54543095D01*
X157551428Y-54590714D01*
X157408571Y-54590714D01*
X157313333Y-54543095D01*
X157741904Y-54209761D02*
X157646666Y-54257380D01*
X157456190Y-54257380D01*
X157360952Y-54209761D01*
X157313333Y-54162142D01*
X157265714Y-54066904D01*
X157265714Y-53781190D01*
X157313333Y-53685952D01*
X157360952Y-53638333D01*
X157456190Y-53590714D01*
X157646666Y-53590714D01*
X157741904Y-53638333D01*
X158218095Y-54257380D02*
X158218095Y-53590714D01*
X158218095Y-53257380D02*
X158170476Y-53305000D01*
X158218095Y-53352619D01*
X158265714Y-53305000D01*
X158218095Y-53257380D01*
X158218095Y-53352619D01*
X158646666Y-54209761D02*
X158741904Y-54257380D01*
X158932380Y-54257380D01*
X159027619Y-54209761D01*
X159075238Y-54114523D01*
X159075238Y-54066904D01*
X159027619Y-53971666D01*
X158932380Y-53924047D01*
X158789523Y-53924047D01*
X158694285Y-53876428D01*
X158646666Y-53781190D01*
X158646666Y-53733571D01*
X158694285Y-53638333D01*
X158789523Y-53590714D01*
X158932380Y-53590714D01*
X159027619Y-53638333D01*
X159360952Y-53590714D02*
X159741904Y-53590714D01*
X159503809Y-53257380D02*
X159503809Y-54114523D01*
X159551428Y-54209761D01*
X159646666Y-54257380D01*
X159741904Y-54257380D01*
X160456190Y-54209761D02*
X160360952Y-54257380D01*
X160170476Y-54257380D01*
X160075238Y-54209761D01*
X160027619Y-54114523D01*
X160027619Y-53733571D01*
X160075238Y-53638333D01*
X160170476Y-53590714D01*
X160360952Y-53590714D01*
X160456190Y-53638333D01*
X160503809Y-53733571D01*
X160503809Y-53828809D01*
X160027619Y-53924047D01*
X160932380Y-54257380D02*
X160932380Y-53590714D01*
X160932380Y-53781190D02*
X160980000Y-53685952D01*
X161027619Y-53638333D01*
X161122857Y-53590714D01*
X161218095Y-53590714D01*
X162218095Y-53257380D02*
X162837142Y-53257380D01*
X162503809Y-53638333D01*
X162646666Y-53638333D01*
X162741904Y-53685952D01*
X162789523Y-53733571D01*
X162837142Y-53828809D01*
X162837142Y-54066904D01*
X162789523Y-54162142D01*
X162741904Y-54209761D01*
X162646666Y-54257380D01*
X162360952Y-54257380D01*
X162265714Y-54209761D01*
X162218095Y-54162142D01*
X163218095Y-53352619D02*
X163265714Y-53305000D01*
X163360952Y-53257380D01*
X163599047Y-53257380D01*
X163694285Y-53305000D01*
X163741904Y-53352619D01*
X163789523Y-53447857D01*
X163789523Y-53543095D01*
X163741904Y-53685952D01*
X163170476Y-54257380D01*
X163789523Y-54257380D01*
X148789523Y-54915000D02*
X148694285Y-54867380D01*
X148551428Y-54867380D01*
X148408571Y-54915000D01*
X148313333Y-55010238D01*
X148265714Y-55105476D01*
X148218095Y-55295952D01*
X148218095Y-55438809D01*
X148265714Y-55629285D01*
X148313333Y-55724523D01*
X148408571Y-55819761D01*
X148551428Y-55867380D01*
X148646666Y-55867380D01*
X148789523Y-55819761D01*
X148837142Y-55772142D01*
X148837142Y-55438809D01*
X148646666Y-55438809D01*
X149646666Y-55819761D02*
X149551428Y-55867380D01*
X149360952Y-55867380D01*
X149265714Y-55819761D01*
X149218095Y-55724523D01*
X149218095Y-55343571D01*
X149265714Y-55248333D01*
X149360952Y-55200714D01*
X149551428Y-55200714D01*
X149646666Y-55248333D01*
X149694285Y-55343571D01*
X149694285Y-55438809D01*
X149218095Y-55534047D01*
X150122857Y-55200714D02*
X150122857Y-55867380D01*
X150122857Y-55295952D02*
X150170476Y-55248333D01*
X150265714Y-55200714D01*
X150408571Y-55200714D01*
X150503809Y-55248333D01*
X150551428Y-55343571D01*
X150551428Y-55867380D01*
X151408571Y-55819761D02*
X151313333Y-55867380D01*
X151122857Y-55867380D01*
X151027619Y-55819761D01*
X150980000Y-55724523D01*
X150980000Y-55343571D01*
X151027619Y-55248333D01*
X151122857Y-55200714D01*
X151313333Y-55200714D01*
X151408571Y-55248333D01*
X151456190Y-55343571D01*
X151456190Y-55438809D01*
X150980000Y-55534047D01*
X151884761Y-55867380D02*
X151884761Y-55200714D01*
X151884761Y-55391190D02*
X151932380Y-55295952D01*
X151980000Y-55248333D01*
X152075238Y-55200714D01*
X152170476Y-55200714D01*
X152932380Y-55867380D02*
X152932380Y-55343571D01*
X152884761Y-55248333D01*
X152789523Y-55200714D01*
X152599047Y-55200714D01*
X152503809Y-55248333D01*
X152932380Y-55819761D02*
X152837142Y-55867380D01*
X152599047Y-55867380D01*
X152503809Y-55819761D01*
X152456190Y-55724523D01*
X152456190Y-55629285D01*
X152503809Y-55534047D01*
X152599047Y-55486428D01*
X152837142Y-55486428D01*
X152932380Y-55438809D01*
X153551428Y-55867380D02*
X153456190Y-55819761D01*
X153408571Y-55724523D01*
X153408571Y-54867380D01*
X154694285Y-55867380D02*
X154694285Y-54867380D01*
X155075238Y-54867380D01*
X155170476Y-54915000D01*
X155218095Y-54962619D01*
X155265714Y-55057857D01*
X155265714Y-55200714D01*
X155218095Y-55295952D01*
X155170476Y-55343571D01*
X155075238Y-55391190D01*
X154694285Y-55391190D01*
X156122857Y-55200714D02*
X156122857Y-55867380D01*
X155694285Y-55200714D02*
X155694285Y-55724523D01*
X155741904Y-55819761D01*
X155837142Y-55867380D01*
X155980000Y-55867380D01*
X156075238Y-55819761D01*
X156122857Y-55772142D01*
X156599047Y-55867380D02*
X156599047Y-55200714D01*
X156599047Y-55391190D02*
X156646666Y-55295952D01*
X156694285Y-55248333D01*
X156789523Y-55200714D01*
X156884761Y-55200714D01*
X157218095Y-55200714D02*
X157218095Y-56200714D01*
X157218095Y-55248333D02*
X157313333Y-55200714D01*
X157503809Y-55200714D01*
X157599047Y-55248333D01*
X157646666Y-55295952D01*
X157694285Y-55391190D01*
X157694285Y-55676904D01*
X157646666Y-55772142D01*
X157599047Y-55819761D01*
X157503809Y-55867380D01*
X157313333Y-55867380D01*
X157218095Y-55819761D01*
X158265714Y-55867380D02*
X158170476Y-55819761D01*
X158122857Y-55772142D01*
X158075238Y-55676904D01*
X158075238Y-55391190D01*
X158122857Y-55295952D01*
X158170476Y-55248333D01*
X158265714Y-55200714D01*
X158408571Y-55200714D01*
X158503809Y-55248333D01*
X158551428Y-55295952D01*
X158599047Y-55391190D01*
X158599047Y-55676904D01*
X158551428Y-55772142D01*
X158503809Y-55819761D01*
X158408571Y-55867380D01*
X158265714Y-55867380D01*
X158980000Y-55819761D02*
X159075238Y-55867380D01*
X159265714Y-55867380D01*
X159360952Y-55819761D01*
X159408571Y-55724523D01*
X159408571Y-55676904D01*
X159360952Y-55581666D01*
X159265714Y-55534047D01*
X159122857Y-55534047D01*
X159027619Y-55486428D01*
X158980000Y-55391190D01*
X158980000Y-55343571D01*
X159027619Y-55248333D01*
X159122857Y-55200714D01*
X159265714Y-55200714D01*
X159360952Y-55248333D01*
X160218095Y-55819761D02*
X160122857Y-55867380D01*
X159932380Y-55867380D01*
X159837142Y-55819761D01*
X159789523Y-55724523D01*
X159789523Y-55343571D01*
X159837142Y-55248333D01*
X159932380Y-55200714D01*
X160122857Y-55200714D01*
X160218095Y-55248333D01*
X160265714Y-55343571D01*
X160265714Y-55438809D01*
X159789523Y-55534047D01*
X161646666Y-54867380D02*
X161837142Y-54867380D01*
X161932380Y-54915000D01*
X162027619Y-55010238D01*
X162075238Y-55200714D01*
X162075238Y-55534047D01*
X162027619Y-55724523D01*
X161932380Y-55819761D01*
X161837142Y-55867380D01*
X161646666Y-55867380D01*
X161551428Y-55819761D01*
X161456190Y-55724523D01*
X161408571Y-55534047D01*
X161408571Y-55200714D01*
X161456190Y-55010238D01*
X161551428Y-54915000D01*
X161646666Y-54867380D01*
X162932380Y-55200714D02*
X162932380Y-55867380D01*
X162503809Y-55200714D02*
X162503809Y-55724523D01*
X162551428Y-55819761D01*
X162646666Y-55867380D01*
X162789523Y-55867380D01*
X162884761Y-55819761D01*
X162932380Y-55772142D01*
X163265714Y-55200714D02*
X163646666Y-55200714D01*
X163408571Y-54867380D02*
X163408571Y-55724523D01*
X163456190Y-55819761D01*
X163551428Y-55867380D01*
X163646666Y-55867380D01*
X163980000Y-55200714D02*
X163980000Y-56200714D01*
X163980000Y-55248333D02*
X164075238Y-55200714D01*
X164265714Y-55200714D01*
X164360952Y-55248333D01*
X164408571Y-55295952D01*
X164456190Y-55391190D01*
X164456190Y-55676904D01*
X164408571Y-55772142D01*
X164360952Y-55819761D01*
X164265714Y-55867380D01*
X164075238Y-55867380D01*
X163980000Y-55819761D01*
X165313333Y-55200714D02*
X165313333Y-55867380D01*
X164884761Y-55200714D02*
X164884761Y-55724523D01*
X164932380Y-55819761D01*
X165027619Y-55867380D01*
X165170476Y-55867380D01*
X165265714Y-55819761D01*
X165313333Y-55772142D01*
X165646666Y-55200714D02*
X166027619Y-55200714D01*
X165789523Y-54867380D02*
X165789523Y-55724523D01*
X165837142Y-55819761D01*
X165932380Y-55867380D01*
X166027619Y-55867380D01*
X166313333Y-55819761D02*
X166408571Y-55867380D01*
X166599047Y-55867380D01*
X166694285Y-55819761D01*
X166741904Y-55724523D01*
X166741904Y-55676904D01*
X166694285Y-55581666D01*
X166599047Y-55534047D01*
X166456190Y-55534047D01*
X166360952Y-55486428D01*
X166313333Y-55391190D01*
X166313333Y-55343571D01*
X166360952Y-55248333D01*
X166456190Y-55200714D01*
X166599047Y-55200714D01*
X166694285Y-55248333D01*
X127230476Y-86800000D02*
X128278095Y-86800000D01*
X127659047Y-87082380D02*
X127849523Y-87082380D01*
X127944761Y-87130000D01*
X128040000Y-87225238D01*
X128087619Y-87415714D01*
X128087619Y-87749047D01*
X128040000Y-87939523D01*
X127944761Y-88034761D01*
X127849523Y-88082380D01*
X127659047Y-88082380D01*
X127563809Y-88034761D01*
X127468571Y-87939523D01*
X127420952Y-87749047D01*
X127420952Y-87415714D01*
X127468571Y-87225238D01*
X127563809Y-87130000D01*
X127659047Y-87082380D01*
X128278095Y-86800000D02*
X129182857Y-86800000D01*
X128516190Y-87558571D02*
X128849523Y-87558571D01*
X128992380Y-88082380D02*
X128516190Y-88082380D01*
X128516190Y-87082380D01*
X128992380Y-87082380D01*
X129182857Y-86800000D02*
X130135238Y-86800000D01*
X129373333Y-88034761D02*
X129516190Y-88082380D01*
X129754285Y-88082380D01*
X129849523Y-88034761D01*
X129897142Y-87987142D01*
X129944761Y-87891904D01*
X129944761Y-87796666D01*
X129897142Y-87701428D01*
X129849523Y-87653809D01*
X129754285Y-87606190D01*
X129563809Y-87558571D01*
X129468571Y-87510952D01*
X129420952Y-87463333D01*
X129373333Y-87368095D01*
X129373333Y-87272857D01*
X129420952Y-87177619D01*
X129468571Y-87130000D01*
X129563809Y-87082380D01*
X129801904Y-87082380D01*
X129944761Y-87130000D01*
X130135238Y-86800000D02*
X131040000Y-86800000D01*
X130373333Y-87558571D02*
X130706666Y-87558571D01*
X130849523Y-88082380D02*
X130373333Y-88082380D01*
X130373333Y-87082380D01*
X130849523Y-87082380D01*
X131040000Y-86800000D02*
X131849523Y-86800000D01*
X131754285Y-88082380D02*
X131278095Y-88082380D01*
X131278095Y-87082380D01*
X95972380Y-106487261D02*
X96972380Y-106153928D01*
X95972380Y-105820595D01*
X96591428Y-105487261D02*
X96591428Y-104725357D01*
X96972380Y-105106309D02*
X96210476Y-105106309D01*
X128787142Y-71286666D02*
X128834761Y-71334285D01*
X128882380Y-71477142D01*
X128882380Y-71572380D01*
X128834761Y-71715238D01*
X128739523Y-71810476D01*
X128644285Y-71858095D01*
X128453809Y-71905714D01*
X128310952Y-71905714D01*
X128120476Y-71858095D01*
X128025238Y-71810476D01*
X127930000Y-71715238D01*
X127882380Y-71572380D01*
X127882380Y-71477142D01*
X127930000Y-71334285D01*
X127977619Y-71286666D01*
X127977619Y-70905714D02*
X127930000Y-70858095D01*
X127882380Y-70762857D01*
X127882380Y-70524761D01*
X127930000Y-70429523D01*
X127977619Y-70381904D01*
X128072857Y-70334285D01*
X128168095Y-70334285D01*
X128310952Y-70381904D01*
X128882380Y-70953333D01*
X128882380Y-70334285D01*
X121167142Y-71286666D02*
X121214761Y-71334285D01*
X121262380Y-71477142D01*
X121262380Y-71572380D01*
X121214761Y-71715238D01*
X121119523Y-71810476D01*
X121024285Y-71858095D01*
X120833809Y-71905714D01*
X120690952Y-71905714D01*
X120500476Y-71858095D01*
X120405238Y-71810476D01*
X120310000Y-71715238D01*
X120262380Y-71572380D01*
X120262380Y-71477142D01*
X120310000Y-71334285D01*
X120357619Y-71286666D01*
X120262380Y-70953333D02*
X120262380Y-70334285D01*
X120643333Y-70667619D01*
X120643333Y-70524761D01*
X120690952Y-70429523D01*
X120738571Y-70381904D01*
X120833809Y-70334285D01*
X121071904Y-70334285D01*
X121167142Y-70381904D01*
X121214761Y-70429523D01*
X121262380Y-70524761D01*
X121262380Y-70810476D01*
X121214761Y-70905714D01*
X121167142Y-70953333D01*
X96353333Y-90687142D02*
X96305714Y-90734761D01*
X96162857Y-90782380D01*
X96067619Y-90782380D01*
X95924761Y-90734761D01*
X95829523Y-90639523D01*
X95781904Y-90544285D01*
X95734285Y-90353809D01*
X95734285Y-90210952D01*
X95781904Y-90020476D01*
X95829523Y-89925238D01*
X95924761Y-89830000D01*
X96067619Y-89782380D01*
X96162857Y-89782380D01*
X96305714Y-89830000D01*
X96353333Y-89877619D01*
X97210476Y-90115714D02*
X97210476Y-90782380D01*
X96972380Y-89734761D02*
X96734285Y-90449047D01*
X97353333Y-90449047D01*
D12*
X155241171Y-84313485D02*
X155676600Y-84313485D01*
X155763685Y-84342514D01*
X155821742Y-84400571D01*
X155850771Y-84487657D01*
X155850771Y-84545714D01*
X155850771Y-83703885D02*
X155850771Y-84052228D01*
X155850771Y-83878057D02*
X155241171Y-83878057D01*
X155328257Y-83936114D01*
X155386314Y-83994171D01*
X155415342Y-84052228D01*
X155850771Y-83123314D02*
X155850771Y-83471657D01*
X155850771Y-83297485D02*
X155241171Y-83297485D01*
X155328257Y-83355542D01*
X155386314Y-83413600D01*
X155415342Y-83471657D01*
X159080200Y-84284457D02*
X159051171Y-84342514D01*
X159051171Y-84429600D01*
X159080200Y-84516685D01*
X159138257Y-84574742D01*
X159196314Y-84603771D01*
X159312428Y-84632800D01*
X159399514Y-84632800D01*
X159515628Y-84603771D01*
X159573685Y-84574742D01*
X159631742Y-84516685D01*
X159660771Y-84429600D01*
X159660771Y-84371542D01*
X159631742Y-84284457D01*
X159602714Y-84255428D01*
X159399514Y-84255428D01*
X159399514Y-84371542D01*
X159660771Y-83994171D02*
X159051171Y-83994171D01*
X159051171Y-83761942D01*
X159080200Y-83703885D01*
X159109228Y-83674857D01*
X159167285Y-83645828D01*
X159254371Y-83645828D01*
X159312428Y-83674857D01*
X159341457Y-83703885D01*
X159370485Y-83761942D01*
X159370485Y-83994171D01*
X159051171Y-83268457D02*
X159051171Y-83152342D01*
X159080200Y-83094285D01*
X159138257Y-83036228D01*
X159254371Y-83007200D01*
X159457571Y-83007200D01*
X159573685Y-83036228D01*
X159631742Y-83094285D01*
X159660771Y-83152342D01*
X159660771Y-83268457D01*
X159631742Y-83326514D01*
X159573685Y-83384571D01*
X159457571Y-83413600D01*
X159254371Y-83413600D01*
X159138257Y-83384571D01*
X159080200Y-83326514D01*
X159051171Y-83268457D01*
X160321171Y-84313485D02*
X160756600Y-84313485D01*
X160843685Y-84342514D01*
X160901742Y-84400571D01*
X160930771Y-84487657D01*
X160930771Y-84545714D01*
X160930771Y-83703885D02*
X160930771Y-84052228D01*
X160930771Y-83878057D02*
X160321171Y-83878057D01*
X160408257Y-83936114D01*
X160466314Y-83994171D01*
X160495342Y-84052228D01*
X160379228Y-83471657D02*
X160350200Y-83442628D01*
X160321171Y-83384571D01*
X160321171Y-83239428D01*
X160350200Y-83181371D01*
X160379228Y-83152342D01*
X160437285Y-83123314D01*
X160495342Y-83123314D01*
X160582428Y-83152342D01*
X160930771Y-83500685D01*
X160930771Y-83123314D01*
X164160200Y-84284457D02*
X164131171Y-84342514D01*
X164131171Y-84429600D01*
X164160200Y-84516685D01*
X164218257Y-84574742D01*
X164276314Y-84603771D01*
X164392428Y-84632800D01*
X164479514Y-84632800D01*
X164595628Y-84603771D01*
X164653685Y-84574742D01*
X164711742Y-84516685D01*
X164740771Y-84429600D01*
X164740771Y-84371542D01*
X164711742Y-84284457D01*
X164682714Y-84255428D01*
X164479514Y-84255428D01*
X164479514Y-84371542D01*
X164740771Y-83994171D02*
X164131171Y-83994171D01*
X164131171Y-83761942D01*
X164160200Y-83703885D01*
X164189228Y-83674857D01*
X164247285Y-83645828D01*
X164334371Y-83645828D01*
X164392428Y-83674857D01*
X164421457Y-83703885D01*
X164450485Y-83761942D01*
X164450485Y-83994171D01*
X164131171Y-83268457D02*
X164131171Y-83152342D01*
X164160200Y-83094285D01*
X164218257Y-83036228D01*
X164334371Y-83007200D01*
X164537571Y-83007200D01*
X164653685Y-83036228D01*
X164711742Y-83094285D01*
X164740771Y-83152342D01*
X164740771Y-83268457D01*
X164711742Y-83326514D01*
X164653685Y-83384571D01*
X164537571Y-83413600D01*
X164334371Y-83413600D01*
X164218257Y-83384571D01*
X164160200Y-83326514D01*
X164131171Y-83268457D01*
X144286514Y-57451171D02*
X144286514Y-57886600D01*
X144257485Y-57973685D01*
X144199428Y-58031742D01*
X144112342Y-58060771D01*
X144054285Y-58060771D01*
X144547771Y-57509228D02*
X144576800Y-57480200D01*
X144634857Y-57451171D01*
X144780000Y-57451171D01*
X144838057Y-57480200D01*
X144867085Y-57509228D01*
X144896114Y-57567285D01*
X144896114Y-57625342D01*
X144867085Y-57712428D01*
X144518742Y-58060771D01*
X144896114Y-58060771D01*
X145476685Y-58060771D02*
X145128342Y-58060771D01*
X145302514Y-58060771D02*
X145302514Y-57451171D01*
X145244457Y-57538257D01*
X145186400Y-57596314D01*
X145128342Y-57625342D01*
X144315542Y-53670200D02*
X144257485Y-53641171D01*
X144170400Y-53641171D01*
X144083314Y-53670200D01*
X144025257Y-53728257D01*
X143996228Y-53786314D01*
X143967200Y-53902428D01*
X143967200Y-53989514D01*
X143996228Y-54105628D01*
X144025257Y-54163685D01*
X144083314Y-54221742D01*
X144170400Y-54250771D01*
X144228457Y-54250771D01*
X144315542Y-54221742D01*
X144344571Y-54192714D01*
X144344571Y-53989514D01*
X144228457Y-53989514D01*
X144605828Y-54250771D02*
X144605828Y-53641171D01*
X144838057Y-53641171D01*
X144896114Y-53670200D01*
X144925142Y-53699228D01*
X144954171Y-53757285D01*
X144954171Y-53844371D01*
X144925142Y-53902428D01*
X144896114Y-53931457D01*
X144838057Y-53960485D01*
X144605828Y-53960485D01*
X145331542Y-53641171D02*
X145447657Y-53641171D01*
X145505714Y-53670200D01*
X145563771Y-53728257D01*
X145592800Y-53844371D01*
X145592800Y-54047571D01*
X145563771Y-54163685D01*
X145505714Y-54221742D01*
X145447657Y-54250771D01*
X145331542Y-54250771D01*
X145273485Y-54221742D01*
X145215428Y-54163685D01*
X145186400Y-54047571D01*
X145186400Y-53844371D01*
X145215428Y-53728257D01*
X145273485Y-53670200D01*
X145331542Y-53641171D01*
X144286514Y-52371171D02*
X144286514Y-52806600D01*
X144257485Y-52893685D01*
X144199428Y-52951742D01*
X144112342Y-52980771D01*
X144054285Y-52980771D01*
X144547771Y-52429228D02*
X144576800Y-52400200D01*
X144634857Y-52371171D01*
X144780000Y-52371171D01*
X144838057Y-52400200D01*
X144867085Y-52429228D01*
X144896114Y-52487285D01*
X144896114Y-52545342D01*
X144867085Y-52632428D01*
X144518742Y-52980771D01*
X144896114Y-52980771D01*
X145128342Y-52429228D02*
X145157371Y-52400200D01*
X145215428Y-52371171D01*
X145360571Y-52371171D01*
X145418628Y-52400200D01*
X145447657Y-52429228D01*
X145476685Y-52487285D01*
X145476685Y-52545342D01*
X145447657Y-52632428D01*
X145099314Y-52980771D01*
X145476685Y-52980771D01*
X144315542Y-48590200D02*
X144257485Y-48561171D01*
X144170400Y-48561171D01*
X144083314Y-48590200D01*
X144025257Y-48648257D01*
X143996228Y-48706314D01*
X143967200Y-48822428D01*
X143967200Y-48909514D01*
X143996228Y-49025628D01*
X144025257Y-49083685D01*
X144083314Y-49141742D01*
X144170400Y-49170771D01*
X144228457Y-49170771D01*
X144315542Y-49141742D01*
X144344571Y-49112714D01*
X144344571Y-48909514D01*
X144228457Y-48909514D01*
X144605828Y-49170771D02*
X144605828Y-48561171D01*
X144838057Y-48561171D01*
X144896114Y-48590200D01*
X144925142Y-48619228D01*
X144954171Y-48677285D01*
X144954171Y-48764371D01*
X144925142Y-48822428D01*
X144896114Y-48851457D01*
X144838057Y-48880485D01*
X144605828Y-48880485D01*
X145331542Y-48561171D02*
X145447657Y-48561171D01*
X145505714Y-48590200D01*
X145563771Y-48648257D01*
X145592800Y-48764371D01*
X145592800Y-48967571D01*
X145563771Y-49083685D01*
X145505714Y-49141742D01*
X145447657Y-49170771D01*
X145331542Y-49170771D01*
X145273485Y-49141742D01*
X145215428Y-49083685D01*
X145186400Y-48967571D01*
X145186400Y-48764371D01*
X145215428Y-48648257D01*
X145273485Y-48590200D01*
X145331542Y-48561171D01*
X118886514Y-57451171D02*
X118886514Y-57886600D01*
X118857485Y-57973685D01*
X118799428Y-58031742D01*
X118712342Y-58060771D01*
X118654285Y-58060771D01*
X119118742Y-57451171D02*
X119496114Y-57451171D01*
X119292914Y-57683400D01*
X119380000Y-57683400D01*
X119438057Y-57712428D01*
X119467085Y-57741457D01*
X119496114Y-57799514D01*
X119496114Y-57944657D01*
X119467085Y-58002714D01*
X119438057Y-58031742D01*
X119380000Y-58060771D01*
X119205828Y-58060771D01*
X119147771Y-58031742D01*
X119118742Y-58002714D01*
X120076685Y-58060771D02*
X119728342Y-58060771D01*
X119902514Y-58060771D02*
X119902514Y-57451171D01*
X119844457Y-57538257D01*
X119786400Y-57596314D01*
X119728342Y-57625342D01*
X118915542Y-53670200D02*
X118857485Y-53641171D01*
X118770400Y-53641171D01*
X118683314Y-53670200D01*
X118625257Y-53728257D01*
X118596228Y-53786314D01*
X118567200Y-53902428D01*
X118567200Y-53989514D01*
X118596228Y-54105628D01*
X118625257Y-54163685D01*
X118683314Y-54221742D01*
X118770400Y-54250771D01*
X118828457Y-54250771D01*
X118915542Y-54221742D01*
X118944571Y-54192714D01*
X118944571Y-53989514D01*
X118828457Y-53989514D01*
X119205828Y-54250771D02*
X119205828Y-53641171D01*
X119438057Y-53641171D01*
X119496114Y-53670200D01*
X119525142Y-53699228D01*
X119554171Y-53757285D01*
X119554171Y-53844371D01*
X119525142Y-53902428D01*
X119496114Y-53931457D01*
X119438057Y-53960485D01*
X119205828Y-53960485D01*
X119931542Y-53641171D02*
X120047657Y-53641171D01*
X120105714Y-53670200D01*
X120163771Y-53728257D01*
X120192800Y-53844371D01*
X120192800Y-54047571D01*
X120163771Y-54163685D01*
X120105714Y-54221742D01*
X120047657Y-54250771D01*
X119931542Y-54250771D01*
X119873485Y-54221742D01*
X119815428Y-54163685D01*
X119786400Y-54047571D01*
X119786400Y-53844371D01*
X119815428Y-53728257D01*
X119873485Y-53670200D01*
X119931542Y-53641171D01*
X118886514Y-52371171D02*
X118886514Y-52806600D01*
X118857485Y-52893685D01*
X118799428Y-52951742D01*
X118712342Y-52980771D01*
X118654285Y-52980771D01*
X119118742Y-52371171D02*
X119496114Y-52371171D01*
X119292914Y-52603400D01*
X119380000Y-52603400D01*
X119438057Y-52632428D01*
X119467085Y-52661457D01*
X119496114Y-52719514D01*
X119496114Y-52864657D01*
X119467085Y-52922714D01*
X119438057Y-52951742D01*
X119380000Y-52980771D01*
X119205828Y-52980771D01*
X119147771Y-52951742D01*
X119118742Y-52922714D01*
X119728342Y-52429228D02*
X119757371Y-52400200D01*
X119815428Y-52371171D01*
X119960571Y-52371171D01*
X120018628Y-52400200D01*
X120047657Y-52429228D01*
X120076685Y-52487285D01*
X120076685Y-52545342D01*
X120047657Y-52632428D01*
X119699314Y-52980771D01*
X120076685Y-52980771D01*
X118915542Y-48590200D02*
X118857485Y-48561171D01*
X118770400Y-48561171D01*
X118683314Y-48590200D01*
X118625257Y-48648257D01*
X118596228Y-48706314D01*
X118567200Y-48822428D01*
X118567200Y-48909514D01*
X118596228Y-49025628D01*
X118625257Y-49083685D01*
X118683314Y-49141742D01*
X118770400Y-49170771D01*
X118828457Y-49170771D01*
X118915542Y-49141742D01*
X118944571Y-49112714D01*
X118944571Y-48909514D01*
X118828457Y-48909514D01*
X119205828Y-49170771D02*
X119205828Y-48561171D01*
X119438057Y-48561171D01*
X119496114Y-48590200D01*
X119525142Y-48619228D01*
X119554171Y-48677285D01*
X119554171Y-48764371D01*
X119525142Y-48822428D01*
X119496114Y-48851457D01*
X119438057Y-48880485D01*
X119205828Y-48880485D01*
X119931542Y-48561171D02*
X120047657Y-48561171D01*
X120105714Y-48590200D01*
X120163771Y-48648257D01*
X120192800Y-48764371D01*
X120192800Y-48967571D01*
X120163771Y-49083685D01*
X120105714Y-49141742D01*
X120047657Y-49170771D01*
X119931542Y-49170771D01*
X119873485Y-49141742D01*
X119815428Y-49083685D01*
X119786400Y-48967571D01*
X119786400Y-48764371D01*
X119815428Y-48648257D01*
X119873485Y-48590200D01*
X119931542Y-48561171D01*
D11*
X124122380Y-92273333D02*
X124836666Y-92273333D01*
X124979523Y-92320952D01*
X125074761Y-92416190D01*
X125122380Y-92559047D01*
X125122380Y-92654285D01*
X125122380Y-91797142D02*
X124122380Y-91797142D01*
X124122380Y-91416190D01*
X124170000Y-91320952D01*
X124217619Y-91273333D01*
X124312857Y-91225714D01*
X124455714Y-91225714D01*
X124550952Y-91273333D01*
X124598571Y-91320952D01*
X124646190Y-91416190D01*
X124646190Y-91797142D01*
X125122380Y-90273333D02*
X125122380Y-90844761D01*
X125122380Y-90559047D02*
X124122380Y-90559047D01*
X124265238Y-90654285D01*
X124360476Y-90749523D01*
X124408095Y-90844761D01*
X149693333Y-90687142D02*
X149645714Y-90734761D01*
X149502857Y-90782380D01*
X149407619Y-90782380D01*
X149264761Y-90734761D01*
X149169523Y-90639523D01*
X149121904Y-90544285D01*
X149074285Y-90353809D01*
X149074285Y-90210952D01*
X149121904Y-90020476D01*
X149169523Y-89925238D01*
X149264761Y-89830000D01*
X149407619Y-89782380D01*
X149502857Y-89782380D01*
X149645714Y-89830000D01*
X149693333Y-89877619D01*
X150645714Y-90782380D02*
X150074285Y-90782380D01*
X150360000Y-90782380D02*
X150360000Y-89782380D01*
X150264761Y-89925238D01*
X150169523Y-90020476D01*
X150074285Y-90068095D01*
D12*
X90471171Y-66533485D02*
X90906600Y-66533485D01*
X90993685Y-66562514D01*
X91051742Y-66620571D01*
X91080771Y-66707657D01*
X91080771Y-66765714D01*
X90674371Y-65981942D02*
X91080771Y-65981942D01*
X90442142Y-66127085D02*
X90877571Y-66272228D01*
X90877571Y-65894857D01*
X91080771Y-65343314D02*
X91080771Y-65691657D01*
X91080771Y-65517485D02*
X90471171Y-65517485D01*
X90558257Y-65575542D01*
X90616314Y-65633600D01*
X90645342Y-65691657D01*
X86690200Y-66504457D02*
X86661171Y-66562514D01*
X86661171Y-66649600D01*
X86690200Y-66736685D01*
X86748257Y-66794742D01*
X86806314Y-66823771D01*
X86922428Y-66852800D01*
X87009514Y-66852800D01*
X87125628Y-66823771D01*
X87183685Y-66794742D01*
X87241742Y-66736685D01*
X87270771Y-66649600D01*
X87270771Y-66591542D01*
X87241742Y-66504457D01*
X87212714Y-66475428D01*
X87009514Y-66475428D01*
X87009514Y-66591542D01*
X87270771Y-66214171D02*
X86661171Y-66214171D01*
X86661171Y-65981942D01*
X86690200Y-65923885D01*
X86719228Y-65894857D01*
X86777285Y-65865828D01*
X86864371Y-65865828D01*
X86922428Y-65894857D01*
X86951457Y-65923885D01*
X86980485Y-65981942D01*
X86980485Y-66214171D01*
X86661171Y-65488457D02*
X86661171Y-65372342D01*
X86690200Y-65314285D01*
X86748257Y-65256228D01*
X86864371Y-65227200D01*
X87067571Y-65227200D01*
X87183685Y-65256228D01*
X87241742Y-65314285D01*
X87270771Y-65372342D01*
X87270771Y-65488457D01*
X87241742Y-65546514D01*
X87183685Y-65604571D01*
X87067571Y-65633600D01*
X86864371Y-65633600D01*
X86748257Y-65604571D01*
X86690200Y-65546514D01*
X86661171Y-65488457D01*
X85391171Y-66533485D02*
X85826600Y-66533485D01*
X85913685Y-66562514D01*
X85971742Y-66620571D01*
X86000771Y-66707657D01*
X86000771Y-66765714D01*
X85594371Y-65981942D02*
X86000771Y-65981942D01*
X85362142Y-66127085D02*
X85797571Y-66272228D01*
X85797571Y-65894857D01*
X85449228Y-65691657D02*
X85420200Y-65662628D01*
X85391171Y-65604571D01*
X85391171Y-65459428D01*
X85420200Y-65401371D01*
X85449228Y-65372342D01*
X85507285Y-65343314D01*
X85565342Y-65343314D01*
X85652428Y-65372342D01*
X86000771Y-65720685D01*
X86000771Y-65343314D01*
X81610200Y-66504457D02*
X81581171Y-66562514D01*
X81581171Y-66649600D01*
X81610200Y-66736685D01*
X81668257Y-66794742D01*
X81726314Y-66823771D01*
X81842428Y-66852800D01*
X81929514Y-66852800D01*
X82045628Y-66823771D01*
X82103685Y-66794742D01*
X82161742Y-66736685D01*
X82190771Y-66649600D01*
X82190771Y-66591542D01*
X82161742Y-66504457D01*
X82132714Y-66475428D01*
X81929514Y-66475428D01*
X81929514Y-66591542D01*
X82190771Y-66214171D02*
X81581171Y-66214171D01*
X81581171Y-65981942D01*
X81610200Y-65923885D01*
X81639228Y-65894857D01*
X81697285Y-65865828D01*
X81784371Y-65865828D01*
X81842428Y-65894857D01*
X81871457Y-65923885D01*
X81900485Y-65981942D01*
X81900485Y-66214171D01*
X81581171Y-65488457D02*
X81581171Y-65372342D01*
X81610200Y-65314285D01*
X81668257Y-65256228D01*
X81784371Y-65227200D01*
X81987571Y-65227200D01*
X82103685Y-65256228D01*
X82161742Y-65314285D01*
X82190771Y-65372342D01*
X82190771Y-65488457D01*
X82161742Y-65546514D01*
X82103685Y-65604571D01*
X81987571Y-65633600D01*
X81784371Y-65633600D01*
X81668257Y-65604571D01*
X81610200Y-65546514D01*
X81581171Y-65488457D01*
X126506514Y-43481171D02*
X126506514Y-43916600D01*
X126477485Y-44003685D01*
X126419428Y-44061742D01*
X126332342Y-44090771D01*
X126274285Y-44090771D01*
X126767771Y-43539228D02*
X126796800Y-43510200D01*
X126854857Y-43481171D01*
X127000000Y-43481171D01*
X127058057Y-43510200D01*
X127087085Y-43539228D01*
X127116114Y-43597285D01*
X127116114Y-43655342D01*
X127087085Y-43742428D01*
X126738742Y-44090771D01*
X127116114Y-44090771D01*
X127319314Y-43481171D02*
X127696685Y-43481171D01*
X127493485Y-43713400D01*
X127580571Y-43713400D01*
X127638628Y-43742428D01*
X127667657Y-43771457D01*
X127696685Y-43829514D01*
X127696685Y-43974657D01*
X127667657Y-44032714D01*
X127638628Y-44061742D01*
X127580571Y-44090771D01*
X127406400Y-44090771D01*
X127348342Y-44061742D01*
X127319314Y-44032714D01*
X126535542Y-47320200D02*
X126477485Y-47291171D01*
X126390400Y-47291171D01*
X126303314Y-47320200D01*
X126245257Y-47378257D01*
X126216228Y-47436314D01*
X126187200Y-47552428D01*
X126187200Y-47639514D01*
X126216228Y-47755628D01*
X126245257Y-47813685D01*
X126303314Y-47871742D01*
X126390400Y-47900771D01*
X126448457Y-47900771D01*
X126535542Y-47871742D01*
X126564571Y-47842714D01*
X126564571Y-47639514D01*
X126448457Y-47639514D01*
X126825828Y-47900771D02*
X126825828Y-47291171D01*
X127174171Y-47900771D01*
X127174171Y-47291171D01*
X127464457Y-47900771D02*
X127464457Y-47291171D01*
X127609600Y-47291171D01*
X127696685Y-47320200D01*
X127754742Y-47378257D01*
X127783771Y-47436314D01*
X127812800Y-47552428D01*
X127812800Y-47639514D01*
X127783771Y-47755628D01*
X127754742Y-47813685D01*
X127696685Y-47871742D01*
X127609600Y-47900771D01*
X127464457Y-47900771D01*
X101106514Y-43481171D02*
X101106514Y-43916600D01*
X101077485Y-44003685D01*
X101019428Y-44061742D01*
X100932342Y-44090771D01*
X100874285Y-44090771D01*
X101338742Y-43481171D02*
X101716114Y-43481171D01*
X101512914Y-43713400D01*
X101600000Y-43713400D01*
X101658057Y-43742428D01*
X101687085Y-43771457D01*
X101716114Y-43829514D01*
X101716114Y-43974657D01*
X101687085Y-44032714D01*
X101658057Y-44061742D01*
X101600000Y-44090771D01*
X101425828Y-44090771D01*
X101367771Y-44061742D01*
X101338742Y-44032714D01*
X101919314Y-43481171D02*
X102296685Y-43481171D01*
X102093485Y-43713400D01*
X102180571Y-43713400D01*
X102238628Y-43742428D01*
X102267657Y-43771457D01*
X102296685Y-43829514D01*
X102296685Y-43974657D01*
X102267657Y-44032714D01*
X102238628Y-44061742D01*
X102180571Y-44090771D01*
X102006400Y-44090771D01*
X101948342Y-44061742D01*
X101919314Y-44032714D01*
X101135542Y-47320200D02*
X101077485Y-47291171D01*
X100990400Y-47291171D01*
X100903314Y-47320200D01*
X100845257Y-47378257D01*
X100816228Y-47436314D01*
X100787200Y-47552428D01*
X100787200Y-47639514D01*
X100816228Y-47755628D01*
X100845257Y-47813685D01*
X100903314Y-47871742D01*
X100990400Y-47900771D01*
X101048457Y-47900771D01*
X101135542Y-47871742D01*
X101164571Y-47842714D01*
X101164571Y-47639514D01*
X101048457Y-47639514D01*
X101425828Y-47900771D02*
X101425828Y-47291171D01*
X101774171Y-47900771D01*
X101774171Y-47291171D01*
X102064457Y-47900771D02*
X102064457Y-47291171D01*
X102209600Y-47291171D01*
X102296685Y-47320200D01*
X102354742Y-47378257D01*
X102383771Y-47436314D01*
X102412800Y-47552428D01*
X102412800Y-47639514D01*
X102383771Y-47755628D01*
X102354742Y-47813685D01*
X102296685Y-47871742D01*
X102209600Y-47900771D01*
X102064457Y-47900771D01*
X76501171Y-84313485D02*
X76936600Y-84313485D01*
X77023685Y-84342514D01*
X77081742Y-84400571D01*
X77110771Y-84487657D01*
X77110771Y-84545714D01*
X76704371Y-83761942D02*
X77110771Y-83761942D01*
X76472142Y-83907085D02*
X76907571Y-84052228D01*
X76907571Y-83674857D01*
X76501171Y-83500685D02*
X76501171Y-83123314D01*
X76733400Y-83326514D01*
X76733400Y-83239428D01*
X76762428Y-83181371D01*
X76791457Y-83152342D01*
X76849514Y-83123314D01*
X76994657Y-83123314D01*
X77052714Y-83152342D01*
X77081742Y-83181371D01*
X77110771Y-83239428D01*
X77110771Y-83413600D01*
X77081742Y-83471657D01*
X77052714Y-83500685D01*
X80340200Y-84284457D02*
X80311171Y-84342514D01*
X80311171Y-84429600D01*
X80340200Y-84516685D01*
X80398257Y-84574742D01*
X80456314Y-84603771D01*
X80572428Y-84632800D01*
X80659514Y-84632800D01*
X80775628Y-84603771D01*
X80833685Y-84574742D01*
X80891742Y-84516685D01*
X80920771Y-84429600D01*
X80920771Y-84371542D01*
X80891742Y-84284457D01*
X80862714Y-84255428D01*
X80659514Y-84255428D01*
X80659514Y-84371542D01*
X80920771Y-83994171D02*
X80311171Y-83994171D01*
X80920771Y-83645828D01*
X80311171Y-83645828D01*
X80920771Y-83355542D02*
X80311171Y-83355542D01*
X80311171Y-83210400D01*
X80340200Y-83123314D01*
X80398257Y-83065257D01*
X80456314Y-83036228D01*
X80572428Y-83007200D01*
X80659514Y-83007200D01*
X80775628Y-83036228D01*
X80833685Y-83065257D01*
X80891742Y-83123314D01*
X80920771Y-83210400D01*
X80920771Y-83355542D01*
X169211171Y-66533485D02*
X169646600Y-66533485D01*
X169733685Y-66562514D01*
X169791742Y-66620571D01*
X169820771Y-66707657D01*
X169820771Y-66765714D01*
X169820771Y-65923885D02*
X169820771Y-66272228D01*
X169820771Y-66098057D02*
X169211171Y-66098057D01*
X169298257Y-66156114D01*
X169356314Y-66214171D01*
X169385342Y-66272228D01*
X169211171Y-65720685D02*
X169211171Y-65343314D01*
X169443400Y-65546514D01*
X169443400Y-65459428D01*
X169472428Y-65401371D01*
X169501457Y-65372342D01*
X169559514Y-65343314D01*
X169704657Y-65343314D01*
X169762714Y-65372342D01*
X169791742Y-65401371D01*
X169820771Y-65459428D01*
X169820771Y-65633600D01*
X169791742Y-65691657D01*
X169762714Y-65720685D01*
X165430200Y-66504457D02*
X165401171Y-66562514D01*
X165401171Y-66649600D01*
X165430200Y-66736685D01*
X165488257Y-66794742D01*
X165546314Y-66823771D01*
X165662428Y-66852800D01*
X165749514Y-66852800D01*
X165865628Y-66823771D01*
X165923685Y-66794742D01*
X165981742Y-66736685D01*
X166010771Y-66649600D01*
X166010771Y-66591542D01*
X165981742Y-66504457D01*
X165952714Y-66475428D01*
X165749514Y-66475428D01*
X165749514Y-66591542D01*
X166010771Y-66214171D02*
X165401171Y-66214171D01*
X166010771Y-65865828D01*
X165401171Y-65865828D01*
X166010771Y-65575542D02*
X165401171Y-65575542D01*
X165401171Y-65430400D01*
X165430200Y-65343314D01*
X165488257Y-65285257D01*
X165546314Y-65256228D01*
X165662428Y-65227200D01*
X165749514Y-65227200D01*
X165865628Y-65256228D01*
X165923685Y-65285257D01*
X165981742Y-65343314D01*
X166010771Y-65430400D01*
X166010771Y-65575542D01*
D11*
X116673333Y-80777142D02*
X116625714Y-80824761D01*
X116482857Y-80872380D01*
X116387619Y-80872380D01*
X116244761Y-80824761D01*
X116149523Y-80729523D01*
X116101904Y-80634285D01*
X116054285Y-80443809D01*
X116054285Y-80300952D01*
X116101904Y-80110476D01*
X116149523Y-80015238D01*
X116244761Y-79920000D01*
X116387619Y-79872380D01*
X116482857Y-79872380D01*
X116625714Y-79920000D01*
X116673333Y-79967619D01*
X117578095Y-79872380D02*
X117101904Y-79872380D01*
X117054285Y-80348571D01*
X117101904Y-80300952D01*
X117197142Y-80253333D01*
X117435238Y-80253333D01*
X117530476Y-80300952D01*
X117578095Y-80348571D01*
X117625714Y-80443809D01*
X117625714Y-80681904D01*
X117578095Y-80777142D01*
X117530476Y-80824761D01*
X117435238Y-80872380D01*
X117197142Y-80872380D01*
X117101904Y-80824761D01*
X117054285Y-80777142D01*
X128782380Y-96853333D02*
X129496666Y-96853333D01*
X129639523Y-96900952D01*
X129734761Y-96996190D01*
X129782380Y-97139047D01*
X129782380Y-97234285D01*
X128782380Y-95900952D02*
X128782380Y-96377142D01*
X129258571Y-96424761D01*
X129210952Y-96377142D01*
X129163333Y-96281904D01*
X129163333Y-96043809D01*
X129210952Y-95948571D01*
X129258571Y-95900952D01*
X129353809Y-95853333D01*
X129591904Y-95853333D01*
X129687142Y-95900952D01*
X129734761Y-95948571D01*
X129782380Y-96043809D01*
X129782380Y-96281904D01*
X129734761Y-96377142D01*
X129687142Y-96424761D01*
X146562380Y-101933333D02*
X147276666Y-101933333D01*
X147419523Y-101980952D01*
X147514761Y-102076190D01*
X147562380Y-102219047D01*
X147562380Y-102314285D01*
X146562380Y-101028571D02*
X146562380Y-101219047D01*
X146610000Y-101314285D01*
X146657619Y-101361904D01*
X146800476Y-101457142D01*
X146990952Y-101504761D01*
X147371904Y-101504761D01*
X147467142Y-101457142D01*
X147514761Y-101409523D01*
X147562380Y-101314285D01*
X147562380Y-101123809D01*
X147514761Y-101028571D01*
X147467142Y-100980952D01*
X147371904Y-100933333D01*
X147133809Y-100933333D01*
X147038571Y-100980952D01*
X146990952Y-101028571D01*
X146943333Y-101123809D01*
X146943333Y-101314285D01*
X146990952Y-101409523D01*
X147038571Y-101457142D01*
X147133809Y-101504761D01*
X146562380Y-96853333D02*
X147276666Y-96853333D01*
X147419523Y-96900952D01*
X147514761Y-96996190D01*
X147562380Y-97139047D01*
X147562380Y-97234285D01*
X146562380Y-96472380D02*
X146562380Y-95805714D01*
X147562380Y-96234285D01*
X101052380Y-101933333D02*
X101766666Y-101933333D01*
X101909523Y-101980952D01*
X102004761Y-102076190D01*
X102052380Y-102219047D01*
X102052380Y-102314285D01*
X101147619Y-101504761D02*
X101100000Y-101457142D01*
X101052380Y-101361904D01*
X101052380Y-101123809D01*
X101100000Y-101028571D01*
X101147619Y-100980952D01*
X101242857Y-100933333D01*
X101338095Y-100933333D01*
X101480952Y-100980952D01*
X102052380Y-101552380D01*
X102052380Y-100933333D01*
X111426666Y-93432380D02*
X111426666Y-94146666D01*
X111379047Y-94289523D01*
X111283809Y-94384761D01*
X111140952Y-94432380D01*
X111045714Y-94432380D01*
X112426666Y-94432380D02*
X111855238Y-94432380D01*
X112140952Y-94432380D02*
X112140952Y-93432380D01*
X112045714Y-93575238D01*
X111950476Y-93670476D01*
X111855238Y-93718095D01*
X111792380Y-88868095D02*
X112601904Y-88868095D01*
X112697142Y-88820476D01*
X112744761Y-88772857D01*
X112792380Y-88677619D01*
X112792380Y-88487142D01*
X112744761Y-88391904D01*
X112697142Y-88344285D01*
X112601904Y-88296666D01*
X111792380Y-88296666D01*
X112792380Y-87296666D02*
X112792380Y-87868095D01*
X112792380Y-87582380D02*
X111792380Y-87582380D01*
X111935238Y-87677619D01*
X112030476Y-87772857D01*
X112078095Y-87868095D01*
X112792380Y-86344285D02*
X112792380Y-86915714D01*
X112792380Y-86630000D02*
X111792380Y-86630000D01*
X111935238Y-86725238D01*
X112030476Y-86820476D01*
X112078095Y-86915714D01*
X101052380Y-96853333D02*
X101766666Y-96853333D01*
X101909523Y-96900952D01*
X102004761Y-96996190D01*
X102052380Y-97139047D01*
X102052380Y-97234285D01*
X101052380Y-96472380D02*
X101052380Y-95853333D01*
X101433333Y-96186666D01*
X101433333Y-96043809D01*
X101480952Y-95948571D01*
X101528571Y-95900952D01*
X101623809Y-95853333D01*
X101861904Y-95853333D01*
X101957142Y-95900952D01*
X102004761Y-95948571D01*
X102052380Y-96043809D01*
X102052380Y-96329523D01*
X102004761Y-96424761D01*
X101957142Y-96472380D01*
X128782380Y-101933333D02*
X129496666Y-101933333D01*
X129639523Y-101980952D01*
X129734761Y-102076190D01*
X129782380Y-102219047D01*
X129782380Y-102314285D01*
X129115714Y-101028571D02*
X129782380Y-101028571D01*
X128734761Y-101266666D02*
X129449047Y-101504761D01*
X129449047Y-100885714D01*
X128882380Y-78906666D02*
X128406190Y-79240000D01*
X128882380Y-79478095D02*
X127882380Y-79478095D01*
X127882380Y-79097142D01*
X127930000Y-79001904D01*
X127977619Y-78954285D01*
X128072857Y-78906666D01*
X128215714Y-78906666D01*
X128310952Y-78954285D01*
X128358571Y-79001904D01*
X128406190Y-79097142D01*
X128406190Y-79478095D01*
X128882380Y-77954285D02*
X128882380Y-78525714D01*
X128882380Y-78240000D02*
X127882380Y-78240000D01*
X128025238Y-78335238D01*
X128120476Y-78430476D01*
X128168095Y-78525714D01*
X143782380Y-71881904D02*
X144591904Y-71881904D01*
X144687142Y-71834285D01*
X144734761Y-71786666D01*
X144782380Y-71691428D01*
X144782380Y-71500952D01*
X144734761Y-71405714D01*
X144687142Y-71358095D01*
X144591904Y-71310476D01*
X143782380Y-71310476D01*
X143877619Y-70881904D02*
X143830000Y-70834285D01*
X143782380Y-70739047D01*
X143782380Y-70500952D01*
X143830000Y-70405714D01*
X143877619Y-70358095D01*
X143972857Y-70310476D01*
X144068095Y-70310476D01*
X144210952Y-70358095D01*
X144782380Y-70929523D01*
X144782380Y-70310476D01*
X138938095Y-87267380D02*
X138938095Y-88076904D01*
X138985714Y-88172142D01*
X139033333Y-88219761D01*
X139128571Y-88267380D01*
X139319047Y-88267380D01*
X139414285Y-88219761D01*
X139461904Y-88172142D01*
X139509523Y-88076904D01*
X139509523Y-87267380D01*
X140509523Y-88267380D02*
X139938095Y-88267380D01*
X140223809Y-88267380D02*
X140223809Y-87267380D01*
X140128571Y-87410238D01*
X140033333Y-87505476D01*
X139938095Y-87553095D01*
X113937380Y-71881904D02*
X114746904Y-71881904D01*
X114842142Y-71834285D01*
X114889761Y-71786666D01*
X114937380Y-71691428D01*
X114937380Y-71500952D01*
X114889761Y-71405714D01*
X114842142Y-71358095D01*
X114746904Y-71310476D01*
X113937380Y-71310476D01*
X113937380Y-70929523D02*
X113937380Y-70310476D01*
X114318333Y-70643809D01*
X114318333Y-70500952D01*
X114365952Y-70405714D01*
X114413571Y-70358095D01*
X114508809Y-70310476D01*
X114746904Y-70310476D01*
X114842142Y-70358095D01*
X114889761Y-70405714D01*
X114937380Y-70500952D01*
X114937380Y-70786666D01*
X114889761Y-70881904D01*
X114842142Y-70929523D01*
X105918095Y-75467380D02*
X105918095Y-76276904D01*
X105965714Y-76372142D01*
X106013333Y-76419761D01*
X106108571Y-76467380D01*
X106299047Y-76467380D01*
X106394285Y-76419761D01*
X106441904Y-76372142D01*
X106489523Y-76276904D01*
X106489523Y-75467380D01*
X107394285Y-75800714D02*
X107394285Y-76467380D01*
X107156190Y-75419761D02*
X106918095Y-76134047D01*
X107537142Y-76134047D01*
D13*
X126490000Y-70979420D02*
X126490000Y-71260580D01*
X127510000Y-70979420D02*
X127510000Y-71260580D01*
X119890000Y-70979420D02*
X119890000Y-71260580D01*
X118870000Y-70979420D02*
X118870000Y-71260580D01*
X96660580Y-88390000D02*
X96379420Y-88390000D01*
X96660580Y-89410000D02*
X96379420Y-89410000D01*
D14*
X156210000Y-81915000D02*
X156210000Y-80645000D01*
X156845000Y-82550000D02*
X156210000Y-81915000D01*
X156845000Y-72390000D02*
X156210000Y-71755000D01*
X158115000Y-80010000D02*
X158750000Y-80645000D01*
X158750000Y-71755000D02*
X158115000Y-72390000D01*
X156210000Y-76835000D02*
X156210000Y-75565000D01*
X158750000Y-78105000D02*
X158750000Y-79375000D01*
X156210000Y-78105000D02*
X156845000Y-77470000D01*
X156210000Y-71755000D02*
X156210000Y-70485000D01*
X156845000Y-74930000D02*
X156210000Y-74295000D01*
X158750000Y-70485000D02*
X158750000Y-71755000D01*
X156210000Y-75565000D02*
X156845000Y-74930000D01*
X156210000Y-66675000D02*
X156210000Y-65405000D01*
X158115000Y-77470000D02*
X158750000Y-78105000D01*
X156210000Y-70485000D02*
X156845000Y-69850000D01*
X158115000Y-77470000D02*
X158750000Y-76835000D01*
X158750000Y-67945000D02*
X158750000Y-69215000D01*
X158750000Y-79375000D02*
X158115000Y-80010000D01*
X156210000Y-65405000D02*
X156845000Y-64770000D01*
X156845000Y-85090000D02*
X158115000Y-85090000D01*
X156210000Y-74295000D02*
X156210000Y-73025000D01*
X156210000Y-66675000D02*
X156845000Y-67310000D01*
X158115000Y-67310000D02*
X158750000Y-66675000D01*
X158115000Y-74930000D02*
X158750000Y-75565000D01*
X158115000Y-72390000D02*
X158750000Y-73025000D01*
X158750000Y-81915000D02*
X158115000Y-82550000D01*
X156210000Y-69215000D02*
X156210000Y-67945000D01*
X158115000Y-67310000D02*
X158750000Y-67945000D01*
X158115000Y-82550000D02*
X158750000Y-83185000D01*
X156210000Y-76835000D02*
X156845000Y-77470000D01*
X158750000Y-75565000D02*
X158750000Y-76835000D01*
X158750000Y-74295000D02*
X158115000Y-74930000D01*
X156210000Y-80645000D02*
X156845000Y-80010000D01*
X158750000Y-73025000D02*
X158750000Y-74295000D01*
X158750000Y-83185000D02*
X158750000Y-84455000D01*
X156210000Y-84455000D02*
X156845000Y-85090000D01*
X158115000Y-85090000D02*
X158750000Y-84455000D01*
X158750000Y-65405000D02*
X158750000Y-66675000D01*
X156210000Y-83185000D02*
X156845000Y-82550000D01*
X158115000Y-69850000D02*
X158750000Y-70485000D01*
X158750000Y-80645000D02*
X158750000Y-81915000D01*
X156210000Y-67945000D02*
X156845000Y-67310000D01*
X156210000Y-79375000D02*
X156210000Y-78105000D01*
X156845000Y-64770000D02*
X158115000Y-64770000D01*
X158115000Y-64770000D02*
X158750000Y-65405000D01*
X158115000Y-69850000D02*
X158750000Y-69215000D01*
X156210000Y-73025000D02*
X156845000Y-72390000D01*
X156210000Y-84455000D02*
X156210000Y-83185000D01*
X156845000Y-80010000D02*
X156210000Y-79375000D01*
X156210000Y-69215000D02*
X156845000Y-69850000D01*
X163830000Y-67945000D02*
X163830000Y-69215000D01*
X161290000Y-79375000D02*
X161290000Y-78105000D01*
X161290000Y-75565000D02*
X161925000Y-74930000D01*
X163195000Y-69850000D02*
X163830000Y-69215000D01*
X161290000Y-84455000D02*
X161290000Y-83185000D01*
X161290000Y-66675000D02*
X161925000Y-67310000D01*
X161290000Y-65405000D02*
X161925000Y-64770000D01*
X161925000Y-80010000D02*
X161290000Y-79375000D01*
X163195000Y-82550000D02*
X163830000Y-83185000D01*
X161290000Y-67945000D02*
X161925000Y-67310000D01*
X163195000Y-77470000D02*
X163830000Y-76835000D01*
X163830000Y-78105000D02*
X163830000Y-79375000D01*
X161290000Y-76835000D02*
X161290000Y-75565000D01*
X161925000Y-74930000D02*
X161290000Y-74295000D01*
X163195000Y-64770000D02*
X163830000Y-65405000D01*
X163195000Y-69850000D02*
X163830000Y-70485000D01*
X161290000Y-71755000D02*
X161290000Y-70485000D01*
X163195000Y-77470000D02*
X163830000Y-78105000D01*
X163830000Y-81915000D02*
X163195000Y-82550000D01*
X161290000Y-74295000D02*
X161290000Y-73025000D01*
X163195000Y-72390000D02*
X163830000Y-73025000D01*
X163195000Y-85090000D02*
X163830000Y-84455000D01*
X161290000Y-78105000D02*
X161925000Y-77470000D01*
X161925000Y-82550000D02*
X161290000Y-81915000D01*
X161290000Y-66675000D02*
X161290000Y-65405000D01*
X161290000Y-80645000D02*
X161925000Y-80010000D01*
X161290000Y-76835000D02*
X161925000Y-77470000D01*
X161290000Y-70485000D02*
X161925000Y-69850000D01*
X163830000Y-71755000D02*
X163195000Y-72390000D01*
X163830000Y-79375000D02*
X163195000Y-80010000D01*
X161290000Y-81915000D02*
X161290000Y-80645000D01*
X163830000Y-70485000D02*
X163830000Y-71755000D01*
X163830000Y-80645000D02*
X163830000Y-81915000D01*
X163830000Y-74295000D02*
X163195000Y-74930000D01*
X163830000Y-73025000D02*
X163830000Y-74295000D01*
X161290000Y-83185000D02*
X161925000Y-82550000D01*
X163195000Y-80010000D02*
X163830000Y-80645000D01*
X161290000Y-84455000D02*
X161925000Y-85090000D01*
X163830000Y-83185000D02*
X163830000Y-84455000D01*
X163195000Y-74930000D02*
X163830000Y-75565000D01*
X161925000Y-72390000D02*
X161290000Y-71755000D01*
X161925000Y-64770000D02*
X163195000Y-64770000D01*
X161290000Y-73025000D02*
X161925000Y-72390000D01*
X163195000Y-67310000D02*
X163830000Y-66675000D01*
X161925000Y-85090000D02*
X163195000Y-85090000D01*
X161290000Y-69215000D02*
X161290000Y-67945000D01*
X163830000Y-75565000D02*
X163830000Y-76835000D01*
X161290000Y-69215000D02*
X161925000Y-69850000D01*
X163195000Y-67310000D02*
X163830000Y-67945000D01*
X163830000Y-65405000D02*
X163830000Y-66675000D01*
X146050000Y-55245000D02*
X145415000Y-54610000D01*
X128270000Y-55245000D02*
X128905000Y-54610000D01*
X128905000Y-57150000D02*
X128270000Y-56515000D01*
X137795000Y-57150000D02*
X138430000Y-56515000D01*
X135890000Y-56515000D02*
X135255000Y-57150000D01*
X125730000Y-55245000D02*
X126365000Y-54610000D01*
X144145000Y-54610000D02*
X145415000Y-54610000D01*
X139065000Y-54610000D02*
X140335000Y-54610000D01*
X126365000Y-57150000D02*
X125730000Y-56515000D01*
X140335000Y-57150000D02*
X139065000Y-57150000D01*
X138430000Y-55245000D02*
X139065000Y-54610000D01*
X143510000Y-55245000D02*
X144145000Y-54610000D01*
X137795000Y-57150000D02*
X136525000Y-57150000D01*
X135255000Y-54610000D02*
X135890000Y-55245000D01*
X130810000Y-55245000D02*
X131445000Y-54610000D01*
X132715000Y-54610000D02*
X133350000Y-55245000D01*
X131445000Y-57150000D02*
X130810000Y-56515000D01*
X145415000Y-57150000D02*
X146050000Y-56515000D01*
X144145000Y-57150000D02*
X143510000Y-56515000D01*
X139065000Y-57150000D02*
X138430000Y-56515000D01*
X140335000Y-54610000D02*
X140970000Y-55245000D01*
X128270000Y-55245000D02*
X127635000Y-54610000D01*
X141605000Y-54610000D02*
X142875000Y-54610000D01*
X135890000Y-55245000D02*
X136525000Y-54610000D01*
X132715000Y-57150000D02*
X131445000Y-57150000D01*
X133350000Y-56515000D02*
X132715000Y-57150000D01*
X136525000Y-57150000D02*
X135890000Y-56515000D01*
X146050000Y-56515000D02*
X146050000Y-55245000D01*
X131445000Y-54610000D02*
X132715000Y-54610000D01*
X130175000Y-57150000D02*
X128905000Y-57150000D01*
X136525000Y-54610000D02*
X137795000Y-54610000D01*
X135255000Y-57150000D02*
X133985000Y-57150000D01*
X126365000Y-54610000D02*
X127635000Y-54610000D01*
X133985000Y-54610000D02*
X135255000Y-54610000D01*
X133985000Y-57150000D02*
X133350000Y-56515000D01*
X125730000Y-56515000D02*
X125730000Y-55245000D01*
X133350000Y-55245000D02*
X133985000Y-54610000D01*
X140970000Y-55245000D02*
X141605000Y-54610000D01*
X140970000Y-56515000D02*
X140335000Y-57150000D01*
X127635000Y-57150000D02*
X128270000Y-56515000D01*
X128905000Y-54610000D02*
X130175000Y-54610000D01*
X145415000Y-57150000D02*
X144145000Y-57150000D01*
X130175000Y-57150000D02*
X130810000Y-56515000D01*
X141605000Y-57150000D02*
X140970000Y-56515000D01*
X142875000Y-54610000D02*
X143510000Y-55245000D01*
X127635000Y-57150000D02*
X126365000Y-57150000D01*
X143510000Y-56515000D02*
X142875000Y-57150000D01*
X142875000Y-57150000D02*
X141605000Y-57150000D01*
X130810000Y-55245000D02*
X130175000Y-54610000D01*
X138430000Y-55245000D02*
X137795000Y-54610000D01*
X141605000Y-49530000D02*
X142875000Y-49530000D01*
X128270000Y-50165000D02*
X127635000Y-49530000D01*
X133985000Y-52070000D02*
X133350000Y-51435000D01*
X137795000Y-52070000D02*
X136525000Y-52070000D01*
X139065000Y-49530000D02*
X140335000Y-49530000D01*
X130810000Y-50165000D02*
X131445000Y-49530000D01*
X140335000Y-52070000D02*
X139065000Y-52070000D01*
X128905000Y-52070000D02*
X128270000Y-51435000D01*
X128905000Y-49530000D02*
X130175000Y-49530000D01*
X128270000Y-50165000D02*
X128905000Y-49530000D01*
X135255000Y-52070000D02*
X133985000Y-52070000D01*
X136525000Y-49530000D02*
X137795000Y-49530000D01*
X145415000Y-52070000D02*
X144145000Y-52070000D01*
X142875000Y-52070000D02*
X141605000Y-52070000D01*
X145415000Y-52070000D02*
X146050000Y-51435000D01*
X146050000Y-51435000D02*
X146050000Y-50165000D01*
X133985000Y-49530000D02*
X135255000Y-49530000D01*
X127635000Y-52070000D02*
X128270000Y-51435000D01*
X132715000Y-52070000D02*
X131445000Y-52070000D01*
X146050000Y-50165000D02*
X145415000Y-49530000D01*
X133350000Y-50165000D02*
X133985000Y-49530000D01*
X144145000Y-49530000D02*
X145415000Y-49530000D01*
X130175000Y-52070000D02*
X128905000Y-52070000D01*
X125730000Y-50165000D02*
X126365000Y-49530000D01*
X144145000Y-52070000D02*
X143510000Y-51435000D01*
X127635000Y-52070000D02*
X126365000Y-52070000D01*
X140335000Y-49530000D02*
X140970000Y-50165000D01*
X143510000Y-50165000D02*
X144145000Y-49530000D01*
X130810000Y-50165000D02*
X130175000Y-49530000D01*
X133350000Y-51435000D02*
X132715000Y-52070000D01*
X139065000Y-52070000D02*
X138430000Y-51435000D01*
X126365000Y-49530000D02*
X127635000Y-49530000D01*
X137795000Y-52070000D02*
X138430000Y-51435000D01*
X131445000Y-49530000D02*
X132715000Y-49530000D01*
X132715000Y-49530000D02*
X133350000Y-50165000D01*
X135255000Y-49530000D02*
X135890000Y-50165000D01*
X138430000Y-50165000D02*
X137795000Y-49530000D01*
X141605000Y-52070000D02*
X140970000Y-51435000D01*
X126365000Y-52070000D02*
X125730000Y-51435000D01*
X140970000Y-51435000D02*
X140335000Y-52070000D01*
X140970000Y-50165000D02*
X141605000Y-49530000D01*
X143510000Y-51435000D02*
X142875000Y-52070000D01*
X135890000Y-51435000D02*
X135255000Y-52070000D01*
X142875000Y-49530000D02*
X143510000Y-50165000D01*
X130175000Y-52070000D02*
X130810000Y-51435000D01*
X131445000Y-52070000D02*
X130810000Y-51435000D01*
X125730000Y-51435000D02*
X125730000Y-50165000D01*
X136525000Y-52070000D02*
X135890000Y-51435000D01*
X138430000Y-50165000D02*
X139065000Y-49530000D01*
X135890000Y-50165000D02*
X136525000Y-49530000D01*
X120015000Y-57150000D02*
X120650000Y-56515000D01*
X120650000Y-56515000D02*
X120650000Y-55245000D01*
X108585000Y-57150000D02*
X107950000Y-56515000D01*
X112395000Y-57150000D02*
X111125000Y-57150000D01*
X108585000Y-54610000D02*
X109855000Y-54610000D01*
X114935000Y-54610000D02*
X115570000Y-55245000D01*
X113030000Y-55245000D02*
X112395000Y-54610000D01*
X115570000Y-55245000D02*
X116205000Y-54610000D01*
X118110000Y-56515000D02*
X117475000Y-57150000D01*
X110490000Y-56515000D02*
X109855000Y-57150000D01*
X112395000Y-57150000D02*
X113030000Y-56515000D01*
X107315000Y-57150000D02*
X106045000Y-57150000D01*
X114935000Y-57150000D02*
X113665000Y-57150000D01*
X102235000Y-57150000D02*
X100965000Y-57150000D01*
X118745000Y-54610000D02*
X120015000Y-54610000D01*
X111125000Y-57150000D02*
X110490000Y-56515000D01*
X116205000Y-54610000D02*
X117475000Y-54610000D01*
X109855000Y-54610000D02*
X110490000Y-55245000D01*
X120650000Y-55245000D02*
X120015000Y-54610000D01*
X118110000Y-55245000D02*
X118745000Y-54610000D01*
X106045000Y-54610000D02*
X107315000Y-54610000D01*
X107315000Y-54610000D02*
X107950000Y-55245000D01*
X104775000Y-57150000D02*
X103505000Y-57150000D01*
X103505000Y-54610000D02*
X104775000Y-54610000D01*
X105410000Y-55245000D02*
X106045000Y-54610000D01*
X102235000Y-57150000D02*
X102870000Y-56515000D01*
X111125000Y-54610000D02*
X112395000Y-54610000D01*
X105410000Y-55245000D02*
X104775000Y-54610000D01*
X113030000Y-55245000D02*
X113665000Y-54610000D01*
X100330000Y-56515000D02*
X100330000Y-55245000D01*
X120015000Y-57150000D02*
X118745000Y-57150000D01*
X100330000Y-55245000D02*
X100965000Y-54610000D01*
X100965000Y-54610000D02*
X102235000Y-54610000D01*
X113665000Y-54610000D02*
X114935000Y-54610000D01*
X110490000Y-55245000D02*
X111125000Y-54610000D01*
X103505000Y-57150000D02*
X102870000Y-56515000D01*
X107950000Y-55245000D02*
X108585000Y-54610000D01*
X113665000Y-57150000D02*
X113030000Y-56515000D01*
X107950000Y-56515000D02*
X107315000Y-57150000D01*
X102870000Y-55245000D02*
X103505000Y-54610000D01*
X116205000Y-57150000D02*
X115570000Y-56515000D01*
X109855000Y-57150000D02*
X108585000Y-57150000D01*
X115570000Y-56515000D02*
X114935000Y-57150000D01*
X102870000Y-55245000D02*
X102235000Y-54610000D01*
X104775000Y-57150000D02*
X105410000Y-56515000D01*
X118745000Y-57150000D02*
X118110000Y-56515000D01*
X106045000Y-57150000D02*
X105410000Y-56515000D01*
X100965000Y-57150000D02*
X100330000Y-56515000D01*
X117475000Y-54610000D02*
X118110000Y-55245000D01*
X117475000Y-57150000D02*
X116205000Y-57150000D01*
X118110000Y-50165000D02*
X118745000Y-49530000D01*
X109855000Y-49530000D02*
X110490000Y-50165000D01*
X112395000Y-52070000D02*
X111125000Y-52070000D01*
X120650000Y-50165000D02*
X120015000Y-49530000D01*
X102870000Y-50165000D02*
X103505000Y-49530000D01*
X109855000Y-52070000D02*
X108585000Y-52070000D01*
X107315000Y-52070000D02*
X106045000Y-52070000D01*
X104775000Y-52070000D02*
X105410000Y-51435000D01*
X102235000Y-52070000D02*
X100965000Y-52070000D01*
X116205000Y-49530000D02*
X117475000Y-49530000D01*
X107315000Y-49530000D02*
X107950000Y-50165000D01*
X117475000Y-52070000D02*
X116205000Y-52070000D01*
X107950000Y-51435000D02*
X107315000Y-52070000D01*
X115570000Y-50165000D02*
X116205000Y-49530000D01*
X100330000Y-50165000D02*
X100965000Y-49530000D01*
X103505000Y-49530000D02*
X104775000Y-49530000D01*
X104775000Y-52070000D02*
X103505000Y-52070000D01*
X110490000Y-50165000D02*
X111125000Y-49530000D01*
X118745000Y-52070000D02*
X118110000Y-51435000D01*
X100330000Y-51435000D02*
X100330000Y-50165000D01*
X112395000Y-52070000D02*
X113030000Y-51435000D01*
X118745000Y-49530000D02*
X120015000Y-49530000D01*
X113665000Y-49530000D02*
X114935000Y-49530000D01*
X118110000Y-51435000D02*
X117475000Y-52070000D01*
X120650000Y-51435000D02*
X120650000Y-50165000D01*
X111125000Y-52070000D02*
X110490000Y-51435000D01*
X102870000Y-50165000D02*
X102235000Y-49530000D01*
X110490000Y-51435000D02*
X109855000Y-52070000D01*
X113030000Y-50165000D02*
X113665000Y-49530000D01*
X120015000Y-52070000D02*
X118745000Y-52070000D01*
X114935000Y-52070000D02*
X113665000Y-52070000D01*
X108585000Y-52070000D02*
X107950000Y-51435000D01*
X107950000Y-50165000D02*
X108585000Y-49530000D01*
X117475000Y-49530000D02*
X118110000Y-50165000D01*
X106045000Y-49530000D02*
X107315000Y-49530000D01*
X103505000Y-52070000D02*
X102870000Y-51435000D01*
X105410000Y-50165000D02*
X104775000Y-49530000D01*
X115570000Y-51435000D02*
X114935000Y-52070000D01*
X106045000Y-52070000D02*
X105410000Y-51435000D01*
X120015000Y-52070000D02*
X120650000Y-51435000D01*
X116205000Y-52070000D02*
X115570000Y-51435000D01*
X100965000Y-52070000D02*
X100330000Y-51435000D01*
X113665000Y-52070000D02*
X113030000Y-51435000D01*
X113030000Y-50165000D02*
X112395000Y-49530000D01*
X100965000Y-49530000D02*
X102235000Y-49530000D01*
X108585000Y-49530000D02*
X109855000Y-49530000D01*
X114935000Y-49530000D02*
X115570000Y-50165000D01*
X105410000Y-50165000D02*
X106045000Y-49530000D01*
X111125000Y-49530000D02*
X112395000Y-49530000D01*
X102235000Y-52070000D02*
X102870000Y-51435000D01*
D13*
X128270000Y-90110000D02*
X133410000Y-90110000D01*
X133410000Y-92770000D02*
X133410000Y-90110000D01*
X127000000Y-92770000D02*
X125670000Y-92770000D01*
X125670000Y-92770000D02*
X125670000Y-91440000D01*
X128270000Y-92770000D02*
X128270000Y-90110000D01*
X128270000Y-92770000D02*
X133410000Y-92770000D01*
X118857500Y-63737258D02*
X118857500Y-63262742D01*
X119902500Y-63737258D02*
X119902500Y-63262742D01*
X117362500Y-63737258D02*
X117362500Y-63262742D01*
X116317500Y-63737258D02*
X116317500Y-63262742D01*
X114822500Y-63737258D02*
X114822500Y-63262742D01*
X113777500Y-63737258D02*
X113777500Y-63262742D01*
X112282500Y-63737258D02*
X112282500Y-63262742D01*
X111237500Y-63737258D02*
X111237500Y-63262742D01*
X108697500Y-63737258D02*
X108697500Y-63262742D01*
X109742500Y-63737258D02*
X109742500Y-63262742D01*
X107202500Y-63737258D02*
X107202500Y-63262742D01*
X106157500Y-63737258D02*
X106157500Y-63262742D01*
X104662500Y-63737258D02*
X104662500Y-63262742D01*
X103617500Y-63737258D02*
X103617500Y-63262742D01*
X101077500Y-63737258D02*
X101077500Y-63262742D01*
X102122500Y-63737258D02*
X102122500Y-63262742D01*
X96757258Y-66562500D02*
X96282742Y-66562500D01*
X96757258Y-65517500D02*
X96282742Y-65517500D01*
X96757258Y-68057500D02*
X96282742Y-68057500D01*
X96757258Y-69102500D02*
X96282742Y-69102500D01*
X96757258Y-70597500D02*
X96282742Y-70597500D01*
X96757258Y-71642500D02*
X96282742Y-71642500D01*
X96757258Y-73137500D02*
X96282742Y-73137500D01*
X96757258Y-74182500D02*
X96282742Y-74182500D01*
X96757258Y-75677500D02*
X96282742Y-75677500D01*
X96757258Y-76722500D02*
X96282742Y-76722500D01*
X96757258Y-79262500D02*
X96282742Y-79262500D01*
X96757258Y-78217500D02*
X96282742Y-78217500D01*
X96757258Y-81802500D02*
X96282742Y-81802500D01*
X96757258Y-80757500D02*
X96282742Y-80757500D01*
X96757258Y-83297500D02*
X96282742Y-83297500D01*
X96757258Y-84342500D02*
X96282742Y-84342500D01*
X149622742Y-65517500D02*
X150097258Y-65517500D01*
X149622742Y-66562500D02*
X150097258Y-66562500D01*
X149622742Y-68057500D02*
X150097258Y-68057500D01*
X149622742Y-69102500D02*
X150097258Y-69102500D01*
X149622742Y-81802500D02*
X150097258Y-81802500D01*
X149622742Y-80757500D02*
X150097258Y-80757500D01*
X149622742Y-83297500D02*
X150097258Y-83297500D01*
X149622742Y-84342500D02*
X150097258Y-84342500D01*
X149622742Y-76722500D02*
X150097258Y-76722500D01*
X149622742Y-75677500D02*
X150097258Y-75677500D01*
X149622742Y-73137500D02*
X150097258Y-73137500D01*
X149622742Y-74182500D02*
X150097258Y-74182500D01*
X149622742Y-71642500D02*
X150097258Y-71642500D01*
X149622742Y-70597500D02*
X150097258Y-70597500D01*
X149622742Y-79262500D02*
X150097258Y-79262500D01*
X149622742Y-78217500D02*
X150097258Y-78217500D01*
X135142500Y-63737258D02*
X135142500Y-63262742D01*
X134097500Y-63737258D02*
X134097500Y-63262742D01*
X136637500Y-63737258D02*
X136637500Y-63262742D01*
X137682500Y-63737258D02*
X137682500Y-63262742D01*
X144257500Y-63737258D02*
X144257500Y-63262742D01*
X145302500Y-63737258D02*
X145302500Y-63262742D01*
X131557500Y-63737258D02*
X131557500Y-63262742D01*
X132602500Y-63737258D02*
X132602500Y-63262742D01*
X142762500Y-63737258D02*
X142762500Y-63262742D01*
X141717500Y-63737258D02*
X141717500Y-63262742D01*
X129017500Y-63737258D02*
X129017500Y-63262742D01*
X130062500Y-63737258D02*
X130062500Y-63262742D01*
X140222500Y-63737258D02*
X140222500Y-63262742D01*
X139177500Y-63737258D02*
X139177500Y-63262742D01*
X127522500Y-63737258D02*
X127522500Y-63262742D01*
X126477500Y-63737258D02*
X126477500Y-63262742D01*
X150000580Y-88390000D02*
X149719420Y-88390000D01*
X150000580Y-89410000D02*
X149719420Y-89410000D01*
D14*
X89535000Y-67310000D02*
X90170000Y-67945000D01*
X90170000Y-80645000D02*
X89535000Y-80010000D01*
X87630000Y-79375000D02*
X87630000Y-78105000D01*
X90170000Y-76835000D02*
X89535000Y-77470000D01*
X90170000Y-69215000D02*
X89535000Y-69850000D01*
X88265000Y-74930000D02*
X87630000Y-74295000D01*
X88265000Y-77470000D02*
X87630000Y-76835000D01*
X90170000Y-65405000D02*
X90170000Y-66675000D01*
X89535000Y-69850000D02*
X90170000Y-70485000D01*
X88265000Y-67310000D02*
X87630000Y-66675000D01*
X88265000Y-64770000D02*
X87630000Y-65405000D01*
X87630000Y-66675000D02*
X87630000Y-65405000D01*
X90170000Y-70485000D02*
X90170000Y-71755000D01*
X87630000Y-69215000D02*
X87630000Y-67945000D01*
X89535000Y-77470000D02*
X90170000Y-78105000D01*
X87630000Y-67945000D02*
X88265000Y-67310000D01*
X90170000Y-74295000D02*
X89535000Y-74930000D01*
X90170000Y-73025000D02*
X90170000Y-74295000D01*
X90170000Y-83185000D02*
X90170000Y-84455000D01*
X90170000Y-73025000D02*
X89535000Y-72390000D01*
X88265000Y-80010000D02*
X87630000Y-79375000D01*
X87630000Y-81915000D02*
X87630000Y-80645000D01*
X89535000Y-85090000D02*
X88265000Y-85090000D01*
X88265000Y-85090000D02*
X87630000Y-84455000D01*
X88265000Y-72390000D02*
X87630000Y-73025000D01*
X88265000Y-72390000D02*
X87630000Y-71755000D01*
X90170000Y-80645000D02*
X90170000Y-81915000D01*
X88265000Y-69850000D02*
X87630000Y-69215000D01*
X87630000Y-78105000D02*
X88265000Y-77470000D01*
X87630000Y-76835000D02*
X87630000Y-75565000D01*
X90170000Y-83185000D02*
X89535000Y-82550000D01*
X87630000Y-74295000D02*
X87630000Y-73025000D01*
X90170000Y-71755000D02*
X89535000Y-72390000D01*
X89535000Y-74930000D02*
X90170000Y-75565000D01*
X88265000Y-80010000D02*
X87630000Y-80645000D01*
X90170000Y-78105000D02*
X90170000Y-79375000D01*
X88265000Y-82550000D02*
X87630000Y-81915000D01*
X90170000Y-66675000D02*
X89535000Y-67310000D01*
X88265000Y-82550000D02*
X87630000Y-83185000D01*
X90170000Y-84455000D02*
X89535000Y-85090000D01*
X87630000Y-75565000D02*
X88265000Y-74930000D01*
X89535000Y-64770000D02*
X88265000Y-64770000D01*
X90170000Y-79375000D02*
X89535000Y-80010000D01*
X90170000Y-65405000D02*
X89535000Y-64770000D01*
X90170000Y-75565000D02*
X90170000Y-76835000D01*
X90170000Y-81915000D02*
X89535000Y-82550000D01*
X87630000Y-70485000D02*
X88265000Y-69850000D01*
X87630000Y-71755000D02*
X87630000Y-70485000D01*
X90170000Y-67945000D02*
X90170000Y-69215000D01*
X87630000Y-84455000D02*
X87630000Y-83185000D01*
X82550000Y-69215000D02*
X82550000Y-67945000D01*
X85090000Y-66675000D02*
X84455000Y-67310000D01*
X82550000Y-71755000D02*
X82550000Y-70485000D01*
X82550000Y-81915000D02*
X82550000Y-80645000D01*
X85090000Y-80645000D02*
X84455000Y-80010000D01*
X82550000Y-70485000D02*
X83185000Y-69850000D01*
X83185000Y-64770000D02*
X82550000Y-65405000D01*
X82550000Y-79375000D02*
X82550000Y-78105000D01*
X84455000Y-85090000D02*
X83185000Y-85090000D01*
X82550000Y-67945000D02*
X83185000Y-67310000D01*
X85090000Y-75565000D02*
X85090000Y-76835000D01*
X85090000Y-78105000D02*
X85090000Y-79375000D01*
X84455000Y-67310000D02*
X85090000Y-67945000D01*
X83185000Y-82550000D02*
X82550000Y-81915000D01*
X85090000Y-83185000D02*
X85090000Y-84455000D01*
X84455000Y-77470000D02*
X85090000Y-78105000D01*
X85090000Y-65405000D02*
X84455000Y-64770000D01*
X84455000Y-74930000D02*
X85090000Y-75565000D01*
X83185000Y-80010000D02*
X82550000Y-79375000D01*
X85090000Y-80645000D02*
X85090000Y-81915000D01*
X85090000Y-69215000D02*
X84455000Y-69850000D01*
X82550000Y-75565000D02*
X83185000Y-74930000D01*
X83185000Y-77470000D02*
X82550000Y-76835000D01*
X82550000Y-84455000D02*
X82550000Y-83185000D01*
X85090000Y-81915000D02*
X84455000Y-82550000D01*
X82550000Y-66675000D02*
X82550000Y-65405000D01*
X85090000Y-70485000D02*
X85090000Y-71755000D01*
X83185000Y-80010000D02*
X82550000Y-80645000D01*
X82550000Y-76835000D02*
X82550000Y-75565000D01*
X85090000Y-83185000D02*
X84455000Y-82550000D01*
X84455000Y-64770000D02*
X83185000Y-64770000D01*
X83185000Y-67310000D02*
X82550000Y-66675000D01*
X82550000Y-78105000D02*
X83185000Y-77470000D01*
X83185000Y-72390000D02*
X82550000Y-73025000D01*
X83185000Y-72390000D02*
X82550000Y-71755000D01*
X85090000Y-76835000D02*
X84455000Y-77470000D01*
X85090000Y-71755000D02*
X84455000Y-72390000D01*
X84455000Y-69850000D02*
X85090000Y-70485000D01*
X83185000Y-69850000D02*
X82550000Y-69215000D01*
X82550000Y-74295000D02*
X82550000Y-73025000D01*
X85090000Y-73025000D02*
X84455000Y-72390000D01*
X85090000Y-79375000D02*
X84455000Y-80010000D01*
X83185000Y-74930000D02*
X82550000Y-74295000D01*
X85090000Y-84455000D02*
X84455000Y-85090000D01*
X85090000Y-67945000D02*
X85090000Y-69215000D01*
X83185000Y-82550000D02*
X82550000Y-83185000D01*
X85090000Y-74295000D02*
X84455000Y-74930000D01*
X85090000Y-65405000D02*
X85090000Y-66675000D01*
X83185000Y-85090000D02*
X82550000Y-84455000D01*
X85090000Y-73025000D02*
X85090000Y-74295000D01*
X127635000Y-46990000D02*
X126365000Y-46990000D01*
X133985000Y-44450000D02*
X135255000Y-44450000D01*
X146050000Y-45085000D02*
X146050000Y-46355000D01*
X144145000Y-44450000D02*
X145415000Y-44450000D01*
X127635000Y-44450000D02*
X128270000Y-45085000D01*
X132715000Y-44450000D02*
X133350000Y-45085000D01*
X130810000Y-45085000D02*
X131445000Y-44450000D01*
X138430000Y-45085000D02*
X139065000Y-44450000D01*
X137795000Y-44450000D02*
X138430000Y-45085000D01*
X128905000Y-44450000D02*
X130175000Y-44450000D01*
X125730000Y-46355000D02*
X126365000Y-46990000D01*
X133985000Y-44450000D02*
X133350000Y-45085000D01*
X139065000Y-44450000D02*
X140335000Y-44450000D01*
X135890000Y-45085000D02*
X136525000Y-44450000D01*
X144145000Y-44450000D02*
X143510000Y-45085000D01*
X126365000Y-44450000D02*
X127635000Y-44450000D01*
X141605000Y-44450000D02*
X142875000Y-44450000D01*
X130175000Y-44450000D02*
X130810000Y-45085000D01*
X135890000Y-46355000D02*
X135255000Y-46990000D01*
X135255000Y-46990000D02*
X133985000Y-46990000D01*
X143510000Y-46355000D02*
X142875000Y-46990000D01*
X137795000Y-46990000D02*
X136525000Y-46990000D01*
X131445000Y-46990000D02*
X130810000Y-46355000D01*
X139065000Y-46990000D02*
X138430000Y-46355000D01*
X126365000Y-44450000D02*
X125730000Y-45085000D01*
X128270000Y-45085000D02*
X128905000Y-44450000D01*
X142875000Y-46990000D02*
X141605000Y-46990000D01*
X133350000Y-46355000D02*
X133985000Y-46990000D01*
X130810000Y-46355000D02*
X130175000Y-46990000D01*
X138430000Y-46355000D02*
X137795000Y-46990000D01*
X133350000Y-46355000D02*
X132715000Y-46990000D01*
X140335000Y-44450000D02*
X140970000Y-45085000D01*
X130175000Y-46990000D02*
X128905000Y-46990000D01*
X136525000Y-46990000D02*
X135890000Y-46355000D01*
X140970000Y-46355000D02*
X140335000Y-46990000D01*
X142875000Y-44450000D02*
X143510000Y-45085000D01*
X136525000Y-44450000D02*
X137795000Y-44450000D01*
X145415000Y-46990000D02*
X144145000Y-46990000D01*
X140335000Y-46990000D02*
X139065000Y-46990000D01*
X125730000Y-45085000D02*
X125730000Y-46355000D01*
X128905000Y-46990000D02*
X128270000Y-46355000D01*
X128270000Y-46355000D02*
X127635000Y-46990000D01*
X131445000Y-44450000D02*
X132715000Y-44450000D01*
X145415000Y-44450000D02*
X146050000Y-45085000D01*
X132715000Y-46990000D02*
X131445000Y-46990000D01*
X141605000Y-44450000D02*
X140970000Y-45085000D01*
X146050000Y-46355000D02*
X145415000Y-46990000D01*
X143510000Y-46355000D02*
X144145000Y-46990000D01*
X135255000Y-44450000D02*
X135890000Y-45085000D01*
X140970000Y-46355000D02*
X141605000Y-46990000D01*
X102870000Y-46355000D02*
X102235000Y-46990000D01*
X113030000Y-46355000D02*
X112395000Y-46990000D01*
X120015000Y-44450000D02*
X120650000Y-45085000D01*
X108585000Y-44450000D02*
X107950000Y-45085000D01*
X113030000Y-45085000D02*
X113665000Y-44450000D01*
X118110000Y-46355000D02*
X118745000Y-46990000D01*
X105410000Y-45085000D02*
X106045000Y-44450000D01*
X106045000Y-46990000D02*
X105410000Y-46355000D01*
X109855000Y-46990000D02*
X108585000Y-46990000D01*
X107950000Y-46355000D02*
X107315000Y-46990000D01*
X108585000Y-44450000D02*
X109855000Y-44450000D01*
X100965000Y-44450000D02*
X100330000Y-45085000D01*
X111125000Y-46990000D02*
X110490000Y-46355000D01*
X102870000Y-45085000D02*
X103505000Y-44450000D01*
X107315000Y-46990000D02*
X106045000Y-46990000D01*
X113665000Y-46990000D02*
X113030000Y-46355000D01*
X106045000Y-44450000D02*
X107315000Y-44450000D01*
X112395000Y-46990000D02*
X111125000Y-46990000D01*
X120650000Y-45085000D02*
X120650000Y-46355000D01*
X120015000Y-46990000D02*
X118745000Y-46990000D01*
X118745000Y-44450000D02*
X120015000Y-44450000D01*
X104775000Y-44450000D02*
X105410000Y-45085000D01*
X115570000Y-46355000D02*
X116205000Y-46990000D01*
X100965000Y-44450000D02*
X102235000Y-44450000D01*
X100330000Y-45085000D02*
X100330000Y-46355000D01*
X103505000Y-44450000D02*
X104775000Y-44450000D01*
X118110000Y-46355000D02*
X117475000Y-46990000D01*
X115570000Y-46355000D02*
X114935000Y-46990000D01*
X104775000Y-46990000D02*
X103505000Y-46990000D01*
X118745000Y-44450000D02*
X118110000Y-45085000D01*
X116205000Y-44450000D02*
X115570000Y-45085000D01*
X102235000Y-44450000D02*
X102870000Y-45085000D01*
X109855000Y-44450000D02*
X110490000Y-45085000D01*
X110490000Y-46355000D02*
X109855000Y-46990000D01*
X114935000Y-44450000D02*
X115570000Y-45085000D01*
X103505000Y-46990000D02*
X102870000Y-46355000D01*
X100330000Y-46355000D02*
X100965000Y-46990000D01*
X105410000Y-46355000D02*
X104775000Y-46990000D01*
X113665000Y-44450000D02*
X114935000Y-44450000D01*
X117475000Y-46990000D02*
X116205000Y-46990000D01*
X116205000Y-44450000D02*
X117475000Y-44450000D01*
X102235000Y-46990000D02*
X100965000Y-46990000D01*
X107950000Y-46355000D02*
X108585000Y-46990000D01*
X111125000Y-44450000D02*
X112395000Y-44450000D01*
X120650000Y-46355000D02*
X120015000Y-46990000D01*
X107315000Y-44450000D02*
X107950000Y-45085000D01*
X117475000Y-44450000D02*
X118110000Y-45085000D01*
X112395000Y-44450000D02*
X113030000Y-45085000D01*
X114935000Y-46990000D02*
X113665000Y-46990000D01*
X110490000Y-45085000D02*
X111125000Y-44450000D01*
X77470000Y-67945000D02*
X78105000Y-67310000D01*
X79375000Y-77470000D02*
X80010000Y-78105000D01*
X78105000Y-64770000D02*
X79375000Y-64770000D01*
X77470000Y-78105000D02*
X78105000Y-77470000D01*
X79375000Y-64770000D02*
X80010000Y-65405000D01*
X77470000Y-80645000D02*
X78105000Y-80010000D01*
X77470000Y-66675000D02*
X78105000Y-67310000D01*
X77470000Y-66675000D02*
X77470000Y-65405000D01*
X78105000Y-80010000D02*
X77470000Y-79375000D01*
X77470000Y-83185000D02*
X78105000Y-82550000D01*
X80010000Y-75565000D02*
X80010000Y-76835000D01*
X78105000Y-85090000D02*
X79375000Y-85090000D01*
X80010000Y-73025000D02*
X80010000Y-74295000D01*
X80010000Y-79375000D02*
X79375000Y-80010000D01*
X80010000Y-67945000D02*
X80010000Y-69215000D01*
X77470000Y-65405000D02*
X78105000Y-64770000D01*
X80010000Y-83185000D02*
X80010000Y-84455000D01*
X77470000Y-76835000D02*
X77470000Y-75565000D01*
X80010000Y-78105000D02*
X80010000Y-79375000D01*
X77470000Y-76835000D02*
X78105000Y-77470000D01*
X77470000Y-81915000D02*
X77470000Y-80645000D01*
X77470000Y-84455000D02*
X78105000Y-85090000D01*
X77470000Y-74295000D02*
X77470000Y-73025000D01*
X78105000Y-82550000D02*
X77470000Y-81915000D01*
X79375000Y-72390000D02*
X80010000Y-73025000D01*
X77470000Y-70485000D02*
X78105000Y-69850000D01*
X79375000Y-74930000D02*
X80010000Y-75565000D01*
X77470000Y-73025000D02*
X78105000Y-72390000D01*
X77470000Y-75565000D02*
X78105000Y-74930000D01*
X80010000Y-81915000D02*
X79375000Y-82550000D01*
X79375000Y-69850000D02*
X80010000Y-69215000D01*
X79375000Y-67310000D02*
X80010000Y-66675000D01*
X79375000Y-85090000D02*
X80010000Y-84455000D01*
X77470000Y-69215000D02*
X78105000Y-69850000D01*
X79375000Y-80010000D02*
X80010000Y-80645000D01*
X79375000Y-82550000D02*
X80010000Y-83185000D01*
X78105000Y-74930000D02*
X77470000Y-74295000D01*
X78105000Y-72390000D02*
X77470000Y-71755000D01*
X77470000Y-69215000D02*
X77470000Y-67945000D01*
X79375000Y-69850000D02*
X80010000Y-70485000D01*
X80010000Y-71755000D02*
X79375000Y-72390000D01*
X80010000Y-70485000D02*
X80010000Y-71755000D01*
X77470000Y-84455000D02*
X77470000Y-83185000D01*
X80010000Y-80645000D02*
X80010000Y-81915000D01*
X80010000Y-74295000D02*
X79375000Y-74930000D01*
X79375000Y-77470000D02*
X80010000Y-76835000D01*
X77470000Y-79375000D02*
X77470000Y-78105000D01*
X79375000Y-67310000D02*
X80010000Y-67945000D01*
X80010000Y-65405000D02*
X80010000Y-66675000D01*
X77470000Y-71755000D02*
X77470000Y-70485000D01*
X167005000Y-85090000D02*
X166370000Y-84455000D01*
X168275000Y-64770000D02*
X167005000Y-64770000D01*
X167005000Y-64770000D02*
X166370000Y-65405000D01*
X166370000Y-67945000D02*
X167005000Y-67310000D01*
X168910000Y-73025000D02*
X168910000Y-74295000D01*
X166370000Y-66675000D02*
X166370000Y-65405000D01*
X168275000Y-85090000D02*
X167005000Y-85090000D01*
X166370000Y-69215000D02*
X166370000Y-67945000D01*
X167005000Y-74930000D02*
X166370000Y-74295000D01*
X167005000Y-82550000D02*
X166370000Y-81915000D01*
X167005000Y-82550000D02*
X166370000Y-83185000D01*
X166370000Y-79375000D02*
X166370000Y-78105000D01*
X168910000Y-74295000D02*
X168275000Y-74930000D01*
X168910000Y-84455000D02*
X168275000Y-85090000D01*
X168910000Y-70485000D02*
X168910000Y-71755000D01*
X166370000Y-81915000D02*
X166370000Y-80645000D01*
X167005000Y-77470000D02*
X166370000Y-76835000D01*
X168910000Y-65405000D02*
X168910000Y-66675000D01*
X168910000Y-83185000D02*
X168910000Y-84455000D01*
X168910000Y-66675000D02*
X168275000Y-67310000D01*
X166370000Y-76835000D02*
X166370000Y-75565000D01*
X168910000Y-83185000D02*
X168275000Y-82550000D01*
X168910000Y-80645000D02*
X168910000Y-81915000D01*
X168910000Y-81915000D02*
X168275000Y-82550000D01*
X167005000Y-69850000D02*
X166370000Y-69215000D01*
X166370000Y-74295000D02*
X166370000Y-73025000D01*
X168275000Y-74930000D02*
X168910000Y-75565000D01*
X168910000Y-80645000D02*
X168275000Y-80010000D01*
X168910000Y-78105000D02*
X168910000Y-79375000D01*
X166370000Y-71755000D02*
X166370000Y-70485000D01*
X166370000Y-84455000D02*
X166370000Y-83185000D01*
X168910000Y-75565000D02*
X168910000Y-76835000D01*
X168275000Y-77470000D02*
X168910000Y-78105000D01*
X166370000Y-78105000D02*
X167005000Y-77470000D01*
X167005000Y-67310000D02*
X166370000Y-66675000D01*
X167005000Y-72390000D02*
X166370000Y-73025000D01*
X166370000Y-70485000D02*
X167005000Y-69850000D01*
X168275000Y-69850000D02*
X168910000Y-70485000D01*
X168275000Y-67310000D02*
X168910000Y-67945000D01*
X168910000Y-65405000D02*
X168275000Y-64770000D01*
X168910000Y-79375000D02*
X168275000Y-80010000D01*
X167005000Y-80010000D02*
X166370000Y-79375000D01*
X167005000Y-80010000D02*
X166370000Y-80645000D01*
X168910000Y-73025000D02*
X168275000Y-72390000D01*
X168910000Y-76835000D02*
X168275000Y-77470000D01*
X167005000Y-72390000D02*
X166370000Y-71755000D01*
X166370000Y-75565000D02*
X167005000Y-74930000D01*
X168910000Y-67945000D02*
X168910000Y-69215000D01*
X168910000Y-71755000D02*
X168275000Y-72390000D01*
X168910000Y-69215000D02*
X168275000Y-69850000D01*
D13*
X117101252Y-79475000D02*
X116578748Y-79475000D01*
X117101252Y-78005000D02*
X116578748Y-78005000D01*
X125730000Y-97850000D02*
X123130000Y-97850000D01*
X123130000Y-95190000D02*
X123130000Y-97850000D01*
X125730000Y-95190000D02*
X123130000Y-95190000D01*
X128330000Y-95190000D02*
X128330000Y-96520000D01*
X127000000Y-95190000D02*
X128330000Y-95190000D01*
X125730000Y-95190000D02*
X125730000Y-97850000D01*
X130750000Y-100270000D02*
X130750000Y-102930000D01*
X143510000Y-102930000D02*
X130750000Y-102930000D01*
X143510000Y-100270000D02*
X130750000Y-100270000D01*
X143510000Y-100270000D02*
X143510000Y-102930000D01*
X144780000Y-100270000D02*
X146110000Y-100270000D01*
X146110000Y-100270000D02*
X146110000Y-101600000D01*
X143510000Y-97850000D02*
X130750000Y-97850000D01*
X143510000Y-95190000D02*
X143510000Y-97850000D01*
X144780000Y-95190000D02*
X146110000Y-95190000D01*
X143510000Y-95190000D02*
X130750000Y-95190000D01*
X130750000Y-95190000D02*
X130750000Y-97850000D01*
X146110000Y-95190000D02*
X146110000Y-96520000D01*
X99060000Y-100270000D02*
X100390000Y-100270000D01*
X95190000Y-100270000D02*
X95190000Y-102930000D01*
X100390000Y-100270000D02*
X100390000Y-101600000D01*
X97790000Y-100270000D02*
X95190000Y-100270000D01*
X97790000Y-100270000D02*
X97790000Y-102930000D01*
X97790000Y-102930000D02*
X95190000Y-102930000D01*
X106680000Y-102870000D02*
X116840000Y-102870000D01*
X106680000Y-95250000D02*
X106680000Y-102870000D01*
X116840000Y-95250000D02*
X106680000Y-95250000D01*
X116840000Y-102870000D02*
X116840000Y-95250000D01*
X116840000Y-101600000D02*
X106680000Y-101600000D01*
X113430000Y-85720000D02*
X114690000Y-85720000D01*
X120250000Y-89480000D02*
X120250000Y-85720000D01*
X120250000Y-85720000D02*
X118990000Y-85720000D01*
X113430000Y-91730000D02*
X113430000Y-85720000D01*
X100390000Y-95190000D02*
X100390000Y-96520000D01*
X95190000Y-95190000D02*
X95190000Y-97850000D01*
X97790000Y-95190000D02*
X97790000Y-97850000D01*
X97790000Y-97850000D02*
X95190000Y-97850000D01*
X97790000Y-95190000D02*
X95190000Y-95190000D01*
X99060000Y-95190000D02*
X100390000Y-95190000D01*
G36*
X93228065Y-56244163D02*
G01*
X93306772Y-56244542D01*
X93367863Y-56245333D01*
X93413817Y-56246670D01*
X93447114Y-56248683D01*
X93470236Y-56251506D01*
X93485662Y-56255269D01*
X93495871Y-56260105D01*
X93500813Y-56263822D01*
X93526457Y-56296358D01*
X93529559Y-56330138D01*
X93513711Y-56360826D01*
X93503348Y-56373089D01*
X93492196Y-56381450D01*
X93476035Y-56386657D01*
X93450642Y-56389457D01*
X93411798Y-56390596D01*
X93355280Y-56390821D01*
X93344180Y-56390822D01*
X93198244Y-56390822D01*
X93198244Y-56661756D01*
X93198148Y-56747154D01*
X93197711Y-56812864D01*
X93196712Y-56861774D01*
X93194928Y-56896773D01*
X93192137Y-56920749D01*
X93188117Y-56936593D01*
X93182645Y-56947191D01*
X93175666Y-56955267D01*
X93142734Y-56975112D01*
X93108354Y-56973548D01*
X93077176Y-56950906D01*
X93074886Y-56948100D01*
X93067429Y-56937492D01*
X93061747Y-56925081D01*
X93057601Y-56907850D01*
X93054750Y-56882784D01*
X93052954Y-56846867D01*
X93051972Y-56797083D01*
X93051564Y-56730417D01*
X93051489Y-56654589D01*
X93051489Y-56390822D01*
X92912127Y-56390822D01*
X92852322Y-56390418D01*
X92810918Y-56388840D01*
X92783748Y-56385547D01*
X92766646Y-56379992D01*
X92755443Y-56371631D01*
X92754083Y-56370178D01*
X92737725Y-56336939D01*
X92739172Y-56299362D01*
X92757978Y-56266645D01*
X92765250Y-56260298D01*
X92774627Y-56255266D01*
X92788609Y-56251396D01*
X92809696Y-56248537D01*
X92840389Y-56246535D01*
X92883189Y-56245239D01*
X92940595Y-56244498D01*
X93015110Y-56244158D01*
X93109233Y-56244068D01*
X93129260Y-56244067D01*
X93228065Y-56244163D01*
G37*
D15*
X93228065Y-56244163D02*
X93306772Y-56244542D01*
X93367863Y-56245333D01*
X93413817Y-56246670D01*
X93447114Y-56248683D01*
X93470236Y-56251506D01*
X93485662Y-56255269D01*
X93495871Y-56260105D01*
X93500813Y-56263822D01*
X93526457Y-56296358D01*
X93529559Y-56330138D01*
X93513711Y-56360826D01*
X93503348Y-56373089D01*
X93492196Y-56381450D01*
X93476035Y-56386657D01*
X93450642Y-56389457D01*
X93411798Y-56390596D01*
X93355280Y-56390821D01*
X93344180Y-56390822D01*
X93198244Y-56390822D01*
X93198244Y-56661756D01*
X93198148Y-56747154D01*
X93197711Y-56812864D01*
X93196712Y-56861774D01*
X93194928Y-56896773D01*
X93192137Y-56920749D01*
X93188117Y-56936593D01*
X93182645Y-56947191D01*
X93175666Y-56955267D01*
X93142734Y-56975112D01*
X93108354Y-56973548D01*
X93077176Y-56950906D01*
X93074886Y-56948100D01*
X93067429Y-56937492D01*
X93061747Y-56925081D01*
X93057601Y-56907850D01*
X93054750Y-56882784D01*
X93052954Y-56846867D01*
X93051972Y-56797083D01*
X93051564Y-56730417D01*
X93051489Y-56654589D01*
X93051489Y-56390822D01*
X92912127Y-56390822D01*
X92852322Y-56390418D01*
X92810918Y-56388840D01*
X92783748Y-56385547D01*
X92766646Y-56379992D01*
X92755443Y-56371631D01*
X92754083Y-56370178D01*
X92737725Y-56336939D01*
X92739172Y-56299362D01*
X92757978Y-56266645D01*
X92765250Y-56260298D01*
X92774627Y-56255266D01*
X92788609Y-56251396D01*
X92809696Y-56248537D01*
X92840389Y-56246535D01*
X92883189Y-56245239D01*
X92940595Y-56244498D01*
X93015110Y-56244158D01*
X93109233Y-56244068D01*
X93129260Y-56244067D01*
X93228065Y-56244163D01*
G36*
X85341178Y-56266645D02*
G01*
X85347758Y-56274218D01*
X85352921Y-56283987D01*
X85356836Y-56298571D01*
X85359676Y-56320585D01*
X85361613Y-56352648D01*
X85362817Y-56397375D01*
X85363461Y-56457385D01*
X85363716Y-56535294D01*
X85363755Y-56610956D01*
X85363686Y-56704802D01*
X85363362Y-56778689D01*
X85362614Y-56835232D01*
X85361268Y-56877049D01*
X85359154Y-56906757D01*
X85356100Y-56926973D01*
X85351934Y-56940314D01*
X85346484Y-56949398D01*
X85341178Y-56955267D01*
X85308174Y-56974947D01*
X85273009Y-56973181D01*
X85241545Y-56951717D01*
X85234316Y-56943337D01*
X85228666Y-56933614D01*
X85224401Y-56919861D01*
X85221327Y-56899389D01*
X85219248Y-56869512D01*
X85217970Y-56827541D01*
X85217299Y-56770789D01*
X85217041Y-56696567D01*
X85217000Y-56612537D01*
X85217000Y-56299485D01*
X85244709Y-56271776D01*
X85278863Y-56248463D01*
X85311994Y-56247623D01*
X85341178Y-56266645D01*
G37*
X85341178Y-56266645D02*
X85347758Y-56274218D01*
X85352921Y-56283987D01*
X85356836Y-56298571D01*
X85359676Y-56320585D01*
X85361613Y-56352648D01*
X85362817Y-56397375D01*
X85363461Y-56457385D01*
X85363716Y-56535294D01*
X85363755Y-56610956D01*
X85363686Y-56704802D01*
X85363362Y-56778689D01*
X85362614Y-56835232D01*
X85361268Y-56877049D01*
X85359154Y-56906757D01*
X85356100Y-56926973D01*
X85351934Y-56940314D01*
X85346484Y-56949398D01*
X85341178Y-56955267D01*
X85308174Y-56974947D01*
X85273009Y-56973181D01*
X85241545Y-56951717D01*
X85234316Y-56943337D01*
X85228666Y-56933614D01*
X85224401Y-56919861D01*
X85221327Y-56899389D01*
X85219248Y-56869512D01*
X85217970Y-56827541D01*
X85217299Y-56770789D01*
X85217041Y-56696567D01*
X85217000Y-56612537D01*
X85217000Y-56299485D01*
X85244709Y-56271776D01*
X85278863Y-56248463D01*
X85311994Y-56247623D01*
X85341178Y-56266645D01*
G36*
X89078050Y-56749311D02*
G01*
X89077825Y-56670526D01*
X89077800Y-56608920D01*
X89077800Y-56299485D01*
X89105509Y-56271776D01*
X89117806Y-56260544D01*
X89131103Y-56252853D01*
X89149672Y-56248040D01*
X89177786Y-56245446D01*
X89219717Y-56244410D01*
X89279737Y-56244270D01*
X89283309Y-56244275D01*
X89412288Y-56248636D01*
X89521991Y-56261861D01*
X89614226Y-56284741D01*
X89690802Y-56318070D01*
X89753527Y-56362638D01*
X89804212Y-56419236D01*
X89844663Y-56488658D01*
X89845459Y-56490351D01*
X89869601Y-56552483D01*
X89878203Y-56607509D01*
X89871231Y-56662887D01*
X89848654Y-56726073D01*
X89844372Y-56735689D01*
X89815172Y-56791966D01*
X89782356Y-56835451D01*
X89740002Y-56872417D01*
X89682190Y-56909135D01*
X89678831Y-56911052D01*
X89628504Y-56935227D01*
X89571621Y-56953282D01*
X89504527Y-56965839D01*
X89423565Y-56973522D01*
X89325082Y-56976953D01*
X89290286Y-56977251D01*
X89124594Y-56977845D01*
X89101197Y-56948100D01*
X89094257Y-56938319D01*
X89088842Y-56926897D01*
X89084765Y-56911095D01*
X89081837Y-56888175D01*
X89079867Y-56855396D01*
X89079225Y-56831089D01*
X89235844Y-56831089D01*
X89329726Y-56831089D01*
X89384664Y-56829483D01*
X89441060Y-56825255D01*
X89487345Y-56819292D01*
X89490139Y-56818790D01*
X89572348Y-56796736D01*
X89636114Y-56763600D01*
X89683452Y-56717847D01*
X89716382Y-56657939D01*
X89722108Y-56642061D01*
X89727721Y-56617333D01*
X89725291Y-56592902D01*
X89713467Y-56560400D01*
X89706340Y-56544434D01*
X89683000Y-56502006D01*
X89654880Y-56472240D01*
X89623940Y-56451511D01*
X89561966Y-56424537D01*
X89482651Y-56404998D01*
X89390253Y-56393746D01*
X89323333Y-56391270D01*
X89235844Y-56390822D01*
X89235844Y-56831089D01*
X89079225Y-56831089D01*
X89078668Y-56810021D01*
X89078050Y-56749311D01*
G37*
X89078050Y-56749311D02*
X89077825Y-56670526D01*
X89077800Y-56608920D01*
X89077800Y-56299485D01*
X89105509Y-56271776D01*
X89117806Y-56260544D01*
X89131103Y-56252853D01*
X89149672Y-56248040D01*
X89177786Y-56245446D01*
X89219717Y-56244410D01*
X89279737Y-56244270D01*
X89283309Y-56244275D01*
X89412288Y-56248636D01*
X89521991Y-56261861D01*
X89614226Y-56284741D01*
X89690802Y-56318070D01*
X89753527Y-56362638D01*
X89804212Y-56419236D01*
X89844663Y-56488658D01*
X89845459Y-56490351D01*
X89869601Y-56552483D01*
X89878203Y-56607509D01*
X89871231Y-56662887D01*
X89848654Y-56726073D01*
X89844372Y-56735689D01*
X89815172Y-56791966D01*
X89782356Y-56835451D01*
X89740002Y-56872417D01*
X89682190Y-56909135D01*
X89678831Y-56911052D01*
X89628504Y-56935227D01*
X89571621Y-56953282D01*
X89504527Y-56965839D01*
X89423565Y-56973522D01*
X89325082Y-56976953D01*
X89290286Y-56977251D01*
X89124594Y-56977845D01*
X89101197Y-56948100D01*
X89094257Y-56938319D01*
X89088842Y-56926897D01*
X89084765Y-56911095D01*
X89081837Y-56888175D01*
X89079867Y-56855396D01*
X89079225Y-56831089D01*
X89235844Y-56831089D01*
X89329726Y-56831089D01*
X89384664Y-56829483D01*
X89441060Y-56825255D01*
X89487345Y-56819292D01*
X89490139Y-56818790D01*
X89572348Y-56796736D01*
X89636114Y-56763600D01*
X89683452Y-56717847D01*
X89716382Y-56657939D01*
X89722108Y-56642061D01*
X89727721Y-56617333D01*
X89725291Y-56592902D01*
X89713467Y-56560400D01*
X89706340Y-56544434D01*
X89683000Y-56502006D01*
X89654880Y-56472240D01*
X89623940Y-56451511D01*
X89561966Y-56424537D01*
X89482651Y-56404998D01*
X89390253Y-56393746D01*
X89323333Y-56391270D01*
X89235844Y-56390822D01*
X89235844Y-56831089D01*
X89079225Y-56831089D01*
X89078668Y-56810021D01*
X89078050Y-56749311D01*
G36*
X85991957Y-51001571D02*
G01*
X86088232Y-51025809D01*
X86174816Y-51068641D01*
X86249627Y-51128419D01*
X86310582Y-51203494D01*
X86355601Y-51292220D01*
X86381864Y-51388530D01*
X86387714Y-51485795D01*
X86372860Y-51579654D01*
X86339160Y-51667511D01*
X86288472Y-51746770D01*
X86222655Y-51814836D01*
X86143566Y-51869112D01*
X86053066Y-51907002D01*
X86001800Y-51919426D01*
X85957302Y-51926947D01*
X85923001Y-51929919D01*
X85890040Y-51928094D01*
X85849566Y-51921225D01*
X85816469Y-51914250D01*
X85723053Y-51882741D01*
X85639381Y-51831617D01*
X85567335Y-51762429D01*
X85508800Y-51676728D01*
X85494852Y-51649489D01*
X85478414Y-51613122D01*
X85468106Y-51582582D01*
X85462540Y-51550450D01*
X85460331Y-51509307D01*
X85460052Y-51463222D01*
X85464139Y-51378865D01*
X85477554Y-51309586D01*
X85502744Y-51248961D01*
X85542154Y-51190567D01*
X85580702Y-51146302D01*
X85652594Y-51080484D01*
X85727687Y-51035053D01*
X85810438Y-51007850D01*
X85888072Y-50997576D01*
X85991957Y-51001571D01*
G37*
X85991957Y-51001571D02*
X86088232Y-51025809D01*
X86174816Y-51068641D01*
X86249627Y-51128419D01*
X86310582Y-51203494D01*
X86355601Y-51292220D01*
X86381864Y-51388530D01*
X86387714Y-51485795D01*
X86372860Y-51579654D01*
X86339160Y-51667511D01*
X86288472Y-51746770D01*
X86222655Y-51814836D01*
X86143566Y-51869112D01*
X86053066Y-51907002D01*
X86001800Y-51919426D01*
X85957302Y-51926947D01*
X85923001Y-51929919D01*
X85890040Y-51928094D01*
X85849566Y-51921225D01*
X85816469Y-51914250D01*
X85723053Y-51882741D01*
X85639381Y-51831617D01*
X85567335Y-51762429D01*
X85508800Y-51676728D01*
X85494852Y-51649489D01*
X85478414Y-51613122D01*
X85468106Y-51582582D01*
X85462540Y-51550450D01*
X85460331Y-51509307D01*
X85460052Y-51463222D01*
X85464139Y-51378865D01*
X85477554Y-51309586D01*
X85502744Y-51248961D01*
X85542154Y-51190567D01*
X85580702Y-51146302D01*
X85652594Y-51080484D01*
X85727687Y-51035053D01*
X85810438Y-51007850D01*
X85888072Y-50997576D01*
X85991957Y-51001571D01*
G36*
X92108802Y-53809059D02*
G01*
X92144786Y-53630332D01*
X92194759Y-53468845D01*
X92258668Y-53324726D01*
X92336462Y-53198106D01*
X92428089Y-53089115D01*
X92533497Y-52997883D01*
X92578662Y-52966932D01*
X92679611Y-52910785D01*
X92782901Y-52871174D01*
X92892989Y-52847014D01*
X93014330Y-52837219D01*
X93106836Y-52838265D01*
X93236490Y-52849231D01*
X93349084Y-52871046D01*
X93447875Y-52904714D01*
X93536121Y-52951236D01*
X93584986Y-52985448D01*
X93614353Y-53007362D01*
X93636043Y-53022333D01*
X93644253Y-53026733D01*
X93645868Y-53015904D01*
X93647159Y-52985251D01*
X93648138Y-52937526D01*
X93648817Y-52875479D01*
X93649210Y-52801862D01*
X93649330Y-52719427D01*
X93649188Y-52630925D01*
X93648797Y-52539107D01*
X93648171Y-52446724D01*
X93647320Y-52356528D01*
X93646260Y-52271271D01*
X93645001Y-52193703D01*
X93643556Y-52126576D01*
X93641938Y-52072641D01*
X93640161Y-52034650D01*
X93639669Y-52027667D01*
X93632092Y-51957251D01*
X93620531Y-51902102D01*
X93602792Y-51854981D01*
X93576682Y-51808647D01*
X93570415Y-51799067D01*
X93545983Y-51762378D01*
X94451311Y-51762378D01*
X94451507Y-53447245D01*
X94451526Y-53681662D01*
X94451552Y-53894603D01*
X94451625Y-54087168D01*
X94451782Y-54260459D01*
X94452064Y-54415576D01*
X94452509Y-54553620D01*
X94453156Y-54675692D01*
X94454045Y-54782894D01*
X94455213Y-54876326D01*
X94456701Y-54957090D01*
X94458546Y-55026286D01*
X94460789Y-55085015D01*
X94463469Y-55134379D01*
X94466623Y-55175478D01*
X94470292Y-55209413D01*
X94474513Y-55237286D01*
X94479327Y-55260198D01*
X94484773Y-55279249D01*
X94490888Y-55295540D01*
X94497712Y-55310173D01*
X94505285Y-55324249D01*
X94513645Y-55338868D01*
X94518839Y-55347974D01*
X94553104Y-55408689D01*
X93694955Y-55408689D01*
X93694955Y-55312733D01*
X93694224Y-55269370D01*
X93692272Y-55236205D01*
X93689463Y-55218424D01*
X93688221Y-55216778D01*
X93676799Y-55223662D01*
X93654084Y-55241505D01*
X93631385Y-55260879D01*
X93576800Y-55301614D01*
X93507321Y-55342617D01*
X93430270Y-55380123D01*
X93352965Y-55410364D01*
X93322113Y-55420012D01*
X93253616Y-55434578D01*
X93170764Y-55444539D01*
X93081371Y-55449583D01*
X92993248Y-55449396D01*
X92914207Y-55443666D01*
X92876511Y-55437858D01*
X92738414Y-55399797D01*
X92611113Y-55342073D01*
X92495292Y-55265211D01*
X92391637Y-55169739D01*
X92300833Y-55056179D01*
X92234031Y-54945381D01*
X92179164Y-54828625D01*
X92137163Y-54709276D01*
X92107167Y-54583283D01*
X92088311Y-54446594D01*
X92079732Y-54295158D01*
X92079006Y-54217711D01*
X92081100Y-54160934D01*
X92910217Y-54160934D01*
X92910424Y-54254002D01*
X92913337Y-54341692D01*
X92919000Y-54418772D01*
X92927455Y-54480009D01*
X92930038Y-54492350D01*
X92961840Y-54599633D01*
X93003498Y-54686658D01*
X93055363Y-54753642D01*
X93117781Y-54800805D01*
X93191100Y-54828365D01*
X93275669Y-54836541D01*
X93371835Y-54825551D01*
X93435311Y-54809829D01*
X93484454Y-54791639D01*
X93538583Y-54765791D01*
X93579244Y-54742089D01*
X93649800Y-54695721D01*
X93649800Y-53545530D01*
X93582392Y-53501962D01*
X93503867Y-53461040D01*
X93419681Y-53434389D01*
X93334557Y-53422465D01*
X93253216Y-53425722D01*
X93180380Y-53444615D01*
X93148426Y-53460184D01*
X93090501Y-53503181D01*
X93041544Y-53559953D01*
X93000390Y-53632575D01*
X92965874Y-53723121D01*
X92936833Y-53833666D01*
X92935552Y-53839533D01*
X92925381Y-53901788D01*
X92917739Y-53979594D01*
X92912670Y-54067720D01*
X92910217Y-54160934D01*
X92081100Y-54160934D01*
X92086857Y-54004895D01*
X92108802Y-53809059D01*
G37*
X92108802Y-53809059D02*
X92144786Y-53630332D01*
X92194759Y-53468845D01*
X92258668Y-53324726D01*
X92336462Y-53198106D01*
X92428089Y-53089115D01*
X92533497Y-52997883D01*
X92578662Y-52966932D01*
X92679611Y-52910785D01*
X92782901Y-52871174D01*
X92892989Y-52847014D01*
X93014330Y-52837219D01*
X93106836Y-52838265D01*
X93236490Y-52849231D01*
X93349084Y-52871046D01*
X93447875Y-52904714D01*
X93536121Y-52951236D01*
X93584986Y-52985448D01*
X93614353Y-53007362D01*
X93636043Y-53022333D01*
X93644253Y-53026733D01*
X93645868Y-53015904D01*
X93647159Y-52985251D01*
X93648138Y-52937526D01*
X93648817Y-52875479D01*
X93649210Y-52801862D01*
X93649330Y-52719427D01*
X93649188Y-52630925D01*
X93648797Y-52539107D01*
X93648171Y-52446724D01*
X93647320Y-52356528D01*
X93646260Y-52271271D01*
X93645001Y-52193703D01*
X93643556Y-52126576D01*
X93641938Y-52072641D01*
X93640161Y-52034650D01*
X93639669Y-52027667D01*
X93632092Y-51957251D01*
X93620531Y-51902102D01*
X93602792Y-51854981D01*
X93576682Y-51808647D01*
X93570415Y-51799067D01*
X93545983Y-51762378D01*
X94451311Y-51762378D01*
X94451507Y-53447245D01*
X94451526Y-53681662D01*
X94451552Y-53894603D01*
X94451625Y-54087168D01*
X94451782Y-54260459D01*
X94452064Y-54415576D01*
X94452509Y-54553620D01*
X94453156Y-54675692D01*
X94454045Y-54782894D01*
X94455213Y-54876326D01*
X94456701Y-54957090D01*
X94458546Y-55026286D01*
X94460789Y-55085015D01*
X94463469Y-55134379D01*
X94466623Y-55175478D01*
X94470292Y-55209413D01*
X94474513Y-55237286D01*
X94479327Y-55260198D01*
X94484773Y-55279249D01*
X94490888Y-55295540D01*
X94497712Y-55310173D01*
X94505285Y-55324249D01*
X94513645Y-55338868D01*
X94518839Y-55347974D01*
X94553104Y-55408689D01*
X93694955Y-55408689D01*
X93694955Y-55312733D01*
X93694224Y-55269370D01*
X93692272Y-55236205D01*
X93689463Y-55218424D01*
X93688221Y-55216778D01*
X93676799Y-55223662D01*
X93654084Y-55241505D01*
X93631385Y-55260879D01*
X93576800Y-55301614D01*
X93507321Y-55342617D01*
X93430270Y-55380123D01*
X93352965Y-55410364D01*
X93322113Y-55420012D01*
X93253616Y-55434578D01*
X93170764Y-55444539D01*
X93081371Y-55449583D01*
X92993248Y-55449396D01*
X92914207Y-55443666D01*
X92876511Y-55437858D01*
X92738414Y-55399797D01*
X92611113Y-55342073D01*
X92495292Y-55265211D01*
X92391637Y-55169739D01*
X92300833Y-55056179D01*
X92234031Y-54945381D01*
X92179164Y-54828625D01*
X92137163Y-54709276D01*
X92107167Y-54583283D01*
X92088311Y-54446594D01*
X92079732Y-54295158D01*
X92079006Y-54217711D01*
X92081100Y-54160934D01*
X92910217Y-54160934D01*
X92910424Y-54254002D01*
X92913337Y-54341692D01*
X92919000Y-54418772D01*
X92927455Y-54480009D01*
X92930038Y-54492350D01*
X92961840Y-54599633D01*
X93003498Y-54686658D01*
X93055363Y-54753642D01*
X93117781Y-54800805D01*
X93191100Y-54828365D01*
X93275669Y-54836541D01*
X93371835Y-54825551D01*
X93435311Y-54809829D01*
X93484454Y-54791639D01*
X93538583Y-54765791D01*
X93579244Y-54742089D01*
X93649800Y-54695721D01*
X93649800Y-53545530D01*
X93582392Y-53501962D01*
X93503867Y-53461040D01*
X93419681Y-53434389D01*
X93334557Y-53422465D01*
X93253216Y-53425722D01*
X93180380Y-53444615D01*
X93148426Y-53460184D01*
X93090501Y-53503181D01*
X93041544Y-53559953D01*
X93000390Y-53632575D01*
X92965874Y-53723121D01*
X92936833Y-53833666D01*
X92935552Y-53839533D01*
X92925381Y-53901788D01*
X92917739Y-53979594D01*
X92912670Y-54067720D01*
X92910217Y-54160934D01*
X92081100Y-54160934D01*
X92086857Y-54004895D01*
X92108802Y-53809059D01*
G36*
X86964886Y-56248448D02*
G01*
X86988452Y-56262273D01*
X87019265Y-56284881D01*
X87058922Y-56317338D01*
X87109020Y-56360708D01*
X87171157Y-56416058D01*
X87246928Y-56484451D01*
X87333666Y-56563084D01*
X87514289Y-56726878D01*
X87519933Y-56507029D01*
X87521971Y-56431351D01*
X87523937Y-56374994D01*
X87526266Y-56334706D01*
X87529394Y-56307235D01*
X87533755Y-56289329D01*
X87539784Y-56277737D01*
X87547916Y-56269208D01*
X87552228Y-56265623D01*
X87586759Y-56246670D01*
X87619617Y-56249441D01*
X87645682Y-56265633D01*
X87672333Y-56287199D01*
X87675648Y-56602151D01*
X87676565Y-56694779D01*
X87677032Y-56767544D01*
X87676887Y-56823161D01*
X87675968Y-56864342D01*
X87674113Y-56893803D01*
X87671161Y-56914255D01*
X87666950Y-56928413D01*
X87661318Y-56938991D01*
X87655073Y-56947474D01*
X87641561Y-56963207D01*
X87628117Y-56973636D01*
X87612876Y-56977639D01*
X87593974Y-56974094D01*
X87569545Y-56961879D01*
X87537727Y-56939871D01*
X87496652Y-56906949D01*
X87444458Y-56861991D01*
X87379278Y-56803875D01*
X87305444Y-56737099D01*
X87040155Y-56496458D01*
X87034511Y-56715589D01*
X87032469Y-56791128D01*
X87030498Y-56847354D01*
X87028161Y-56887524D01*
X87025019Y-56914896D01*
X87020636Y-56932728D01*
X87014576Y-56944279D01*
X87006400Y-56952807D01*
X87002216Y-56956282D01*
X86965235Y-56975372D01*
X86930292Y-56972493D01*
X86899864Y-56948100D01*
X86892903Y-56938286D01*
X86887477Y-56926826D01*
X86883397Y-56910968D01*
X86880471Y-56887963D01*
X86878508Y-56855062D01*
X86877317Y-56809516D01*
X86876708Y-56748573D01*
X86876489Y-56669486D01*
X86876466Y-56610956D01*
X86876540Y-56519407D01*
X86876887Y-56447687D01*
X86877699Y-56393045D01*
X86879167Y-56352732D01*
X86881481Y-56323998D01*
X86884833Y-56304093D01*
X86889412Y-56290268D01*
X86895411Y-56279772D01*
X86899864Y-56273811D01*
X86911150Y-56259691D01*
X86921699Y-56249029D01*
X86933107Y-56242892D01*
X86946970Y-56242343D01*
X86964886Y-56248448D01*
G37*
X86964886Y-56248448D02*
X86988452Y-56262273D01*
X87019265Y-56284881D01*
X87058922Y-56317338D01*
X87109020Y-56360708D01*
X87171157Y-56416058D01*
X87246928Y-56484451D01*
X87333666Y-56563084D01*
X87514289Y-56726878D01*
X87519933Y-56507029D01*
X87521971Y-56431351D01*
X87523937Y-56374994D01*
X87526266Y-56334706D01*
X87529394Y-56307235D01*
X87533755Y-56289329D01*
X87539784Y-56277737D01*
X87547916Y-56269208D01*
X87552228Y-56265623D01*
X87586759Y-56246670D01*
X87619617Y-56249441D01*
X87645682Y-56265633D01*
X87672333Y-56287199D01*
X87675648Y-56602151D01*
X87676565Y-56694779D01*
X87677032Y-56767544D01*
X87676887Y-56823161D01*
X87675968Y-56864342D01*
X87674113Y-56893803D01*
X87671161Y-56914255D01*
X87666950Y-56928413D01*
X87661318Y-56938991D01*
X87655073Y-56947474D01*
X87641561Y-56963207D01*
X87628117Y-56973636D01*
X87612876Y-56977639D01*
X87593974Y-56974094D01*
X87569545Y-56961879D01*
X87537727Y-56939871D01*
X87496652Y-56906949D01*
X87444458Y-56861991D01*
X87379278Y-56803875D01*
X87305444Y-56737099D01*
X87040155Y-56496458D01*
X87034511Y-56715589D01*
X87032469Y-56791128D01*
X87030498Y-56847354D01*
X87028161Y-56887524D01*
X87025019Y-56914896D01*
X87020636Y-56932728D01*
X87014576Y-56944279D01*
X87006400Y-56952807D01*
X87002216Y-56956282D01*
X86965235Y-56975372D01*
X86930292Y-56972493D01*
X86899864Y-56948100D01*
X86892903Y-56938286D01*
X86887477Y-56926826D01*
X86883397Y-56910968D01*
X86880471Y-56887963D01*
X86878508Y-56855062D01*
X86877317Y-56809516D01*
X86876708Y-56748573D01*
X86876489Y-56669486D01*
X86876466Y-56610956D01*
X86876540Y-56519407D01*
X86876887Y-56447687D01*
X86877699Y-56393045D01*
X86879167Y-56352732D01*
X86881481Y-56323998D01*
X86884833Y-56304093D01*
X86889412Y-56290268D01*
X86895411Y-56279772D01*
X86899864Y-56273811D01*
X86911150Y-56259691D01*
X86921699Y-56249029D01*
X86933107Y-56242892D01*
X86946970Y-56242343D01*
X86964886Y-56248448D01*
G36*
X84573297Y-56245351D02*
G01*
X84648112Y-56250581D01*
X84717694Y-56258750D01*
X84777998Y-56269550D01*
X84824980Y-56282673D01*
X84854594Y-56297813D01*
X84859140Y-56302269D01*
X84874946Y-56336850D01*
X84870153Y-56372351D01*
X84845636Y-56402725D01*
X84844466Y-56403596D01*
X84830046Y-56412954D01*
X84814992Y-56417876D01*
X84793995Y-56418473D01*
X84761743Y-56414861D01*
X84712927Y-56407154D01*
X84709000Y-56406505D01*
X84636261Y-56397569D01*
X84557783Y-56393161D01*
X84479073Y-56393119D01*
X84405639Y-56397279D01*
X84342989Y-56405479D01*
X84296630Y-56417557D01*
X84293584Y-56418771D01*
X84259952Y-56437615D01*
X84248136Y-56456685D01*
X84257386Y-56475439D01*
X84286953Y-56493337D01*
X84336089Y-56509837D01*
X84404043Y-56524396D01*
X84449355Y-56531406D01*
X84543544Y-56544889D01*
X84618456Y-56557214D01*
X84677283Y-56569449D01*
X84723215Y-56582661D01*
X84759445Y-56597917D01*
X84789162Y-56616285D01*
X84815558Y-56638831D01*
X84836770Y-56660971D01*
X84861935Y-56691819D01*
X84874319Y-56718345D01*
X84878192Y-56751026D01*
X84878333Y-56762995D01*
X84875424Y-56802712D01*
X84863798Y-56832259D01*
X84843677Y-56858486D01*
X84802784Y-56898576D01*
X84757183Y-56929149D01*
X84703487Y-56951203D01*
X84638308Y-56965735D01*
X84558256Y-56973741D01*
X84459943Y-56976218D01*
X84443711Y-56976177D01*
X84378151Y-56974818D01*
X84313134Y-56971730D01*
X84255748Y-56967356D01*
X84213078Y-56962140D01*
X84209628Y-56961541D01*
X84167204Y-56951491D01*
X84131220Y-56938796D01*
X84110850Y-56927190D01*
X84091893Y-56896572D01*
X84090573Y-56860918D01*
X84106915Y-56829144D01*
X84110571Y-56825551D01*
X84125685Y-56814876D01*
X84144585Y-56810276D01*
X84173838Y-56811059D01*
X84209349Y-56815127D01*
X84249030Y-56818762D01*
X84304655Y-56821828D01*
X84369594Y-56824053D01*
X84437215Y-56825164D01*
X84455000Y-56825237D01*
X84522872Y-56824964D01*
X84572546Y-56823646D01*
X84608390Y-56820827D01*
X84634776Y-56816050D01*
X84656074Y-56808857D01*
X84668874Y-56802867D01*
X84697000Y-56786233D01*
X84714932Y-56771168D01*
X84717553Y-56766897D01*
X84712024Y-56749263D01*
X84685740Y-56732192D01*
X84640522Y-56716458D01*
X84578192Y-56702838D01*
X84559829Y-56699804D01*
X84463910Y-56684738D01*
X84387359Y-56672146D01*
X84327220Y-56661111D01*
X84280540Y-56650720D01*
X84244363Y-56640056D01*
X84215735Y-56628205D01*
X84191702Y-56614251D01*
X84169308Y-56597281D01*
X84145598Y-56576378D01*
X84137620Y-56569049D01*
X84109647Y-56541699D01*
X84094840Y-56520029D01*
X84089048Y-56495232D01*
X84088111Y-56463983D01*
X84098425Y-56402705D01*
X84129248Y-56350640D01*
X84180405Y-56307958D01*
X84251717Y-56274825D01*
X84302600Y-56259964D01*
X84357900Y-56250366D01*
X84424147Y-56244936D01*
X84497294Y-56243367D01*
X84573297Y-56245351D01*
G37*
X84573297Y-56245351D02*
X84648112Y-56250581D01*
X84717694Y-56258750D01*
X84777998Y-56269550D01*
X84824980Y-56282673D01*
X84854594Y-56297813D01*
X84859140Y-56302269D01*
X84874946Y-56336850D01*
X84870153Y-56372351D01*
X84845636Y-56402725D01*
X84844466Y-56403596D01*
X84830046Y-56412954D01*
X84814992Y-56417876D01*
X84793995Y-56418473D01*
X84761743Y-56414861D01*
X84712927Y-56407154D01*
X84709000Y-56406505D01*
X84636261Y-56397569D01*
X84557783Y-56393161D01*
X84479073Y-56393119D01*
X84405639Y-56397279D01*
X84342989Y-56405479D01*
X84296630Y-56417557D01*
X84293584Y-56418771D01*
X84259952Y-56437615D01*
X84248136Y-56456685D01*
X84257386Y-56475439D01*
X84286953Y-56493337D01*
X84336089Y-56509837D01*
X84404043Y-56524396D01*
X84449355Y-56531406D01*
X84543544Y-56544889D01*
X84618456Y-56557214D01*
X84677283Y-56569449D01*
X84723215Y-56582661D01*
X84759445Y-56597917D01*
X84789162Y-56616285D01*
X84815558Y-56638831D01*
X84836770Y-56660971D01*
X84861935Y-56691819D01*
X84874319Y-56718345D01*
X84878192Y-56751026D01*
X84878333Y-56762995D01*
X84875424Y-56802712D01*
X84863798Y-56832259D01*
X84843677Y-56858486D01*
X84802784Y-56898576D01*
X84757183Y-56929149D01*
X84703487Y-56951203D01*
X84638308Y-56965735D01*
X84558256Y-56973741D01*
X84459943Y-56976218D01*
X84443711Y-56976177D01*
X84378151Y-56974818D01*
X84313134Y-56971730D01*
X84255748Y-56967356D01*
X84213078Y-56962140D01*
X84209628Y-56961541D01*
X84167204Y-56951491D01*
X84131220Y-56938796D01*
X84110850Y-56927190D01*
X84091893Y-56896572D01*
X84090573Y-56860918D01*
X84106915Y-56829144D01*
X84110571Y-56825551D01*
X84125685Y-56814876D01*
X84144585Y-56810276D01*
X84173838Y-56811059D01*
X84209349Y-56815127D01*
X84249030Y-56818762D01*
X84304655Y-56821828D01*
X84369594Y-56824053D01*
X84437215Y-56825164D01*
X84455000Y-56825237D01*
X84522872Y-56824964D01*
X84572546Y-56823646D01*
X84608390Y-56820827D01*
X84634776Y-56816050D01*
X84656074Y-56808857D01*
X84668874Y-56802867D01*
X84697000Y-56786233D01*
X84714932Y-56771168D01*
X84717553Y-56766897D01*
X84712024Y-56749263D01*
X84685740Y-56732192D01*
X84640522Y-56716458D01*
X84578192Y-56702838D01*
X84559829Y-56699804D01*
X84463910Y-56684738D01*
X84387359Y-56672146D01*
X84327220Y-56661111D01*
X84280540Y-56650720D01*
X84244363Y-56640056D01*
X84215735Y-56628205D01*
X84191702Y-56614251D01*
X84169308Y-56597281D01*
X84145598Y-56576378D01*
X84137620Y-56569049D01*
X84109647Y-56541699D01*
X84094840Y-56520029D01*
X84089048Y-56495232D01*
X84088111Y-56463983D01*
X84098425Y-56402705D01*
X84129248Y-56350640D01*
X84180405Y-56307958D01*
X84251717Y-56274825D01*
X84302600Y-56259964D01*
X84357900Y-56250366D01*
X84424147Y-56244936D01*
X84497294Y-56243367D01*
X84573297Y-56245351D01*
G36*
X83552206Y-56244146D02*
G01*
X83621614Y-56244518D01*
X83674003Y-56245385D01*
X83712153Y-56246946D01*
X83738841Y-56249403D01*
X83756847Y-56252957D01*
X83768951Y-56257810D01*
X83777931Y-56264161D01*
X83781182Y-56267084D01*
X83800957Y-56298142D01*
X83804518Y-56333828D01*
X83791509Y-56365510D01*
X83785494Y-56371913D01*
X83775765Y-56378121D01*
X83760099Y-56382910D01*
X83735592Y-56386514D01*
X83699339Y-56389164D01*
X83648435Y-56391095D01*
X83579974Y-56392539D01*
X83517383Y-56393418D01*
X83269666Y-56396467D01*
X83266281Y-56461378D01*
X83262895Y-56526289D01*
X83431042Y-56526289D01*
X83504041Y-56526919D01*
X83557483Y-56529553D01*
X83594372Y-56535309D01*
X83617712Y-56545304D01*
X83630506Y-56560656D01*
X83635758Y-56582482D01*
X83636555Y-56602738D01*
X83634077Y-56627592D01*
X83624723Y-56645906D01*
X83605617Y-56658637D01*
X83573882Y-56666741D01*
X83526641Y-56671176D01*
X83461017Y-56672899D01*
X83425199Y-56673045D01*
X83264022Y-56673045D01*
X83264022Y-56831089D01*
X83512378Y-56831089D01*
X83593787Y-56831202D01*
X83655658Y-56831712D01*
X83701032Y-56832870D01*
X83732946Y-56834930D01*
X83754441Y-56838146D01*
X83768557Y-56842772D01*
X83778332Y-56849059D01*
X83783311Y-56853667D01*
X83800390Y-56880560D01*
X83805889Y-56904467D01*
X83798037Y-56933667D01*
X83783311Y-56955267D01*
X83775454Y-56962066D01*
X83765312Y-56967346D01*
X83750156Y-56971298D01*
X83727259Y-56974113D01*
X83693891Y-56975982D01*
X83647325Y-56977098D01*
X83584833Y-56977651D01*
X83503686Y-56977833D01*
X83461578Y-56977845D01*
X83371402Y-56977765D01*
X83301076Y-56977398D01*
X83247871Y-56976552D01*
X83209060Y-56975036D01*
X83181913Y-56972659D01*
X83163702Y-56969229D01*
X83151700Y-56964554D01*
X83143178Y-56958444D01*
X83139844Y-56955267D01*
X83133245Y-56947670D01*
X83128073Y-56937870D01*
X83124154Y-56923239D01*
X83121316Y-56901152D01*
X83119385Y-56868982D01*
X83118188Y-56824103D01*
X83117552Y-56763889D01*
X83117303Y-56685713D01*
X83117266Y-56612923D01*
X83117300Y-56519707D01*
X83117535Y-56446431D01*
X83118170Y-56390458D01*
X83119406Y-56349151D01*
X83121444Y-56319872D01*
X83124483Y-56299984D01*
X83128723Y-56286850D01*
X83134365Y-56277832D01*
X83141609Y-56270293D01*
X83143394Y-56268612D01*
X83152055Y-56261172D01*
X83162118Y-56255409D01*
X83176375Y-56251112D01*
X83197617Y-56248064D01*
X83228636Y-56246051D01*
X83272223Y-56244860D01*
X83331169Y-56244275D01*
X83408266Y-56244083D01*
X83462999Y-56244067D01*
X83552206Y-56244146D01*
G37*
X83552206Y-56244146D02*
X83621614Y-56244518D01*
X83674003Y-56245385D01*
X83712153Y-56246946D01*
X83738841Y-56249403D01*
X83756847Y-56252957D01*
X83768951Y-56257810D01*
X83777931Y-56264161D01*
X83781182Y-56267084D01*
X83800957Y-56298142D01*
X83804518Y-56333828D01*
X83791509Y-56365510D01*
X83785494Y-56371913D01*
X83775765Y-56378121D01*
X83760099Y-56382910D01*
X83735592Y-56386514D01*
X83699339Y-56389164D01*
X83648435Y-56391095D01*
X83579974Y-56392539D01*
X83517383Y-56393418D01*
X83269666Y-56396467D01*
X83266281Y-56461378D01*
X83262895Y-56526289D01*
X83431042Y-56526289D01*
X83504041Y-56526919D01*
X83557483Y-56529553D01*
X83594372Y-56535309D01*
X83617712Y-56545304D01*
X83630506Y-56560656D01*
X83635758Y-56582482D01*
X83636555Y-56602738D01*
X83634077Y-56627592D01*
X83624723Y-56645906D01*
X83605617Y-56658637D01*
X83573882Y-56666741D01*
X83526641Y-56671176D01*
X83461017Y-56672899D01*
X83425199Y-56673045D01*
X83264022Y-56673045D01*
X83264022Y-56831089D01*
X83512378Y-56831089D01*
X83593787Y-56831202D01*
X83655658Y-56831712D01*
X83701032Y-56832870D01*
X83732946Y-56834930D01*
X83754441Y-56838146D01*
X83768557Y-56842772D01*
X83778332Y-56849059D01*
X83783311Y-56853667D01*
X83800390Y-56880560D01*
X83805889Y-56904467D01*
X83798037Y-56933667D01*
X83783311Y-56955267D01*
X83775454Y-56962066D01*
X83765312Y-56967346D01*
X83750156Y-56971298D01*
X83727259Y-56974113D01*
X83693891Y-56975982D01*
X83647325Y-56977098D01*
X83584833Y-56977651D01*
X83503686Y-56977833D01*
X83461578Y-56977845D01*
X83371402Y-56977765D01*
X83301076Y-56977398D01*
X83247871Y-56976552D01*
X83209060Y-56975036D01*
X83181913Y-56972659D01*
X83163702Y-56969229D01*
X83151700Y-56964554D01*
X83143178Y-56958444D01*
X83139844Y-56955267D01*
X83133245Y-56947670D01*
X83128073Y-56937870D01*
X83124154Y-56923239D01*
X83121316Y-56901152D01*
X83119385Y-56868982D01*
X83118188Y-56824103D01*
X83117552Y-56763889D01*
X83117303Y-56685713D01*
X83117266Y-56612923D01*
X83117300Y-56519707D01*
X83117535Y-56446431D01*
X83118170Y-56390458D01*
X83119406Y-56349151D01*
X83121444Y-56319872D01*
X83124483Y-56299984D01*
X83128723Y-56286850D01*
X83134365Y-56277832D01*
X83141609Y-56270293D01*
X83143394Y-56268612D01*
X83152055Y-56261172D01*
X83162118Y-56255409D01*
X83176375Y-56251112D01*
X83197617Y-56248064D01*
X83228636Y-56246051D01*
X83272223Y-56244860D01*
X83331169Y-56244275D01*
X83408266Y-56244083D01*
X83462999Y-56244067D01*
X83552206Y-56244146D01*
G36*
X86314919Y-56249599D02*
G01*
X86383435Y-56261095D01*
X86436057Y-56278967D01*
X86470292Y-56302499D01*
X86479621Y-56315924D01*
X86489107Y-56347148D01*
X86482723Y-56375395D01*
X86462570Y-56402182D01*
X86431255Y-56414713D01*
X86385817Y-56413696D01*
X86350674Y-56406906D01*
X86272581Y-56393971D01*
X86192774Y-56392742D01*
X86103445Y-56403241D01*
X86078771Y-56407690D01*
X85995709Y-56431108D01*
X85930727Y-56465945D01*
X85884539Y-56511604D01*
X85857855Y-56567494D01*
X85852337Y-56596388D01*
X85855949Y-56655012D01*
X85879271Y-56706879D01*
X85920176Y-56750978D01*
X85976541Y-56786299D01*
X86046240Y-56811829D01*
X86127148Y-56826559D01*
X86217140Y-56829478D01*
X86314090Y-56819575D01*
X86319564Y-56818641D01*
X86358125Y-56811459D01*
X86379506Y-56804521D01*
X86388773Y-56794227D01*
X86390994Y-56776976D01*
X86391044Y-56767841D01*
X86391044Y-56729489D01*
X86322569Y-56729489D01*
X86262100Y-56725347D01*
X86220835Y-56712147D01*
X86196825Y-56688730D01*
X86188123Y-56653936D01*
X86188017Y-56649394D01*
X86193108Y-56619654D01*
X86210567Y-56598419D01*
X86243061Y-56584366D01*
X86293257Y-56576173D01*
X86341877Y-56573161D01*
X86412544Y-56571433D01*
X86463802Y-56574070D01*
X86498761Y-56583800D01*
X86520530Y-56603353D01*
X86532220Y-56635456D01*
X86536940Y-56682838D01*
X86537800Y-56745071D01*
X86536391Y-56814535D01*
X86532152Y-56861786D01*
X86525064Y-56887012D01*
X86523689Y-56888988D01*
X86484772Y-56920508D01*
X86427714Y-56945470D01*
X86356131Y-56963340D01*
X86273642Y-56973586D01*
X86183861Y-56975673D01*
X86090408Y-56969068D01*
X86035444Y-56960956D01*
X85949234Y-56936554D01*
X85869108Y-56896662D01*
X85802023Y-56844887D01*
X85791827Y-56834539D01*
X85758698Y-56791035D01*
X85728806Y-56737118D01*
X85705643Y-56680592D01*
X85692702Y-56629259D01*
X85691142Y-56609544D01*
X85697782Y-56568419D01*
X85715432Y-56517252D01*
X85740703Y-56463394D01*
X85770211Y-56414195D01*
X85796281Y-56381334D01*
X85857235Y-56332452D01*
X85936031Y-56293545D01*
X86029843Y-56265494D01*
X86135850Y-56249179D01*
X86233000Y-56245192D01*
X86314919Y-56249599D01*
G37*
X86314919Y-56249599D02*
X86383435Y-56261095D01*
X86436057Y-56278967D01*
X86470292Y-56302499D01*
X86479621Y-56315924D01*
X86489107Y-56347148D01*
X86482723Y-56375395D01*
X86462570Y-56402182D01*
X86431255Y-56414713D01*
X86385817Y-56413696D01*
X86350674Y-56406906D01*
X86272581Y-56393971D01*
X86192774Y-56392742D01*
X86103445Y-56403241D01*
X86078771Y-56407690D01*
X85995709Y-56431108D01*
X85930727Y-56465945D01*
X85884539Y-56511604D01*
X85857855Y-56567494D01*
X85852337Y-56596388D01*
X85855949Y-56655012D01*
X85879271Y-56706879D01*
X85920176Y-56750978D01*
X85976541Y-56786299D01*
X86046240Y-56811829D01*
X86127148Y-56826559D01*
X86217140Y-56829478D01*
X86314090Y-56819575D01*
X86319564Y-56818641D01*
X86358125Y-56811459D01*
X86379506Y-56804521D01*
X86388773Y-56794227D01*
X86390994Y-56776976D01*
X86391044Y-56767841D01*
X86391044Y-56729489D01*
X86322569Y-56729489D01*
X86262100Y-56725347D01*
X86220835Y-56712147D01*
X86196825Y-56688730D01*
X86188123Y-56653936D01*
X86188017Y-56649394D01*
X86193108Y-56619654D01*
X86210567Y-56598419D01*
X86243061Y-56584366D01*
X86293257Y-56576173D01*
X86341877Y-56573161D01*
X86412544Y-56571433D01*
X86463802Y-56574070D01*
X86498761Y-56583800D01*
X86520530Y-56603353D01*
X86532220Y-56635456D01*
X86536940Y-56682838D01*
X86537800Y-56745071D01*
X86536391Y-56814535D01*
X86532152Y-56861786D01*
X86525064Y-56887012D01*
X86523689Y-56888988D01*
X86484772Y-56920508D01*
X86427714Y-56945470D01*
X86356131Y-56963340D01*
X86273642Y-56973586D01*
X86183861Y-56975673D01*
X86090408Y-56969068D01*
X86035444Y-56960956D01*
X85949234Y-56936554D01*
X85869108Y-56896662D01*
X85802023Y-56844887D01*
X85791827Y-56834539D01*
X85758698Y-56791035D01*
X85728806Y-56737118D01*
X85705643Y-56680592D01*
X85692702Y-56629259D01*
X85691142Y-56609544D01*
X85697782Y-56568419D01*
X85715432Y-56517252D01*
X85740703Y-56463394D01*
X85770211Y-56414195D01*
X85796281Y-56381334D01*
X85857235Y-56332452D01*
X85936031Y-56293545D01*
X86029843Y-56265494D01*
X86135850Y-56249179D01*
X86233000Y-56245192D01*
X86314919Y-56249599D01*
G36*
X88593429Y-51924071D02*
G01*
X88753570Y-51945245D01*
X88917510Y-51985385D01*
X89087313Y-52044889D01*
X89265043Y-52124154D01*
X89276310Y-52129699D01*
X89334005Y-52157725D01*
X89385552Y-52181802D01*
X89427191Y-52200249D01*
X89455162Y-52211386D01*
X89464733Y-52213933D01*
X89483950Y-52218941D01*
X89488561Y-52223147D01*
X89483458Y-52233580D01*
X89467418Y-52259868D01*
X89442288Y-52299257D01*
X89409914Y-52348991D01*
X89372143Y-52406315D01*
X89330822Y-52468476D01*
X89287798Y-52532718D01*
X89244917Y-52596285D01*
X89204026Y-52656425D01*
X89166971Y-52710380D01*
X89135600Y-52755397D01*
X89111759Y-52788721D01*
X89097294Y-52807597D01*
X89095309Y-52809787D01*
X89085191Y-52805138D01*
X89062850Y-52787962D01*
X89032280Y-52761440D01*
X89016536Y-52746964D01*
X88920047Y-52671682D01*
X88813336Y-52616241D01*
X88697832Y-52581141D01*
X88574962Y-52566880D01*
X88505561Y-52568051D01*
X88384423Y-52585212D01*
X88275205Y-52621094D01*
X88177582Y-52675959D01*
X88091228Y-52750070D01*
X88015815Y-52843688D01*
X87951018Y-52957076D01*
X87913601Y-53043667D01*
X87869748Y-53179366D01*
X87837428Y-53326850D01*
X87816557Y-53482314D01*
X87807051Y-53641956D01*
X87808827Y-53801973D01*
X87821803Y-53958561D01*
X87845894Y-54107918D01*
X87881018Y-54246240D01*
X87927092Y-54369724D01*
X87943373Y-54403978D01*
X88011620Y-54518064D01*
X88092079Y-54614557D01*
X88183570Y-54692670D01*
X88284911Y-54751617D01*
X88394920Y-54790612D01*
X88512415Y-54808868D01*
X88553883Y-54810211D01*
X88675441Y-54799290D01*
X88795878Y-54766474D01*
X88913666Y-54712439D01*
X89027277Y-54637865D01*
X89118685Y-54559539D01*
X89165215Y-54515008D01*
X89346483Y-54812271D01*
X89391580Y-54886433D01*
X89432819Y-54954646D01*
X89468735Y-55014459D01*
X89497866Y-55063420D01*
X89518750Y-55099079D01*
X89529924Y-55118984D01*
X89531375Y-55122079D01*
X89523146Y-55131718D01*
X89497567Y-55148999D01*
X89457873Y-55172283D01*
X89407297Y-55199934D01*
X89349074Y-55230315D01*
X89286437Y-55261790D01*
X89222621Y-55292722D01*
X89160860Y-55321473D01*
X89104388Y-55346408D01*
X89056438Y-55365889D01*
X89032986Y-55374318D01*
X88899221Y-55412133D01*
X88761327Y-55437136D01*
X88613622Y-55450140D01*
X88486833Y-55452468D01*
X88418878Y-55451373D01*
X88353277Y-55449275D01*
X88295847Y-55446434D01*
X88252403Y-55443106D01*
X88238298Y-55441422D01*
X88099284Y-55412587D01*
X87957757Y-55367468D01*
X87820275Y-55308750D01*
X87693394Y-55239120D01*
X87615889Y-55186441D01*
X87488481Y-55078239D01*
X87370178Y-54951671D01*
X87263172Y-54809866D01*
X87169652Y-54655951D01*
X87091810Y-54493053D01*
X87047956Y-54375756D01*
X86997708Y-54192128D01*
X86964209Y-53997581D01*
X86947449Y-53796325D01*
X86947416Y-53592568D01*
X86964101Y-53390521D01*
X86997493Y-53194392D01*
X87047580Y-53008391D01*
X87051397Y-52996803D01*
X87114281Y-52834750D01*
X87191028Y-52686832D01*
X87284242Y-52548865D01*
X87396527Y-52416661D01*
X87440392Y-52371399D01*
X87576534Y-52247457D01*
X87716491Y-52144915D01*
X87862411Y-52062656D01*
X88016442Y-51999564D01*
X88180732Y-51954523D01*
X88276289Y-51937033D01*
X88435023Y-51921466D01*
X88593429Y-51924071D01*
G37*
X88593429Y-51924071D02*
X88753570Y-51945245D01*
X88917510Y-51985385D01*
X89087313Y-52044889D01*
X89265043Y-52124154D01*
X89276310Y-52129699D01*
X89334005Y-52157725D01*
X89385552Y-52181802D01*
X89427191Y-52200249D01*
X89455162Y-52211386D01*
X89464733Y-52213933D01*
X89483950Y-52218941D01*
X89488561Y-52223147D01*
X89483458Y-52233580D01*
X89467418Y-52259868D01*
X89442288Y-52299257D01*
X89409914Y-52348991D01*
X89372143Y-52406315D01*
X89330822Y-52468476D01*
X89287798Y-52532718D01*
X89244917Y-52596285D01*
X89204026Y-52656425D01*
X89166971Y-52710380D01*
X89135600Y-52755397D01*
X89111759Y-52788721D01*
X89097294Y-52807597D01*
X89095309Y-52809787D01*
X89085191Y-52805138D01*
X89062850Y-52787962D01*
X89032280Y-52761440D01*
X89016536Y-52746964D01*
X88920047Y-52671682D01*
X88813336Y-52616241D01*
X88697832Y-52581141D01*
X88574962Y-52566880D01*
X88505561Y-52568051D01*
X88384423Y-52585212D01*
X88275205Y-52621094D01*
X88177582Y-52675959D01*
X88091228Y-52750070D01*
X88015815Y-52843688D01*
X87951018Y-52957076D01*
X87913601Y-53043667D01*
X87869748Y-53179366D01*
X87837428Y-53326850D01*
X87816557Y-53482314D01*
X87807051Y-53641956D01*
X87808827Y-53801973D01*
X87821803Y-53958561D01*
X87845894Y-54107918D01*
X87881018Y-54246240D01*
X87927092Y-54369724D01*
X87943373Y-54403978D01*
X88011620Y-54518064D01*
X88092079Y-54614557D01*
X88183570Y-54692670D01*
X88284911Y-54751617D01*
X88394920Y-54790612D01*
X88512415Y-54808868D01*
X88553883Y-54810211D01*
X88675441Y-54799290D01*
X88795878Y-54766474D01*
X88913666Y-54712439D01*
X89027277Y-54637865D01*
X89118685Y-54559539D01*
X89165215Y-54515008D01*
X89346483Y-54812271D01*
X89391580Y-54886433D01*
X89432819Y-54954646D01*
X89468735Y-55014459D01*
X89497866Y-55063420D01*
X89518750Y-55099079D01*
X89529924Y-55118984D01*
X89531375Y-55122079D01*
X89523146Y-55131718D01*
X89497567Y-55148999D01*
X89457873Y-55172283D01*
X89407297Y-55199934D01*
X89349074Y-55230315D01*
X89286437Y-55261790D01*
X89222621Y-55292722D01*
X89160860Y-55321473D01*
X89104388Y-55346408D01*
X89056438Y-55365889D01*
X89032986Y-55374318D01*
X88899221Y-55412133D01*
X88761327Y-55437136D01*
X88613622Y-55450140D01*
X88486833Y-55452468D01*
X88418878Y-55451373D01*
X88353277Y-55449275D01*
X88295847Y-55446434D01*
X88252403Y-55443106D01*
X88238298Y-55441422D01*
X88099284Y-55412587D01*
X87957757Y-55367468D01*
X87820275Y-55308750D01*
X87693394Y-55239120D01*
X87615889Y-55186441D01*
X87488481Y-55078239D01*
X87370178Y-54951671D01*
X87263172Y-54809866D01*
X87169652Y-54655951D01*
X87091810Y-54493053D01*
X87047956Y-54375756D01*
X86997708Y-54192128D01*
X86964209Y-53997581D01*
X86947449Y-53796325D01*
X86947416Y-53592568D01*
X86964101Y-53390521D01*
X86997493Y-53194392D01*
X87047580Y-53008391D01*
X87051397Y-52996803D01*
X87114281Y-52834750D01*
X87191028Y-52686832D01*
X87284242Y-52548865D01*
X87396527Y-52416661D01*
X87440392Y-52371399D01*
X87576534Y-52247457D01*
X87716491Y-52144915D01*
X87862411Y-52062656D01*
X88016442Y-51999564D01*
X88180732Y-51954523D01*
X88276289Y-51937033D01*
X88435023Y-51921466D01*
X88593429Y-51924071D01*
G36*
X85318600Y-51464054D02*
G01*
X85329465Y-51577993D01*
X85361082Y-51685616D01*
X85411985Y-51784615D01*
X85480707Y-51872684D01*
X85565781Y-51947516D01*
X85662768Y-52005384D01*
X85769036Y-52045005D01*
X85876050Y-52063573D01*
X85981700Y-52062434D01*
X86083875Y-52042930D01*
X86180466Y-52006406D01*
X86269362Y-51954205D01*
X86348454Y-51887673D01*
X86415631Y-51808152D01*
X86468783Y-51716987D01*
X86505801Y-51615523D01*
X86524573Y-51505102D01*
X86526511Y-51455206D01*
X86526511Y-51367267D01*
X86578440Y-51367267D01*
X86614747Y-51370111D01*
X86641645Y-51381911D01*
X86668751Y-51405649D01*
X86707133Y-51444031D01*
X86707133Y-53635602D01*
X86707124Y-53897739D01*
X86707092Y-54138241D01*
X86707028Y-54358048D01*
X86706924Y-54558101D01*
X86706773Y-54739344D01*
X86706566Y-54902716D01*
X86706294Y-55049160D01*
X86705950Y-55179617D01*
X86705526Y-55295029D01*
X86705013Y-55396338D01*
X86704403Y-55484484D01*
X86703688Y-55560410D01*
X86702860Y-55625057D01*
X86701911Y-55679367D01*
X86700833Y-55724280D01*
X86699617Y-55760740D01*
X86698255Y-55789687D01*
X86696739Y-55812063D01*
X86695062Y-55828809D01*
X86693214Y-55840868D01*
X86691187Y-55849180D01*
X86688975Y-55854687D01*
X86687892Y-55856537D01*
X86683729Y-55863549D01*
X86680195Y-55869996D01*
X86676365Y-55875900D01*
X86671318Y-55881286D01*
X86664129Y-55886178D01*
X86653877Y-55890598D01*
X86639636Y-55894572D01*
X86620486Y-55898121D01*
X86595501Y-55901270D01*
X86563760Y-55904042D01*
X86524338Y-55906461D01*
X86476314Y-55908551D01*
X86418763Y-55910335D01*
X86350763Y-55911837D01*
X86271390Y-55913080D01*
X86179721Y-55914089D01*
X86074834Y-55914885D01*
X85955804Y-55915494D01*
X85821710Y-55915939D01*
X85671627Y-55916243D01*
X85504633Y-55916430D01*
X85319804Y-55916524D01*
X85116217Y-55916548D01*
X84892950Y-55916525D01*
X84649078Y-55916480D01*
X84383679Y-55916437D01*
X84345296Y-55916432D01*
X84078318Y-55916389D01*
X83832998Y-55916318D01*
X83608417Y-55916213D01*
X83403655Y-55916066D01*
X83217794Y-55915869D01*
X83049912Y-55915616D01*
X82899092Y-55915300D01*
X82764413Y-55914913D01*
X82644956Y-55914447D01*
X82539801Y-55913897D01*
X82448029Y-55913253D01*
X82368721Y-55912511D01*
X82300957Y-55911661D01*
X82243818Y-55910697D01*
X82196383Y-55909611D01*
X82157734Y-55908397D01*
X82126951Y-55907047D01*
X82103115Y-55905555D01*
X82085306Y-55903911D01*
X82072605Y-55902111D01*
X82064092Y-55900145D01*
X82059734Y-55898477D01*
X82051272Y-55894906D01*
X82043503Y-55892270D01*
X82036398Y-55889634D01*
X82029927Y-55886062D01*
X82024061Y-55880621D01*
X82018771Y-55872375D01*
X82014026Y-55860390D01*
X82009798Y-55843731D01*
X82006057Y-55821463D01*
X82002773Y-55792652D01*
X81999917Y-55756363D01*
X81997460Y-55711661D01*
X81995371Y-55657611D01*
X81993622Y-55593279D01*
X81992183Y-55517730D01*
X81991024Y-55430030D01*
X81990117Y-55329243D01*
X81989431Y-55214434D01*
X81988937Y-55084670D01*
X81988605Y-54939015D01*
X81988407Y-54776535D01*
X81988313Y-54596295D01*
X81988292Y-54397360D01*
X81988315Y-54178796D01*
X81988354Y-53939668D01*
X81988378Y-53679040D01*
X81988378Y-53636889D01*
X81988364Y-53373992D01*
X81988339Y-53132732D01*
X81988329Y-52912165D01*
X81988358Y-52711352D01*
X81988452Y-52529349D01*
X81988638Y-52365216D01*
X81988941Y-52218011D01*
X81989386Y-52086792D01*
X81989966Y-51976867D01*
X82292803Y-51976867D01*
X82332593Y-52034711D01*
X82343764Y-52050479D01*
X82353834Y-52064441D01*
X82362862Y-52077784D01*
X82370903Y-52091693D01*
X82378014Y-52107356D01*
X82384253Y-52125958D01*
X82389675Y-52148686D01*
X82394338Y-52176727D01*
X82398299Y-52211267D01*
X82401615Y-52253492D01*
X82404341Y-52304589D01*
X82406536Y-52365744D01*
X82408255Y-52438144D01*
X82409556Y-52522975D01*
X82410495Y-52621422D01*
X82411130Y-52734674D01*
X82411516Y-52863916D01*
X82411712Y-53010334D01*
X82411773Y-53175116D01*
X82411757Y-53359447D01*
X82411720Y-53564513D01*
X82411711Y-53687133D01*
X82411735Y-53904082D01*
X82411769Y-54099642D01*
X82411757Y-54274999D01*
X82411642Y-54431341D01*
X82411370Y-54569857D01*
X82410882Y-54691734D01*
X82410124Y-54798160D01*
X82409038Y-54890322D01*
X82407569Y-54969409D01*
X82405660Y-55036608D01*
X82403256Y-55093107D01*
X82400299Y-55140093D01*
X82396734Y-55178755D01*
X82392505Y-55210280D01*
X82387554Y-55235855D01*
X82381827Y-55256670D01*
X82375267Y-55273911D01*
X82367817Y-55288765D01*
X82359421Y-55302422D01*
X82350024Y-55316069D01*
X82339568Y-55330893D01*
X82333477Y-55339783D01*
X82294704Y-55397400D01*
X82826268Y-55397400D01*
X82949517Y-55397365D01*
X83052013Y-55397215D01*
X83135580Y-55396878D01*
X83202044Y-55396286D01*
X83253229Y-55395367D01*
X83290959Y-55394051D01*
X83317060Y-55392269D01*
X83333356Y-55389951D01*
X83341672Y-55387026D01*
X83343832Y-55383424D01*
X83341661Y-55379075D01*
X83340465Y-55377645D01*
X83315315Y-55340573D01*
X83289417Y-55287772D01*
X83265808Y-55225770D01*
X83257539Y-55199357D01*
X83252922Y-55181416D01*
X83249021Y-55160355D01*
X83245752Y-55134089D01*
X83243034Y-55100532D01*
X83240785Y-55057599D01*
X83238923Y-55003204D01*
X83237364Y-54935262D01*
X83236028Y-54851688D01*
X83234831Y-54750395D01*
X83233692Y-54629300D01*
X83233315Y-54584600D01*
X83232298Y-54459449D01*
X83231540Y-54355082D01*
X83231097Y-54269707D01*
X83231030Y-54201533D01*
X83231395Y-54148765D01*
X83232252Y-54109614D01*
X83233659Y-54082285D01*
X83235675Y-54064986D01*
X83238357Y-54055926D01*
X83241764Y-54053312D01*
X83245956Y-54055351D01*
X83250429Y-54059667D01*
X83260784Y-54072602D01*
X83282842Y-54101676D01*
X83315043Y-54144759D01*
X83355826Y-54199718D01*
X83403630Y-54264423D01*
X83456895Y-54336742D01*
X83514060Y-54414544D01*
X83573563Y-54495698D01*
X83633845Y-54578072D01*
X83693345Y-54659536D01*
X83750502Y-54737957D01*
X83803755Y-54811204D01*
X83851543Y-54877147D01*
X83892307Y-54933654D01*
X83924484Y-54978593D01*
X83946515Y-55009834D01*
X83951083Y-55016466D01*
X83974004Y-55053369D01*
X84000812Y-55101359D01*
X84026211Y-55150897D01*
X84029432Y-55157577D01*
X84051110Y-55205772D01*
X84063696Y-55243334D01*
X84069426Y-55279160D01*
X84070544Y-55321200D01*
X84069910Y-55397400D01*
X85224349Y-55397400D01*
X85133185Y-55303669D01*
X85086388Y-55253775D01*
X85036101Y-55197295D01*
X84990056Y-55143026D01*
X84969631Y-55117673D01*
X84939193Y-55078128D01*
X84899138Y-55024916D01*
X84850639Y-54959667D01*
X84794865Y-54884011D01*
X84732989Y-54799577D01*
X84666181Y-54707994D01*
X84595613Y-54610892D01*
X84522455Y-54509901D01*
X84447879Y-54406650D01*
X84373056Y-54302768D01*
X84299157Y-54199885D01*
X84227354Y-54099631D01*
X84158816Y-54003636D01*
X84094716Y-53913527D01*
X84036225Y-53830936D01*
X83984514Y-53757492D01*
X83940753Y-53694824D01*
X83906115Y-53644561D01*
X83881770Y-53608334D01*
X83868889Y-53587771D01*
X83867131Y-53583668D01*
X83875090Y-53572342D01*
X83895885Y-53545162D01*
X83928153Y-53503829D01*
X83970530Y-53450044D01*
X84021653Y-53385506D01*
X84080159Y-53311918D01*
X84144686Y-53230978D01*
X84213869Y-53144388D01*
X84286347Y-53053848D01*
X84360754Y-52961060D01*
X84420483Y-52886702D01*
X85431489Y-52886702D01*
X85437398Y-52899659D01*
X85451728Y-52921908D01*
X85452775Y-52923391D01*
X85471562Y-52953544D01*
X85491209Y-52990375D01*
X85495108Y-52998511D01*
X85498644Y-53006940D01*
X85501770Y-53017059D01*
X85504514Y-53030260D01*
X85506908Y-53047938D01*
X85508981Y-53071484D01*
X85510765Y-53102293D01*
X85512288Y-53141757D01*
X85513581Y-53191269D01*
X85514674Y-53252223D01*
X85515597Y-53326011D01*
X85516381Y-53414028D01*
X85517055Y-53517665D01*
X85517650Y-53638316D01*
X85518195Y-53777374D01*
X85518721Y-53936232D01*
X85519255Y-54115089D01*
X85519794Y-54300207D01*
X85520228Y-54464145D01*
X85520491Y-54608303D01*
X85520516Y-54734079D01*
X85520235Y-54842871D01*
X85519581Y-54936077D01*
X85518486Y-55015097D01*
X85516882Y-55081328D01*
X85514703Y-55136170D01*
X85511881Y-55181021D01*
X85508349Y-55217278D01*
X85504039Y-55246341D01*
X85498883Y-55269609D01*
X85492815Y-55288479D01*
X85485767Y-55304351D01*
X85477671Y-55318622D01*
X85468460Y-55332691D01*
X85459960Y-55345158D01*
X85442824Y-55371452D01*
X85432678Y-55389037D01*
X85431489Y-55392257D01*
X85442396Y-55393334D01*
X85473589Y-55394335D01*
X85522777Y-55395235D01*
X85587667Y-55396010D01*
X85665970Y-55396637D01*
X85755393Y-55397091D01*
X85853644Y-55397349D01*
X85922555Y-55397400D01*
X86027548Y-55397180D01*
X86124390Y-55396548D01*
X86210893Y-55395549D01*
X86284868Y-55394227D01*
X86344126Y-55392626D01*
X86386480Y-55390791D01*
X86409740Y-55388765D01*
X86413622Y-55387493D01*
X86405924Y-55372591D01*
X86397926Y-55364560D01*
X86384754Y-55347434D01*
X86367515Y-55317183D01*
X86355593Y-55292622D01*
X86328955Y-55233711D01*
X86325880Y-54056845D01*
X86322805Y-52879978D01*
X85877147Y-52879978D01*
X85779330Y-52880142D01*
X85688936Y-52880611D01*
X85608370Y-52881347D01*
X85540038Y-52882316D01*
X85486344Y-52883480D01*
X85449695Y-52884803D01*
X85432496Y-52886249D01*
X85431489Y-52886702D01*
X84420483Y-52886702D01*
X84435730Y-52867722D01*
X84509910Y-52775537D01*
X84581931Y-52686204D01*
X84650431Y-52601424D01*
X84714045Y-52522898D01*
X84771412Y-52452326D01*
X84821167Y-52391409D01*
X84861948Y-52341847D01*
X84879112Y-52321178D01*
X84965404Y-52220516D01*
X85042003Y-52137259D01*
X85110817Y-52069438D01*
X85173752Y-52015089D01*
X85183133Y-52007722D01*
X85222644Y-51977117D01*
X84090884Y-51976867D01*
X84096173Y-52024844D01*
X84092870Y-52082188D01*
X84071339Y-52150463D01*
X84031365Y-52230212D01*
X83986057Y-52302495D01*
X83969839Y-52325140D01*
X83941786Y-52362696D01*
X83903570Y-52413021D01*
X83856863Y-52473973D01*
X83803339Y-52543411D01*
X83744669Y-52619194D01*
X83682525Y-52699180D01*
X83618579Y-52781228D01*
X83554505Y-52863196D01*
X83491973Y-52942943D01*
X83432657Y-53018327D01*
X83378229Y-53087207D01*
X83330361Y-53147442D01*
X83290725Y-53196889D01*
X83260994Y-53233408D01*
X83242839Y-53254858D01*
X83239780Y-53258156D01*
X83236921Y-53250149D01*
X83234707Y-53219855D01*
X83233143Y-53167556D01*
X83232233Y-53093531D01*
X83231980Y-52998063D01*
X83232387Y-52881434D01*
X83233296Y-52761445D01*
X83234618Y-52629333D01*
X83236143Y-52517594D01*
X83238119Y-52424025D01*
X83240794Y-52346419D01*
X83244418Y-52282574D01*
X83249239Y-52230283D01*
X83255506Y-52187344D01*
X83263468Y-52151551D01*
X83273373Y-52120700D01*
X83285469Y-52092586D01*
X83300007Y-52065005D01*
X83314689Y-52039966D01*
X83352686Y-51976867D01*
X82292803Y-51976867D01*
X81989966Y-51976867D01*
X81989999Y-51970617D01*
X81990805Y-51868544D01*
X81991830Y-51779633D01*
X81993100Y-51702941D01*
X81994640Y-51637527D01*
X81996476Y-51582449D01*
X81998633Y-51536765D01*
X82001137Y-51499534D01*
X82004013Y-51469813D01*
X82007287Y-51446662D01*
X82010985Y-51429139D01*
X82015131Y-51416301D01*
X82019753Y-51407208D01*
X82024874Y-51400918D01*
X82030522Y-51396488D01*
X82036721Y-51392978D01*
X82043496Y-51389445D01*
X82049492Y-51385876D01*
X82054725Y-51383300D01*
X82062901Y-51380972D01*
X82075114Y-51378878D01*
X82092459Y-51377007D01*
X82116031Y-51375347D01*
X82146923Y-51373884D01*
X82186232Y-51372608D01*
X82235050Y-51371504D01*
X82294473Y-51370561D01*
X82365596Y-51369767D01*
X82449512Y-51369109D01*
X82547317Y-51368575D01*
X82660106Y-51368153D01*
X82788971Y-51367829D01*
X82935009Y-51367592D01*
X83099314Y-51367430D01*
X83282980Y-51367330D01*
X83487103Y-51367280D01*
X83698247Y-51367267D01*
X85318600Y-51367267D01*
X85318600Y-51464054D01*
G37*
X85318600Y-51464054D02*
X85329465Y-51577993D01*
X85361082Y-51685616D01*
X85411985Y-51784615D01*
X85480707Y-51872684D01*
X85565781Y-51947516D01*
X85662768Y-52005384D01*
X85769036Y-52045005D01*
X85876050Y-52063573D01*
X85981700Y-52062434D01*
X86083875Y-52042930D01*
X86180466Y-52006406D01*
X86269362Y-51954205D01*
X86348454Y-51887673D01*
X86415631Y-51808152D01*
X86468783Y-51716987D01*
X86505801Y-51615523D01*
X86524573Y-51505102D01*
X86526511Y-51455206D01*
X86526511Y-51367267D01*
X86578440Y-51367267D01*
X86614747Y-51370111D01*
X86641645Y-51381911D01*
X86668751Y-51405649D01*
X86707133Y-51444031D01*
X86707133Y-53635602D01*
X86707124Y-53897739D01*
X86707092Y-54138241D01*
X86707028Y-54358048D01*
X86706924Y-54558101D01*
X86706773Y-54739344D01*
X86706566Y-54902716D01*
X86706294Y-55049160D01*
X86705950Y-55179617D01*
X86705526Y-55295029D01*
X86705013Y-55396338D01*
X86704403Y-55484484D01*
X86703688Y-55560410D01*
X86702860Y-55625057D01*
X86701911Y-55679367D01*
X86700833Y-55724280D01*
X86699617Y-55760740D01*
X86698255Y-55789687D01*
X86696739Y-55812063D01*
X86695062Y-55828809D01*
X86693214Y-55840868D01*
X86691187Y-55849180D01*
X86688975Y-55854687D01*
X86687892Y-55856537D01*
X86683729Y-55863549D01*
X86680195Y-55869996D01*
X86676365Y-55875900D01*
X86671318Y-55881286D01*
X86664129Y-55886178D01*
X86653877Y-55890598D01*
X86639636Y-55894572D01*
X86620486Y-55898121D01*
X86595501Y-55901270D01*
X86563760Y-55904042D01*
X86524338Y-55906461D01*
X86476314Y-55908551D01*
X86418763Y-55910335D01*
X86350763Y-55911837D01*
X86271390Y-55913080D01*
X86179721Y-55914089D01*
X86074834Y-55914885D01*
X85955804Y-55915494D01*
X85821710Y-55915939D01*
X85671627Y-55916243D01*
X85504633Y-55916430D01*
X85319804Y-55916524D01*
X85116217Y-55916548D01*
X84892950Y-55916525D01*
X84649078Y-55916480D01*
X84383679Y-55916437D01*
X84345296Y-55916432D01*
X84078318Y-55916389D01*
X83832998Y-55916318D01*
X83608417Y-55916213D01*
X83403655Y-55916066D01*
X83217794Y-55915869D01*
X83049912Y-55915616D01*
X82899092Y-55915300D01*
X82764413Y-55914913D01*
X82644956Y-55914447D01*
X82539801Y-55913897D01*
X82448029Y-55913253D01*
X82368721Y-55912511D01*
X82300957Y-55911661D01*
X82243818Y-55910697D01*
X82196383Y-55909611D01*
X82157734Y-55908397D01*
X82126951Y-55907047D01*
X82103115Y-55905555D01*
X82085306Y-55903911D01*
X82072605Y-55902111D01*
X82064092Y-55900145D01*
X82059734Y-55898477D01*
X82051272Y-55894906D01*
X82043503Y-55892270D01*
X82036398Y-55889634D01*
X82029927Y-55886062D01*
X82024061Y-55880621D01*
X82018771Y-55872375D01*
X82014026Y-55860390D01*
X82009798Y-55843731D01*
X82006057Y-55821463D01*
X82002773Y-55792652D01*
X81999917Y-55756363D01*
X81997460Y-55711661D01*
X81995371Y-55657611D01*
X81993622Y-55593279D01*
X81992183Y-55517730D01*
X81991024Y-55430030D01*
X81990117Y-55329243D01*
X81989431Y-55214434D01*
X81988937Y-55084670D01*
X81988605Y-54939015D01*
X81988407Y-54776535D01*
X81988313Y-54596295D01*
X81988292Y-54397360D01*
X81988315Y-54178796D01*
X81988354Y-53939668D01*
X81988378Y-53679040D01*
X81988378Y-53636889D01*
X81988364Y-53373992D01*
X81988339Y-53132732D01*
X81988329Y-52912165D01*
X81988358Y-52711352D01*
X81988452Y-52529349D01*
X81988638Y-52365216D01*
X81988941Y-52218011D01*
X81989386Y-52086792D01*
X81989966Y-51976867D01*
X82292803Y-51976867D01*
X82332593Y-52034711D01*
X82343764Y-52050479D01*
X82353834Y-52064441D01*
X82362862Y-52077784D01*
X82370903Y-52091693D01*
X82378014Y-52107356D01*
X82384253Y-52125958D01*
X82389675Y-52148686D01*
X82394338Y-52176727D01*
X82398299Y-52211267D01*
X82401615Y-52253492D01*
X82404341Y-52304589D01*
X82406536Y-52365744D01*
X82408255Y-52438144D01*
X82409556Y-52522975D01*
X82410495Y-52621422D01*
X82411130Y-52734674D01*
X82411516Y-52863916D01*
X82411712Y-53010334D01*
X82411773Y-53175116D01*
X82411757Y-53359447D01*
X82411720Y-53564513D01*
X82411711Y-53687133D01*
X82411735Y-53904082D01*
X82411769Y-54099642D01*
X82411757Y-54274999D01*
X82411642Y-54431341D01*
X82411370Y-54569857D01*
X82410882Y-54691734D01*
X82410124Y-54798160D01*
X82409038Y-54890322D01*
X82407569Y-54969409D01*
X82405660Y-55036608D01*
X82403256Y-55093107D01*
X82400299Y-55140093D01*
X82396734Y-55178755D01*
X82392505Y-55210280D01*
X82387554Y-55235855D01*
X82381827Y-55256670D01*
X82375267Y-55273911D01*
X82367817Y-55288765D01*
X82359421Y-55302422D01*
X82350024Y-55316069D01*
X82339568Y-55330893D01*
X82333477Y-55339783D01*
X82294704Y-55397400D01*
X82826268Y-55397400D01*
X82949517Y-55397365D01*
X83052013Y-55397215D01*
X83135580Y-55396878D01*
X83202044Y-55396286D01*
X83253229Y-55395367D01*
X83290959Y-55394051D01*
X83317060Y-55392269D01*
X83333356Y-55389951D01*
X83341672Y-55387026D01*
X83343832Y-55383424D01*
X83341661Y-55379075D01*
X83340465Y-55377645D01*
X83315315Y-55340573D01*
X83289417Y-55287772D01*
X83265808Y-55225770D01*
X83257539Y-55199357D01*
X83252922Y-55181416D01*
X83249021Y-55160355D01*
X83245752Y-55134089D01*
X83243034Y-55100532D01*
X83240785Y-55057599D01*
X83238923Y-55003204D01*
X83237364Y-54935262D01*
X83236028Y-54851688D01*
X83234831Y-54750395D01*
X83233692Y-54629300D01*
X83233315Y-54584600D01*
X83232298Y-54459449D01*
X83231540Y-54355082D01*
X83231097Y-54269707D01*
X83231030Y-54201533D01*
X83231395Y-54148765D01*
X83232252Y-54109614D01*
X83233659Y-54082285D01*
X83235675Y-54064986D01*
X83238357Y-54055926D01*
X83241764Y-54053312D01*
X83245956Y-54055351D01*
X83250429Y-54059667D01*
X83260784Y-54072602D01*
X83282842Y-54101676D01*
X83315043Y-54144759D01*
X83355826Y-54199718D01*
X83403630Y-54264423D01*
X83456895Y-54336742D01*
X83514060Y-54414544D01*
X83573563Y-54495698D01*
X83633845Y-54578072D01*
X83693345Y-54659536D01*
X83750502Y-54737957D01*
X83803755Y-54811204D01*
X83851543Y-54877147D01*
X83892307Y-54933654D01*
X83924484Y-54978593D01*
X83946515Y-55009834D01*
X83951083Y-55016466D01*
X83974004Y-55053369D01*
X84000812Y-55101359D01*
X84026211Y-55150897D01*
X84029432Y-55157577D01*
X84051110Y-55205772D01*
X84063696Y-55243334D01*
X84069426Y-55279160D01*
X84070544Y-55321200D01*
X84069910Y-55397400D01*
X85224349Y-55397400D01*
X85133185Y-55303669D01*
X85086388Y-55253775D01*
X85036101Y-55197295D01*
X84990056Y-55143026D01*
X84969631Y-55117673D01*
X84939193Y-55078128D01*
X84899138Y-55024916D01*
X84850639Y-54959667D01*
X84794865Y-54884011D01*
X84732989Y-54799577D01*
X84666181Y-54707994D01*
X84595613Y-54610892D01*
X84522455Y-54509901D01*
X84447879Y-54406650D01*
X84373056Y-54302768D01*
X84299157Y-54199885D01*
X84227354Y-54099631D01*
X84158816Y-54003636D01*
X84094716Y-53913527D01*
X84036225Y-53830936D01*
X83984514Y-53757492D01*
X83940753Y-53694824D01*
X83906115Y-53644561D01*
X83881770Y-53608334D01*
X83868889Y-53587771D01*
X83867131Y-53583668D01*
X83875090Y-53572342D01*
X83895885Y-53545162D01*
X83928153Y-53503829D01*
X83970530Y-53450044D01*
X84021653Y-53385506D01*
X84080159Y-53311918D01*
X84144686Y-53230978D01*
X84213869Y-53144388D01*
X84286347Y-53053848D01*
X84360754Y-52961060D01*
X84420483Y-52886702D01*
X85431489Y-52886702D01*
X85437398Y-52899659D01*
X85451728Y-52921908D01*
X85452775Y-52923391D01*
X85471562Y-52953544D01*
X85491209Y-52990375D01*
X85495108Y-52998511D01*
X85498644Y-53006940D01*
X85501770Y-53017059D01*
X85504514Y-53030260D01*
X85506908Y-53047938D01*
X85508981Y-53071484D01*
X85510765Y-53102293D01*
X85512288Y-53141757D01*
X85513581Y-53191269D01*
X85514674Y-53252223D01*
X85515597Y-53326011D01*
X85516381Y-53414028D01*
X85517055Y-53517665D01*
X85517650Y-53638316D01*
X85518195Y-53777374D01*
X85518721Y-53936232D01*
X85519255Y-54115089D01*
X85519794Y-54300207D01*
X85520228Y-54464145D01*
X85520491Y-54608303D01*
X85520516Y-54734079D01*
X85520235Y-54842871D01*
X85519581Y-54936077D01*
X85518486Y-55015097D01*
X85516882Y-55081328D01*
X85514703Y-55136170D01*
X85511881Y-55181021D01*
X85508349Y-55217278D01*
X85504039Y-55246341D01*
X85498883Y-55269609D01*
X85492815Y-55288479D01*
X85485767Y-55304351D01*
X85477671Y-55318622D01*
X85468460Y-55332691D01*
X85459960Y-55345158D01*
X85442824Y-55371452D01*
X85432678Y-55389037D01*
X85431489Y-55392257D01*
X85442396Y-55393334D01*
X85473589Y-55394335D01*
X85522777Y-55395235D01*
X85587667Y-55396010D01*
X85665970Y-55396637D01*
X85755393Y-55397091D01*
X85853644Y-55397349D01*
X85922555Y-55397400D01*
X86027548Y-55397180D01*
X86124390Y-55396548D01*
X86210893Y-55395549D01*
X86284868Y-55394227D01*
X86344126Y-55392626D01*
X86386480Y-55390791D01*
X86409740Y-55388765D01*
X86413622Y-55387493D01*
X86405924Y-55372591D01*
X86397926Y-55364560D01*
X86384754Y-55347434D01*
X86367515Y-55317183D01*
X86355593Y-55292622D01*
X86328955Y-55233711D01*
X86325880Y-54056845D01*
X86322805Y-52879978D01*
X85877147Y-52879978D01*
X85779330Y-52880142D01*
X85688936Y-52880611D01*
X85608370Y-52881347D01*
X85540038Y-52882316D01*
X85486344Y-52883480D01*
X85449695Y-52884803D01*
X85432496Y-52886249D01*
X85431489Y-52886702D01*
X84420483Y-52886702D01*
X84435730Y-52867722D01*
X84509910Y-52775537D01*
X84581931Y-52686204D01*
X84650431Y-52601424D01*
X84714045Y-52522898D01*
X84771412Y-52452326D01*
X84821167Y-52391409D01*
X84861948Y-52341847D01*
X84879112Y-52321178D01*
X84965404Y-52220516D01*
X85042003Y-52137259D01*
X85110817Y-52069438D01*
X85173752Y-52015089D01*
X85183133Y-52007722D01*
X85222644Y-51977117D01*
X84090884Y-51976867D01*
X84096173Y-52024844D01*
X84092870Y-52082188D01*
X84071339Y-52150463D01*
X84031365Y-52230212D01*
X83986057Y-52302495D01*
X83969839Y-52325140D01*
X83941786Y-52362696D01*
X83903570Y-52413021D01*
X83856863Y-52473973D01*
X83803339Y-52543411D01*
X83744669Y-52619194D01*
X83682525Y-52699180D01*
X83618579Y-52781228D01*
X83554505Y-52863196D01*
X83491973Y-52942943D01*
X83432657Y-53018327D01*
X83378229Y-53087207D01*
X83330361Y-53147442D01*
X83290725Y-53196889D01*
X83260994Y-53233408D01*
X83242839Y-53254858D01*
X83239780Y-53258156D01*
X83236921Y-53250149D01*
X83234707Y-53219855D01*
X83233143Y-53167556D01*
X83232233Y-53093531D01*
X83231980Y-52998063D01*
X83232387Y-52881434D01*
X83233296Y-52761445D01*
X83234618Y-52629333D01*
X83236143Y-52517594D01*
X83238119Y-52424025D01*
X83240794Y-52346419D01*
X83244418Y-52282574D01*
X83249239Y-52230283D01*
X83255506Y-52187344D01*
X83263468Y-52151551D01*
X83273373Y-52120700D01*
X83285469Y-52092586D01*
X83300007Y-52065005D01*
X83314689Y-52039966D01*
X83352686Y-51976867D01*
X82292803Y-51976867D01*
X81989966Y-51976867D01*
X81989999Y-51970617D01*
X81990805Y-51868544D01*
X81991830Y-51779633D01*
X81993100Y-51702941D01*
X81994640Y-51637527D01*
X81996476Y-51582449D01*
X81998633Y-51536765D01*
X82001137Y-51499534D01*
X82004013Y-51469813D01*
X82007287Y-51446662D01*
X82010985Y-51429139D01*
X82015131Y-51416301D01*
X82019753Y-51407208D01*
X82024874Y-51400918D01*
X82030522Y-51396488D01*
X82036721Y-51392978D01*
X82043496Y-51389445D01*
X82049492Y-51385876D01*
X82054725Y-51383300D01*
X82062901Y-51380972D01*
X82075114Y-51378878D01*
X82092459Y-51377007D01*
X82116031Y-51375347D01*
X82146923Y-51373884D01*
X82186232Y-51372608D01*
X82235050Y-51371504D01*
X82294473Y-51370561D01*
X82365596Y-51369767D01*
X82449512Y-51369109D01*
X82547317Y-51368575D01*
X82660106Y-51368153D01*
X82788971Y-51367829D01*
X82935009Y-51367592D01*
X83099314Y-51367430D01*
X83282980Y-51367330D01*
X83487103Y-51367280D01*
X83698247Y-51367267D01*
X85318600Y-51367267D01*
X85318600Y-51464054D01*
G36*
X88495343Y-56244260D02*
G01*
X88571701Y-56245174D01*
X88630217Y-56247311D01*
X88673255Y-56251175D01*
X88703183Y-56257267D01*
X88722368Y-56266090D01*
X88733176Y-56278146D01*
X88737973Y-56293939D01*
X88739127Y-56313970D01*
X88739133Y-56316335D01*
X88738131Y-56338992D01*
X88733396Y-56356503D01*
X88722333Y-56369574D01*
X88702348Y-56378913D01*
X88670846Y-56385227D01*
X88625232Y-56389222D01*
X88562913Y-56391606D01*
X88481293Y-56393086D01*
X88456277Y-56393414D01*
X88214200Y-56396467D01*
X88210814Y-56461378D01*
X88207429Y-56526289D01*
X88375576Y-56526289D01*
X88441266Y-56526531D01*
X88488172Y-56527556D01*
X88520083Y-56529811D01*
X88540791Y-56533742D01*
X88554084Y-56539798D01*
X88563755Y-56548424D01*
X88563817Y-56548493D01*
X88581356Y-56582112D01*
X88580722Y-56618448D01*
X88562314Y-56649423D01*
X88558671Y-56652607D01*
X88545741Y-56660812D01*
X88528024Y-56666521D01*
X88501570Y-56670162D01*
X88462432Y-56672167D01*
X88406662Y-56672964D01*
X88370994Y-56673045D01*
X88208555Y-56673045D01*
X88208555Y-56831089D01*
X88455161Y-56831089D01*
X88536580Y-56831231D01*
X88598410Y-56831814D01*
X88643637Y-56833068D01*
X88675248Y-56835227D01*
X88696231Y-56838523D01*
X88709573Y-56843189D01*
X88718261Y-56849457D01*
X88720450Y-56851733D01*
X88736614Y-56883280D01*
X88737797Y-56919168D01*
X88724536Y-56950285D01*
X88714043Y-56960271D01*
X88703129Y-56965769D01*
X88686217Y-56970022D01*
X88660633Y-56973180D01*
X88623701Y-56975392D01*
X88572746Y-56976806D01*
X88505094Y-56977572D01*
X88418069Y-56977838D01*
X88398394Y-56977845D01*
X88309911Y-56977787D01*
X88241227Y-56977467D01*
X88189564Y-56976667D01*
X88152145Y-56975167D01*
X88126190Y-56972749D01*
X88108922Y-56969194D01*
X88097562Y-56964282D01*
X88089332Y-56957795D01*
X88084817Y-56953138D01*
X88078021Y-56944889D01*
X88072712Y-56934669D01*
X88068706Y-56919800D01*
X88065821Y-56897602D01*
X88063874Y-56865393D01*
X88062681Y-56820496D01*
X88062061Y-56760228D01*
X88061829Y-56681911D01*
X88061800Y-56615994D01*
X88061871Y-56523628D01*
X88062208Y-56451117D01*
X88062998Y-56395737D01*
X88064426Y-56354765D01*
X88066679Y-56325478D01*
X88069943Y-56305153D01*
X88074404Y-56291066D01*
X88080248Y-56280495D01*
X88085197Y-56273811D01*
X88108594Y-56244067D01*
X88398774Y-56244067D01*
X88495343Y-56244260D01*
G37*
X88495343Y-56244260D02*
X88571701Y-56245174D01*
X88630217Y-56247311D01*
X88673255Y-56251175D01*
X88703183Y-56257267D01*
X88722368Y-56266090D01*
X88733176Y-56278146D01*
X88737973Y-56293939D01*
X88739127Y-56313970D01*
X88739133Y-56316335D01*
X88738131Y-56338992D01*
X88733396Y-56356503D01*
X88722333Y-56369574D01*
X88702348Y-56378913D01*
X88670846Y-56385227D01*
X88625232Y-56389222D01*
X88562913Y-56391606D01*
X88481293Y-56393086D01*
X88456277Y-56393414D01*
X88214200Y-56396467D01*
X88210814Y-56461378D01*
X88207429Y-56526289D01*
X88375576Y-56526289D01*
X88441266Y-56526531D01*
X88488172Y-56527556D01*
X88520083Y-56529811D01*
X88540791Y-56533742D01*
X88554084Y-56539798D01*
X88563755Y-56548424D01*
X88563817Y-56548493D01*
X88581356Y-56582112D01*
X88580722Y-56618448D01*
X88562314Y-56649423D01*
X88558671Y-56652607D01*
X88545741Y-56660812D01*
X88528024Y-56666521D01*
X88501570Y-56670162D01*
X88462432Y-56672167D01*
X88406662Y-56672964D01*
X88370994Y-56673045D01*
X88208555Y-56673045D01*
X88208555Y-56831089D01*
X88455161Y-56831089D01*
X88536580Y-56831231D01*
X88598410Y-56831814D01*
X88643637Y-56833068D01*
X88675248Y-56835227D01*
X88696231Y-56838523D01*
X88709573Y-56843189D01*
X88718261Y-56849457D01*
X88720450Y-56851733D01*
X88736614Y-56883280D01*
X88737797Y-56919168D01*
X88724536Y-56950285D01*
X88714043Y-56960271D01*
X88703129Y-56965769D01*
X88686217Y-56970022D01*
X88660633Y-56973180D01*
X88623701Y-56975392D01*
X88572746Y-56976806D01*
X88505094Y-56977572D01*
X88418069Y-56977838D01*
X88398394Y-56977845D01*
X88309911Y-56977787D01*
X88241227Y-56977467D01*
X88189564Y-56976667D01*
X88152145Y-56975167D01*
X88126190Y-56972749D01*
X88108922Y-56969194D01*
X88097562Y-56964282D01*
X88089332Y-56957795D01*
X88084817Y-56953138D01*
X88078021Y-56944889D01*
X88072712Y-56934669D01*
X88068706Y-56919800D01*
X88065821Y-56897602D01*
X88063874Y-56865393D01*
X88062681Y-56820496D01*
X88062061Y-56760228D01*
X88061829Y-56681911D01*
X88061800Y-56615994D01*
X88061871Y-56523628D01*
X88062208Y-56451117D01*
X88062998Y-56395737D01*
X88064426Y-56354765D01*
X88066679Y-56325478D01*
X88069943Y-56305153D01*
X88074404Y-56291066D01*
X88080248Y-56280495D01*
X88085197Y-56273811D01*
X88108594Y-56244067D01*
X88398774Y-56244067D01*
X88495343Y-56244260D01*
G36*
X81994002Y-56320055D02*
G01*
X82002170Y-56286778D01*
X82015444Y-56264759D01*
X82035026Y-56251739D01*
X82062117Y-56245457D01*
X82097918Y-56243653D01*
X82143629Y-56244066D01*
X82183111Y-56244467D01*
X82298800Y-56247259D01*
X82395689Y-56255550D01*
X82477081Y-56270232D01*
X82546277Y-56292193D01*
X82606580Y-56322322D01*
X82661292Y-56361510D01*
X82680833Y-56378532D01*
X82713250Y-56418363D01*
X82742480Y-56472413D01*
X82765009Y-56532323D01*
X82777321Y-56589739D01*
X82778600Y-56610956D01*
X82770583Y-56669769D01*
X82749101Y-56734013D01*
X82718001Y-56794821D01*
X82681134Y-56843330D01*
X82675146Y-56849182D01*
X82624421Y-56890321D01*
X82568875Y-56922435D01*
X82505304Y-56946365D01*
X82430506Y-56962953D01*
X82341278Y-56973041D01*
X82234418Y-56977469D01*
X82185472Y-56977845D01*
X82123238Y-56977545D01*
X82079472Y-56976292D01*
X82050069Y-56973554D01*
X82030921Y-56968801D01*
X82017923Y-56961501D01*
X82010955Y-56955267D01*
X82004374Y-56947694D01*
X81999212Y-56937924D01*
X81995297Y-56923340D01*
X81992457Y-56901326D01*
X81990520Y-56869264D01*
X81989492Y-56831089D01*
X82135133Y-56831089D01*
X82228266Y-56831004D01*
X82284307Y-56829396D01*
X82343001Y-56825256D01*
X82391972Y-56819464D01*
X82393462Y-56819226D01*
X82472608Y-56800090D01*
X82533998Y-56770287D01*
X82580695Y-56727878D01*
X82610365Y-56681961D01*
X82628647Y-56631026D01*
X82627229Y-56583200D01*
X82606012Y-56531933D01*
X82564511Y-56478899D01*
X82507002Y-56439600D01*
X82432250Y-56413331D01*
X82382292Y-56404035D01*
X82325584Y-56397507D01*
X82265481Y-56392782D01*
X82214361Y-56390817D01*
X82211333Y-56390808D01*
X82135133Y-56390822D01*
X82135133Y-56831089D01*
X81989492Y-56831089D01*
X81989316Y-56824536D01*
X81988672Y-56764526D01*
X81988417Y-56686617D01*
X81988378Y-56610956D01*
X81988130Y-56510041D01*
X81988183Y-56429427D01*
X81989143Y-56390822D01*
X81989740Y-56366851D01*
X81994002Y-56320055D01*
G37*
X81994002Y-56320055D02*
X82002170Y-56286778D01*
X82015444Y-56264759D01*
X82035026Y-56251739D01*
X82062117Y-56245457D01*
X82097918Y-56243653D01*
X82143629Y-56244066D01*
X82183111Y-56244467D01*
X82298800Y-56247259D01*
X82395689Y-56255550D01*
X82477081Y-56270232D01*
X82546277Y-56292193D01*
X82606580Y-56322322D01*
X82661292Y-56361510D01*
X82680833Y-56378532D01*
X82713250Y-56418363D01*
X82742480Y-56472413D01*
X82765009Y-56532323D01*
X82777321Y-56589739D01*
X82778600Y-56610956D01*
X82770583Y-56669769D01*
X82749101Y-56734013D01*
X82718001Y-56794821D01*
X82681134Y-56843330D01*
X82675146Y-56849182D01*
X82624421Y-56890321D01*
X82568875Y-56922435D01*
X82505304Y-56946365D01*
X82430506Y-56962953D01*
X82341278Y-56973041D01*
X82234418Y-56977469D01*
X82185472Y-56977845D01*
X82123238Y-56977545D01*
X82079472Y-56976292D01*
X82050069Y-56973554D01*
X82030921Y-56968801D01*
X82017923Y-56961501D01*
X82010955Y-56955267D01*
X82004374Y-56947694D01*
X81999212Y-56937924D01*
X81995297Y-56923340D01*
X81992457Y-56901326D01*
X81990520Y-56869264D01*
X81989492Y-56831089D01*
X82135133Y-56831089D01*
X82228266Y-56831004D01*
X82284307Y-56829396D01*
X82343001Y-56825256D01*
X82391972Y-56819464D01*
X82393462Y-56819226D01*
X82472608Y-56800090D01*
X82533998Y-56770287D01*
X82580695Y-56727878D01*
X82610365Y-56681961D01*
X82628647Y-56631026D01*
X82627229Y-56583200D01*
X82606012Y-56531933D01*
X82564511Y-56478899D01*
X82507002Y-56439600D01*
X82432250Y-56413331D01*
X82382292Y-56404035D01*
X82325584Y-56397507D01*
X82265481Y-56392782D01*
X82214361Y-56390817D01*
X82211333Y-56390808D01*
X82135133Y-56390822D01*
X82135133Y-56831089D01*
X81989492Y-56831089D01*
X81989316Y-56824536D01*
X81988672Y-56764526D01*
X81988417Y-56686617D01*
X81988378Y-56610956D01*
X81988130Y-56510041D01*
X81988183Y-56429427D01*
X81989143Y-56390822D01*
X81989740Y-56366851D01*
X81994002Y-56320055D01*
G36*
X92453614Y-56250877D02*
G01*
X92477327Y-56265647D01*
X92503978Y-56287227D01*
X92503978Y-56608773D01*
X92503893Y-56702830D01*
X92503529Y-56776932D01*
X92502724Y-56833704D01*
X92501313Y-56875768D01*
X92499133Y-56905748D01*
X92496021Y-56926267D01*
X92491814Y-56939949D01*
X92486348Y-56949416D01*
X92482472Y-56954082D01*
X92451034Y-56974575D01*
X92415233Y-56973739D01*
X92383873Y-56956264D01*
X92357222Y-56934684D01*
X92357222Y-56287227D01*
X92383873Y-56265647D01*
X92409594Y-56249949D01*
X92430600Y-56244067D01*
X92453614Y-56250877D01*
G37*
X92453614Y-56250877D02*
X92477327Y-56265647D01*
X92503978Y-56287227D01*
X92503978Y-56608773D01*
X92503893Y-56702830D01*
X92503529Y-56776932D01*
X92502724Y-56833704D01*
X92501313Y-56875768D01*
X92499133Y-56905748D01*
X92496021Y-56926267D01*
X92491814Y-56939949D01*
X92486348Y-56949416D01*
X92482472Y-56954082D01*
X92451034Y-56974575D01*
X92415233Y-56973739D01*
X92383873Y-56956264D01*
X92357222Y-56934684D01*
X92357222Y-56287227D01*
X92383873Y-56265647D01*
X92409594Y-56249949D01*
X92430600Y-56244067D01*
X92453614Y-56250877D01*
G36*
X89547522Y-54445812D02*
G01*
X89563768Y-54374590D01*
X89589405Y-54303864D01*
X89613401Y-54251493D01*
X89672020Y-54156196D01*
X89750117Y-54068170D01*
X89845315Y-53989017D01*
X89955238Y-53920340D01*
X90077510Y-53863741D01*
X90209755Y-53820821D01*
X90274422Y-53805882D01*
X90410604Y-53783777D01*
X90559049Y-53769194D01*
X90710505Y-53762813D01*
X90837064Y-53764445D01*
X90998950Y-53771224D01*
X90991530Y-53712245D01*
X90972238Y-53613092D01*
X90941104Y-53532372D01*
X90897269Y-53469466D01*
X90839871Y-53423756D01*
X90768048Y-53394622D01*
X90680941Y-53381447D01*
X90577686Y-53383611D01*
X90539711Y-53387612D01*
X90398520Y-53412780D01*
X90261707Y-53453814D01*
X90167178Y-53491815D01*
X90122018Y-53511190D01*
X90083585Y-53526760D01*
X90057234Y-53536405D01*
X90049546Y-53538452D01*
X90039802Y-53529374D01*
X90023083Y-53500405D01*
X89999232Y-53451217D01*
X89968093Y-53381484D01*
X89929507Y-53290879D01*
X89922910Y-53275089D01*
X89892853Y-53202772D01*
X89865874Y-53137425D01*
X89843136Y-53081906D01*
X89825806Y-53039072D01*
X89815048Y-53011781D01*
X89811941Y-53002942D01*
X89821940Y-52998187D01*
X89848217Y-52992910D01*
X89876489Y-52989231D01*
X89906646Y-52984474D01*
X89954433Y-52975028D01*
X90015612Y-52961820D01*
X90085946Y-52945776D01*
X90161194Y-52927820D01*
X90189755Y-52920797D01*
X90294816Y-52895209D01*
X90382480Y-52875147D01*
X90457068Y-52859969D01*
X90522903Y-52849035D01*
X90584307Y-52841704D01*
X90645602Y-52837335D01*
X90711110Y-52835287D01*
X90769128Y-52834889D01*
X90938574Y-52841552D01*
X91090492Y-52861567D01*
X91225756Y-52895202D01*
X91345239Y-52942725D01*
X91449815Y-53004405D01*
X91527424Y-53067965D01*
X91596265Y-53142099D01*
X91650006Y-53221871D01*
X91692910Y-53314091D01*
X91708384Y-53357161D01*
X91721244Y-53396142D01*
X91732446Y-53432289D01*
X91742120Y-53467434D01*
X91750396Y-53503410D01*
X91757403Y-53542050D01*
X91763272Y-53585185D01*
X91768131Y-53634649D01*
X91772110Y-53692273D01*
X91775340Y-53759891D01*
X91777949Y-53839334D01*
X91780067Y-53932436D01*
X91781824Y-54041027D01*
X91783349Y-54166942D01*
X91784772Y-54312012D01*
X91786025Y-54454778D01*
X91787351Y-54610968D01*
X91788556Y-54746239D01*
X91789766Y-54862246D01*
X91791106Y-54960645D01*
X91792700Y-55043093D01*
X91794675Y-55111246D01*
X91797156Y-55166760D01*
X91800269Y-55211292D01*
X91804138Y-55246498D01*
X91808889Y-55274034D01*
X91814648Y-55295556D01*
X91821539Y-55312722D01*
X91829689Y-55327186D01*
X91839223Y-55340606D01*
X91850266Y-55354638D01*
X91854566Y-55360071D01*
X91870386Y-55382910D01*
X91877422Y-55398463D01*
X91877444Y-55398922D01*
X91866567Y-55401121D01*
X91835582Y-55403147D01*
X91786957Y-55404942D01*
X91723163Y-55406451D01*
X91646669Y-55407616D01*
X91559944Y-55408380D01*
X91465457Y-55408686D01*
X91454550Y-55408689D01*
X91031657Y-55408689D01*
X91028395Y-55312622D01*
X91025133Y-55216556D01*
X90963044Y-55267543D01*
X90865714Y-55335057D01*
X90755813Y-55389749D01*
X90669349Y-55419978D01*
X90600278Y-55434666D01*
X90516925Y-55444659D01*
X90427159Y-55449646D01*
X90338845Y-55449313D01*
X90259851Y-55443351D01*
X90223622Y-55437638D01*
X90083603Y-55399776D01*
X89957178Y-55344932D01*
X89845260Y-55273924D01*
X89748762Y-55187568D01*
X89668600Y-55086679D01*
X89605687Y-54972076D01*
X89561312Y-54845984D01*
X89548978Y-54789401D01*
X89541368Y-54727202D01*
X89537739Y-54652363D01*
X89537245Y-54618467D01*
X89537310Y-54615282D01*
X90297248Y-54615282D01*
X90306541Y-54690333D01*
X90334728Y-54754160D01*
X90383197Y-54809798D01*
X90388254Y-54814211D01*
X90436548Y-54849037D01*
X90488257Y-54871620D01*
X90548989Y-54883540D01*
X90624352Y-54886383D01*
X90642459Y-54885978D01*
X90696278Y-54883325D01*
X90736308Y-54877909D01*
X90771324Y-54867745D01*
X90810103Y-54850850D01*
X90820745Y-54845672D01*
X90881396Y-54809844D01*
X90928215Y-54767212D01*
X90940952Y-54751973D01*
X90985622Y-54695462D01*
X90985622Y-54499586D01*
X90985086Y-54420939D01*
X90983396Y-54362988D01*
X90980428Y-54323875D01*
X90976057Y-54301741D01*
X90971972Y-54295274D01*
X90956047Y-54292111D01*
X90922264Y-54289488D01*
X90875340Y-54287655D01*
X90819993Y-54286857D01*
X90811106Y-54286842D01*
X90690330Y-54292096D01*
X90587660Y-54308263D01*
X90501106Y-54335961D01*
X90428681Y-54375808D01*
X90373751Y-54422758D01*
X90329204Y-54480645D01*
X90304480Y-54543693D01*
X90297248Y-54615282D01*
X89537310Y-54615282D01*
X89539178Y-54524712D01*
X89547522Y-54445812D01*
G37*
X89547522Y-54445812D02*
X89563768Y-54374590D01*
X89589405Y-54303864D01*
X89613401Y-54251493D01*
X89672020Y-54156196D01*
X89750117Y-54068170D01*
X89845315Y-53989017D01*
X89955238Y-53920340D01*
X90077510Y-53863741D01*
X90209755Y-53820821D01*
X90274422Y-53805882D01*
X90410604Y-53783777D01*
X90559049Y-53769194D01*
X90710505Y-53762813D01*
X90837064Y-53764445D01*
X90998950Y-53771224D01*
X90991530Y-53712245D01*
X90972238Y-53613092D01*
X90941104Y-53532372D01*
X90897269Y-53469466D01*
X90839871Y-53423756D01*
X90768048Y-53394622D01*
X90680941Y-53381447D01*
X90577686Y-53383611D01*
X90539711Y-53387612D01*
X90398520Y-53412780D01*
X90261707Y-53453814D01*
X90167178Y-53491815D01*
X90122018Y-53511190D01*
X90083585Y-53526760D01*
X90057234Y-53536405D01*
X90049546Y-53538452D01*
X90039802Y-53529374D01*
X90023083Y-53500405D01*
X89999232Y-53451217D01*
X89968093Y-53381484D01*
X89929507Y-53290879D01*
X89922910Y-53275089D01*
X89892853Y-53202772D01*
X89865874Y-53137425D01*
X89843136Y-53081906D01*
X89825806Y-53039072D01*
X89815048Y-53011781D01*
X89811941Y-53002942D01*
X89821940Y-52998187D01*
X89848217Y-52992910D01*
X89876489Y-52989231D01*
X89906646Y-52984474D01*
X89954433Y-52975028D01*
X90015612Y-52961820D01*
X90085946Y-52945776D01*
X90161194Y-52927820D01*
X90189755Y-52920797D01*
X90294816Y-52895209D01*
X90382480Y-52875147D01*
X90457068Y-52859969D01*
X90522903Y-52849035D01*
X90584307Y-52841704D01*
X90645602Y-52837335D01*
X90711110Y-52835287D01*
X90769128Y-52834889D01*
X90938574Y-52841552D01*
X91090492Y-52861567D01*
X91225756Y-52895202D01*
X91345239Y-52942725D01*
X91449815Y-53004405D01*
X91527424Y-53067965D01*
X91596265Y-53142099D01*
X91650006Y-53221871D01*
X91692910Y-53314091D01*
X91708384Y-53357161D01*
X91721244Y-53396142D01*
X91732446Y-53432289D01*
X91742120Y-53467434D01*
X91750396Y-53503410D01*
X91757403Y-53542050D01*
X91763272Y-53585185D01*
X91768131Y-53634649D01*
X91772110Y-53692273D01*
X91775340Y-53759891D01*
X91777949Y-53839334D01*
X91780067Y-53932436D01*
X91781824Y-54041027D01*
X91783349Y-54166942D01*
X91784772Y-54312012D01*
X91786025Y-54454778D01*
X91787351Y-54610968D01*
X91788556Y-54746239D01*
X91789766Y-54862246D01*
X91791106Y-54960645D01*
X91792700Y-55043093D01*
X91794675Y-55111246D01*
X91797156Y-55166760D01*
X91800269Y-55211292D01*
X91804138Y-55246498D01*
X91808889Y-55274034D01*
X91814648Y-55295556D01*
X91821539Y-55312722D01*
X91829689Y-55327186D01*
X91839223Y-55340606D01*
X91850266Y-55354638D01*
X91854566Y-55360071D01*
X91870386Y-55382910D01*
X91877422Y-55398463D01*
X91877444Y-55398922D01*
X91866567Y-55401121D01*
X91835582Y-55403147D01*
X91786957Y-55404942D01*
X91723163Y-55406451D01*
X91646669Y-55407616D01*
X91559944Y-55408380D01*
X91465457Y-55408686D01*
X91454550Y-55408689D01*
X91031657Y-55408689D01*
X91028395Y-55312622D01*
X91025133Y-55216556D01*
X90963044Y-55267543D01*
X90865714Y-55335057D01*
X90755813Y-55389749D01*
X90669349Y-55419978D01*
X90600278Y-55434666D01*
X90516925Y-55444659D01*
X90427159Y-55449646D01*
X90338845Y-55449313D01*
X90259851Y-55443351D01*
X90223622Y-55437638D01*
X90083603Y-55399776D01*
X89957178Y-55344932D01*
X89845260Y-55273924D01*
X89748762Y-55187568D01*
X89668600Y-55086679D01*
X89605687Y-54972076D01*
X89561312Y-54845984D01*
X89548978Y-54789401D01*
X89541368Y-54727202D01*
X89537739Y-54652363D01*
X89537245Y-54618467D01*
X89537310Y-54615282D01*
X90297248Y-54615282D01*
X90306541Y-54690333D01*
X90334728Y-54754160D01*
X90383197Y-54809798D01*
X90388254Y-54814211D01*
X90436548Y-54849037D01*
X90488257Y-54871620D01*
X90548989Y-54883540D01*
X90624352Y-54886383D01*
X90642459Y-54885978D01*
X90696278Y-54883325D01*
X90736308Y-54877909D01*
X90771324Y-54867745D01*
X90810103Y-54850850D01*
X90820745Y-54845672D01*
X90881396Y-54809844D01*
X90928215Y-54767212D01*
X90940952Y-54751973D01*
X90985622Y-54695462D01*
X90985622Y-54499586D01*
X90985086Y-54420939D01*
X90983396Y-54362988D01*
X90980428Y-54323875D01*
X90976057Y-54301741D01*
X90971972Y-54295274D01*
X90956047Y-54292111D01*
X90922264Y-54289488D01*
X90875340Y-54287655D01*
X90819993Y-54286857D01*
X90811106Y-54286842D01*
X90690330Y-54292096D01*
X90587660Y-54308263D01*
X90501106Y-54335961D01*
X90428681Y-54375808D01*
X90373751Y-54422758D01*
X90329204Y-54480645D01*
X90304480Y-54543693D01*
X90297248Y-54615282D01*
X89537310Y-54615282D01*
X89539178Y-54524712D01*
X89547522Y-54445812D01*
G36*
X94493823Y-56249533D02*
G01*
X94525202Y-56271776D01*
X94552911Y-56299485D01*
X94552911Y-56608920D01*
X94552838Y-56700799D01*
X94552495Y-56772840D01*
X94551692Y-56827780D01*
X94550241Y-56868360D01*
X94547952Y-56897317D01*
X94544636Y-56917391D01*
X94540105Y-56931321D01*
X94534169Y-56941845D01*
X94529514Y-56948100D01*
X94498783Y-56972673D01*
X94463496Y-56975341D01*
X94431245Y-56960271D01*
X94420588Y-56951374D01*
X94413464Y-56939557D01*
X94409167Y-56920526D01*
X94406991Y-56889992D01*
X94406228Y-56843662D01*
X94406155Y-56807871D01*
X94406155Y-56673045D01*
X93909444Y-56673045D01*
X93909444Y-56795700D01*
X93908931Y-56851787D01*
X93906876Y-56890333D01*
X93902508Y-56916361D01*
X93895056Y-56934897D01*
X93886047Y-56948100D01*
X93855144Y-56972604D01*
X93820196Y-56975506D01*
X93786738Y-56958089D01*
X93777604Y-56948959D01*
X93771152Y-56936855D01*
X93766897Y-56918001D01*
X93764352Y-56888620D01*
X93763029Y-56844937D01*
X93762443Y-56783175D01*
X93762375Y-56769000D01*
X93761891Y-56652631D01*
X93761641Y-56556727D01*
X93761723Y-56479177D01*
X93762231Y-56417869D01*
X93763262Y-56370690D01*
X93764913Y-56335530D01*
X93767279Y-56310276D01*
X93770457Y-56292817D01*
X93774544Y-56281041D01*
X93779634Y-56272835D01*
X93785266Y-56266645D01*
X93817128Y-56246844D01*
X93850357Y-56249533D01*
X93881735Y-56271776D01*
X93894433Y-56286126D01*
X93902526Y-56301978D01*
X93907042Y-56324554D01*
X93909006Y-56359078D01*
X93909444Y-56410776D01*
X93909444Y-56526289D01*
X94406155Y-56526289D01*
X94406155Y-56407756D01*
X94406662Y-56353148D01*
X94408698Y-56316275D01*
X94413035Y-56292307D01*
X94420447Y-56276415D01*
X94428733Y-56266645D01*
X94460594Y-56246844D01*
X94493823Y-56249533D01*
G37*
X94493823Y-56249533D02*
X94525202Y-56271776D01*
X94552911Y-56299485D01*
X94552911Y-56608920D01*
X94552838Y-56700799D01*
X94552495Y-56772840D01*
X94551692Y-56827780D01*
X94550241Y-56868360D01*
X94547952Y-56897317D01*
X94544636Y-56917391D01*
X94540105Y-56931321D01*
X94534169Y-56941845D01*
X94529514Y-56948100D01*
X94498783Y-56972673D01*
X94463496Y-56975341D01*
X94431245Y-56960271D01*
X94420588Y-56951374D01*
X94413464Y-56939557D01*
X94409167Y-56920526D01*
X94406991Y-56889992D01*
X94406228Y-56843662D01*
X94406155Y-56807871D01*
X94406155Y-56673045D01*
X93909444Y-56673045D01*
X93909444Y-56795700D01*
X93908931Y-56851787D01*
X93906876Y-56890333D01*
X93902508Y-56916361D01*
X93895056Y-56934897D01*
X93886047Y-56948100D01*
X93855144Y-56972604D01*
X93820196Y-56975506D01*
X93786738Y-56958089D01*
X93777604Y-56948959D01*
X93771152Y-56936855D01*
X93766897Y-56918001D01*
X93764352Y-56888620D01*
X93763029Y-56844937D01*
X93762443Y-56783175D01*
X93762375Y-56769000D01*
X93761891Y-56652631D01*
X93761641Y-56556727D01*
X93761723Y-56479177D01*
X93762231Y-56417869D01*
X93763262Y-56370690D01*
X93764913Y-56335530D01*
X93767279Y-56310276D01*
X93770457Y-56292817D01*
X93774544Y-56281041D01*
X93779634Y-56272835D01*
X93785266Y-56266645D01*
X93817128Y-56246844D01*
X93850357Y-56249533D01*
X93881735Y-56271776D01*
X93894433Y-56286126D01*
X93902526Y-56301978D01*
X93907042Y-56324554D01*
X93909006Y-56359078D01*
X93909444Y-56410776D01*
X93909444Y-56526289D01*
X94406155Y-56526289D01*
X94406155Y-56407756D01*
X94406662Y-56353148D01*
X94408698Y-56316275D01*
X94413035Y-56292307D01*
X94420447Y-56276415D01*
X94428733Y-56266645D01*
X94460594Y-56246844D01*
X94493823Y-56249533D01*
G36*
X92009665Y-56246034D02*
G01*
X92029255Y-56253035D01*
X92030010Y-56253377D01*
X92056613Y-56273678D01*
X92071270Y-56294561D01*
X92074138Y-56304352D01*
X92073996Y-56317361D01*
X92069961Y-56335895D01*
X92061146Y-56362257D01*
X92046669Y-56398752D01*
X92025645Y-56447687D01*
X91997188Y-56511365D01*
X91960415Y-56592093D01*
X91940175Y-56636216D01*
X91903625Y-56714985D01*
X91869315Y-56787423D01*
X91838552Y-56850880D01*
X91812648Y-56902708D01*
X91792910Y-56940259D01*
X91780650Y-56960884D01*
X91778224Y-56963733D01*
X91747183Y-56976302D01*
X91712121Y-56974619D01*
X91684000Y-56959332D01*
X91682854Y-56958089D01*
X91671668Y-56941154D01*
X91652904Y-56908170D01*
X91628875Y-56863380D01*
X91601897Y-56811032D01*
X91592201Y-56791742D01*
X91519014Y-56645150D01*
X91439240Y-56804393D01*
X91410767Y-56859415D01*
X91384350Y-56907132D01*
X91362148Y-56943893D01*
X91346319Y-56966044D01*
X91340954Y-56970741D01*
X91299257Y-56977102D01*
X91264849Y-56963733D01*
X91254728Y-56949446D01*
X91237214Y-56917692D01*
X91213735Y-56871597D01*
X91185720Y-56814285D01*
X91154599Y-56748880D01*
X91121799Y-56678507D01*
X91088750Y-56606291D01*
X91056881Y-56535355D01*
X91027619Y-56468825D01*
X91002395Y-56409826D01*
X90982636Y-56361481D01*
X90969772Y-56326915D01*
X90965231Y-56309253D01*
X90965277Y-56308613D01*
X90976326Y-56286388D01*
X90998410Y-56263753D01*
X90999710Y-56262768D01*
X91026853Y-56247425D01*
X91051958Y-56247574D01*
X91061368Y-56250466D01*
X91072834Y-56256718D01*
X91085010Y-56269014D01*
X91099357Y-56289908D01*
X91117336Y-56321949D01*
X91140407Y-56367688D01*
X91170030Y-56429677D01*
X91196745Y-56486898D01*
X91227480Y-56553226D01*
X91255021Y-56612874D01*
X91277938Y-56662725D01*
X91294798Y-56699664D01*
X91304173Y-56720573D01*
X91305540Y-56723845D01*
X91311689Y-56718497D01*
X91325822Y-56696109D01*
X91346057Y-56659946D01*
X91370515Y-56613277D01*
X91380248Y-56594022D01*
X91413217Y-56529004D01*
X91438643Y-56481654D01*
X91458612Y-56449219D01*
X91475210Y-56428946D01*
X91490524Y-56418082D01*
X91506640Y-56413875D01*
X91517143Y-56413400D01*
X91535670Y-56415042D01*
X91551904Y-56421831D01*
X91568035Y-56436566D01*
X91586251Y-56462044D01*
X91608739Y-56501061D01*
X91637689Y-56556414D01*
X91653662Y-56587903D01*
X91679570Y-56638087D01*
X91702167Y-56679704D01*
X91719458Y-56709242D01*
X91729450Y-56723189D01*
X91730809Y-56723770D01*
X91737261Y-56712793D01*
X91751708Y-56684290D01*
X91772703Y-56641244D01*
X91798797Y-56586638D01*
X91828546Y-56523454D01*
X91843180Y-56492071D01*
X91881250Y-56411078D01*
X91911905Y-56348756D01*
X91936737Y-56303071D01*
X91957337Y-56271989D01*
X91975298Y-56253478D01*
X91992210Y-56245504D01*
X92009665Y-56246034D01*
G37*
X92009665Y-56246034D02*
X92029255Y-56253035D01*
X92030010Y-56253377D01*
X92056613Y-56273678D01*
X92071270Y-56294561D01*
X92074138Y-56304352D01*
X92073996Y-56317361D01*
X92069961Y-56335895D01*
X92061146Y-56362257D01*
X92046669Y-56398752D01*
X92025645Y-56447687D01*
X91997188Y-56511365D01*
X91960415Y-56592093D01*
X91940175Y-56636216D01*
X91903625Y-56714985D01*
X91869315Y-56787423D01*
X91838552Y-56850880D01*
X91812648Y-56902708D01*
X91792910Y-56940259D01*
X91780650Y-56960884D01*
X91778224Y-56963733D01*
X91747183Y-56976302D01*
X91712121Y-56974619D01*
X91684000Y-56959332D01*
X91682854Y-56958089D01*
X91671668Y-56941154D01*
X91652904Y-56908170D01*
X91628875Y-56863380D01*
X91601897Y-56811032D01*
X91592201Y-56791742D01*
X91519014Y-56645150D01*
X91439240Y-56804393D01*
X91410767Y-56859415D01*
X91384350Y-56907132D01*
X91362148Y-56943893D01*
X91346319Y-56966044D01*
X91340954Y-56970741D01*
X91299257Y-56977102D01*
X91264849Y-56963733D01*
X91254728Y-56949446D01*
X91237214Y-56917692D01*
X91213735Y-56871597D01*
X91185720Y-56814285D01*
X91154599Y-56748880D01*
X91121799Y-56678507D01*
X91088750Y-56606291D01*
X91056881Y-56535355D01*
X91027619Y-56468825D01*
X91002395Y-56409826D01*
X90982636Y-56361481D01*
X90969772Y-56326915D01*
X90965231Y-56309253D01*
X90965277Y-56308613D01*
X90976326Y-56286388D01*
X90998410Y-56263753D01*
X90999710Y-56262768D01*
X91026853Y-56247425D01*
X91051958Y-56247574D01*
X91061368Y-56250466D01*
X91072834Y-56256718D01*
X91085010Y-56269014D01*
X91099357Y-56289908D01*
X91117336Y-56321949D01*
X91140407Y-56367688D01*
X91170030Y-56429677D01*
X91196745Y-56486898D01*
X91227480Y-56553226D01*
X91255021Y-56612874D01*
X91277938Y-56662725D01*
X91294798Y-56699664D01*
X91304173Y-56720573D01*
X91305540Y-56723845D01*
X91311689Y-56718497D01*
X91325822Y-56696109D01*
X91346057Y-56659946D01*
X91370515Y-56613277D01*
X91380248Y-56594022D01*
X91413217Y-56529004D01*
X91438643Y-56481654D01*
X91458612Y-56449219D01*
X91475210Y-56428946D01*
X91490524Y-56418082D01*
X91506640Y-56413875D01*
X91517143Y-56413400D01*
X91535670Y-56415042D01*
X91551904Y-56421831D01*
X91568035Y-56436566D01*
X91586251Y-56462044D01*
X91608739Y-56501061D01*
X91637689Y-56556414D01*
X91653662Y-56587903D01*
X91679570Y-56638087D01*
X91702167Y-56679704D01*
X91719458Y-56709242D01*
X91729450Y-56723189D01*
X91730809Y-56723770D01*
X91737261Y-56712793D01*
X91751708Y-56684290D01*
X91772703Y-56641244D01*
X91798797Y-56586638D01*
X91828546Y-56523454D01*
X91843180Y-56492071D01*
X91881250Y-56411078D01*
X91911905Y-56348756D01*
X91936737Y-56303071D01*
X91957337Y-56271989D01*
X91975298Y-56253478D01*
X91992210Y-56245504D01*
X92009665Y-56246034D01*
D13*
X127000000Y-100270000D02*
X128330000Y-100270000D01*
X128330000Y-100270000D02*
X128330000Y-101600000D01*
X123130000Y-100270000D02*
X123130000Y-102930000D01*
X125730000Y-102930000D02*
X123130000Y-102930000D01*
X125730000Y-100270000D02*
X123130000Y-100270000D01*
X125730000Y-100270000D02*
X125730000Y-102930000D01*
X126477500Y-78502742D02*
X126477500Y-78977258D01*
X127522500Y-78502742D02*
X127522500Y-78977258D01*
X133370000Y-71120000D02*
X133370000Y-69170000D01*
X143490000Y-71120000D02*
X143490000Y-73070000D01*
X143490000Y-71120000D02*
X143490000Y-67670000D01*
X133370000Y-71120000D02*
X133370000Y-73070000D01*
X139700000Y-86975000D02*
X137750000Y-86975000D01*
X139700000Y-76855000D02*
X141650000Y-76855000D01*
X139700000Y-76855000D02*
X137750000Y-76855000D01*
X139700000Y-86975000D02*
X143150000Y-86975000D01*
X113645000Y-71120000D02*
X113645000Y-67670000D01*
X103525000Y-71120000D02*
X103525000Y-69170000D01*
X113645000Y-71120000D02*
X113645000Y-73070000D01*
X103525000Y-71120000D02*
X103525000Y-73070000D01*
X106680000Y-76855000D02*
X108630000Y-76855000D01*
X106680000Y-76855000D02*
X103230000Y-76855000D01*
X106680000Y-86975000D02*
X104730000Y-86975000D01*
X106680000Y-86975000D02*
X108630000Y-86975000D01*
M02*
