M48
; DRILL file {KiCad 6.0.2} date Mon 14 Mar 2022 21:08:28
; FORMAT={-:-/ absolute / inch / decimal}
; #@! TF.CreationDate,2022-03-14T21:08:28+11:00
; #@! TF.GenerationSoftware,Kicad,Pcbnew,6.0.2
; #@! TF.FileFunction,Plated,1,2,PTH
FMAT,2
INCH
; #@! TA.AperFunction,Plated,PTH,ViaDrill
T1C0.0157
; #@! TA.AperFunction,Plated,PTH,ComponentDrill
T2C0.0394
; #@! TA.AperFunction,Plated,PTH,ComponentDrill
T3C0.0400
; #@! TA.AperFunction,Plated,PTH,ComponentDrill
T4C0.0598
; #@! TA.AperFunction,Plated,PTH,ComponentDrill
T5C0.1181
%
G90
G05
T1
X4.2362Y-3.2015
X4.3Y-2.9615
X4.3584Y-3.3201
X4.3789Y-2.9658
X4.7233Y-3.3284
X5.0415Y-3.1546
X5.0462Y-2.9125
X5.2997Y-3.1098
X5.3394Y-3.2074
X5.3709Y-2.9601
X5.6367Y-3.0145
T2
X3.8Y-3.8
X3.8Y-4.0
X3.9Y-3.8
X3.9Y-4.0
X4.9Y-3.8
X4.9Y-4.0
X5.0Y-3.6
X5.0Y-3.8
X5.0Y-4.0
X5.1Y-3.6
X5.2Y-3.6
X5.2Y-3.8
X5.2Y-4.0
X5.3Y-3.8
X5.3Y-4.0
X5.4Y-3.8
X5.4Y-4.0
X5.5Y-3.8
X5.5Y-4.0
X5.6Y-3.8
X5.6Y-4.0
X5.7Y-3.8
X5.7Y-4.0
T3
X3.1Y-2.6
X3.1Y-2.7
X3.1Y-2.8
X3.1Y-2.9
X3.1Y-3.0
X3.1Y-3.1
X3.1Y-3.2
X3.1Y-3.3
X3.3Y-2.6
X3.3Y-2.7
X3.3Y-2.8
X3.3Y-2.9
X3.3Y-3.0
X3.3Y-3.1
X3.3Y-3.2
X3.3Y-3.3
X3.5Y-2.6
X3.5Y-2.7
X3.5Y-2.8
X3.5Y-2.9
X3.5Y-3.0
X3.5Y-3.1
X3.5Y-3.2
X3.5Y-3.3
X4.0Y-1.8
X4.0Y-2.0
X4.0Y-2.2
X4.1Y-1.8
X4.1Y-2.0
X4.1Y-2.2
X4.2Y-1.8
X4.2Y-2.0
X4.2Y-2.2
X4.3Y-1.8
X4.3Y-2.0
X4.3Y-2.2
X4.4Y-1.8
X4.4Y-2.0
X4.4Y-2.2
X4.5Y-1.8
X4.5Y-2.0
X4.5Y-2.2
X4.6Y-1.8
X4.6Y-2.0
X4.6Y-2.2
X4.7Y-1.8
X4.7Y-2.0
X4.7Y-2.2
X5.0Y-1.8
X5.0Y-2.0
X5.0Y-2.2
X5.1Y-1.8
X5.1Y-2.0
X5.1Y-2.2
X5.2Y-1.8
X5.2Y-2.0
X5.2Y-2.2
X5.3Y-1.8
X5.3Y-2.0
X5.3Y-2.2
X5.4Y-1.8
X5.4Y-2.0
X5.4Y-2.2
X5.5Y-1.8
X5.5Y-2.0
X5.5Y-2.2
X5.6Y-1.8
X5.6Y-2.0
X5.6Y-2.2
X5.7Y-1.8
X5.7Y-2.0
X5.7Y-2.2
X6.2Y-2.6
X6.2Y-2.7
X6.2Y-2.8
X6.2Y-2.9
X6.2Y-3.0
X6.2Y-3.1
X6.2Y-3.2
X6.2Y-3.3
X6.4Y-2.6
X6.4Y-2.7
X6.4Y-2.8
X6.4Y-2.9
X6.4Y-3.0
X6.4Y-3.1
X6.4Y-3.2
X6.4Y-3.3
X6.6Y-2.6
X6.6Y-2.7
X6.6Y-2.8
X6.6Y-2.9
X6.6Y-3.0
X6.6Y-3.1
X6.6Y-3.2
X6.6Y-3.3
T4
X4.3Y-3.9
X4.5Y-3.9
T5
X3.1Y-1.8
X3.1Y-4.0
X6.6Y-1.8
X6.6Y-4.0
T0
M30
